<svg width="19" height="19" viewBox="0 0 19 19" fill="none" xmlns="http://www.w3.org/2000/svg">
<path d="M14.4955 11.4904C13.4729 11.4904 12.5094 11.8907 11.7826 12.6175C11.6854 12.7148 11.5871 12.8254 11.4821 12.9556C11.433 13.0166 11.3603 13.0539 11.2821 13.058C11.2035 13.0623 11.1276 13.033 11.0722 12.9776L5.96738 7.87276C5.91143 7.81686 5.88218 7.73947 5.88715 7.66049C5.89207 7.5815 5.93067 7.50843 5.9932 7.45988C6.10463 7.37326 6.214 7.27597 6.32756 7.16235C7.05017 6.43974 7.45079 5.48243 7.45564 4.46673C7.46055 3.4521 7.06977 2.49999 6.35545 1.78574C5.64599 1.07628 4.70034 0.685547 3.69275 0.685547C2.67013 0.685547 1.70636 1.08616 0.978897 1.81368C-0.302774 3.09536 0.172153 5.1602 0.796232 6.66664C1.86451 9.24526 4.20084 12.2652 7.04596 14.745C8.70788 16.1936 10.3501 17.2938 11.8401 17.9783H0.638555C0.486206 17.9783 0.362634 18.1018 0.362634 18.2541C0.362634 18.4065 0.486147 18.5301 0.638555 18.5301H13.305C13.899 18.7004 14.4562 18.7889 14.9652 18.789C14.9655 18.789 14.9654 18.789 14.9657 18.789C15.8594 18.7889 16.5887 18.5128 17.1333 17.9681C18.6233 16.4781 18.6359 14.0662 17.1613 12.5915C16.4511 11.8814 15.5045 11.4904 14.4955 11.4904Z" fill="#302A2D"/>
</svg>
