<svg width="37" height="34" viewBox="0 0 37 34" fill="none" xmlns="http://www.w3.org/2000/svg">
<g id="BRAND LOGO" clip-path="url(#clip0_14_2155)">
<g id="Logo">
<path id="Vector" d="M23.503 1.22348C21.9573 0.407827 20.4908 0 19.0244 0C17.3994 0 16.0914 0.475798 14.9817 0.883625C14.2286 1.15551 13.5548 1.39341 13 1.39341C12.4451 1.39341 11.8109 1.15551 11.0183 0.883625C9.94814 0.475798 8.60058 0 7.01521 0C5.54875 0 4.08228 0.407827 2.53655 1.22348C-1.7043 3.50051 0.356672 8.90422 1.86277 12.8465C2.37801 14.24 2.85362 15.4295 2.93289 16.2111C3.05179 17.4346 2.93289 18.93 2.77436 20.5273C2.53655 22.8383 2.29875 25.2513 2.93289 27.1885C3.96338 30.4171 7.25301 32.7961 7.41155 32.898C7.53045 32.966 7.64936 33 7.76826 33C7.88716 33 7.96643 32.966 8.08533 32.932C8.2835 32.8301 8.4024 32.6262 8.36277 32.4222C8.36277 32.3543 7.09448 26.5427 8.67984 22.8383C9.98777 19.7456 12.1676 20 13 20C13.8323 20 16.0914 19.7796 17.3994 22.8383C18.9847 26.5427 17.7164 32.3543 17.7164 32.4222C17.6768 32.6262 17.7957 32.8301 17.9939 32.932C18.192 33.034 18.4695 33.034 18.6676 32.898C18.8262 32.7961 22.1158 30.4171 23.1463 27.1885C23.7408 25.2853 23.5426 22.8723 23.3048 20.5273C23.1463 18.93 23.0274 17.4346 23.1463 16.2111C23.2256 15.4295 23.7012 14.24 24.2164 12.8465C24.5731 11.9289 24.9695 10.9094 25.2866 9.8898H25.3262V9.85582C26.317 6.52523 26.7134 2.99073 23.503 1.22348Z" fill="#232323"/>
<circle id="Ellipse 8" cx="32" cy="29" r="5" fill="#F95C55"/>
</g>
</g>
<defs>
<clipPath id="clip0_14_2155">
<rect width="36.9854" height="34" fill="white" transform="translate(0.0145264)"/>
</clipPath>
</defs>
</svg>
