<svg width="170" height="169" viewBox="0 0 170 169" fill="none" xmlns="http://www.w3.org/2000/svg">
<g id="Group">
<g id="Group_2">
<g id="Group_3">
<g id="Group_4">
<g id="Group_5">
<path id="Vector" d="M85.0277 70.0636C84.4176 70.0636 84.1958 52.9052 84.1958 48.0656C84.1958 43.226 84.4176 39.3214 85.0277 39.3214C85.6379 39.3214 85.8597 43.226 85.8597 48.0656C85.8042 52.9052 85.5824 70.0636 85.0277 70.0636Z" fill="#2D2D2D"/>
</g>
<g id="Group_6">
<path id="Vector_2" d="M85.0277 37.0666C84.4176 37.0666 84.1958 27.6625 84.1958 25.0227C84.1958 22.383 84.4176 20.2382 85.0277 20.2382C85.6379 20.2382 85.8597 22.383 85.8597 25.0227C85.8597 27.6625 85.5824 37.0666 85.0277 37.0666Z" fill="#2D2D2D"/>
</g>
<g id="Group_7">
<path id="Vector_3" d="M85.0277 17.9834C84.4176 17.9834 84.1958 13.5288 84.1958 12.3189C84.1958 11.054 84.4176 10.0641 85.0277 10.0641C85.6379 10.0641 85.8597 11.054 85.8597 12.3189C85.8042 13.5838 85.5824 17.9834 85.0277 17.9834Z" fill="#2D2D2D"/>
</g>
<g id="Group_8">
<path id="Vector_4" d="M85.0277 7.80933C84.4176 7.80933 84.1958 3.46474 84.1958 2.25485C84.1958 1.04496 84.4176 0.0550537 85.0277 0.0550537C85.6379 0.0550537 85.8597 1.04496 85.8597 2.25485C85.8042 3.46474 85.5824 7.80933 85.0277 7.80933Z" fill="#2D2D2D"/>
</g>
</g>
<g id="Group_9">
<g id="Group_10">
<path id="Vector_5" d="M77.8173 71.9883C77.3181 72.2633 68.4437 57.5246 66.0032 53.345C63.5628 49.1654 61.7879 45.6457 62.2871 45.3708C62.7863 45.0958 64.9494 48.3405 67.3899 52.5201C69.8858 56.6997 78.3165 71.6583 77.8173 71.9883Z" fill="#2D2D2D"/>
</g>
<g id="Group_11">
<path id="Vector_6" d="M61.1778 43.391C60.6786 43.6659 55.7422 35.6367 54.411 33.3819C53.0799 31.0721 52.1925 29.1473 52.6916 28.8173C53.1908 28.5424 54.4665 30.2472 55.7977 32.557C57.1843 34.8668 61.677 43.116 61.1778 43.391Z" fill="#2D2D2D"/>
</g>
<g id="Group_12">
<path id="Vector_7" d="M51.5823 26.8926C51.0832 27.1675 48.6427 23.4279 48.0326 22.383C47.4225 21.2831 47.0897 20.2932 47.5889 20.0182C48.0881 19.7432 48.8091 20.5132 49.4192 21.5581C50.0293 22.658 52.0815 26.6176 51.5823 26.8926Z" fill="#2D2D2D"/>
</g>
<g id="Group_13">
<path id="Vector_8" d="M46.4241 18.0384C45.9249 18.3133 43.5399 14.6837 42.9298 13.5838C42.3197 12.5389 41.9869 11.549 42.4861 11.274C42.9853 10.999 43.7063 11.7139 44.3164 12.8138C44.9266 13.8587 46.9233 17.7634 46.4241 18.0384Z" fill="#2D2D2D"/>
</g>
</g>
<g id="Group_14">
<g id="Group_15">
<path id="Vector_9" d="M72.6036 77.1578C72.3263 77.6528 57.1844 69.2386 52.9691 66.8188C48.7537 64.399 45.4258 62.2542 45.7586 61.7593C46.0359 61.2643 49.5857 63.0241 53.801 65.4439C58.0164 67.9187 72.881 76.6629 72.6036 77.1578Z" fill="#2D2D2D"/>
</g>
<g id="Group_16">
<path id="Vector_10" d="M43.7619 60.6594C43.4846 61.1543 35.1648 56.6447 32.8353 55.3248C30.5058 54.005 28.7863 52.7401 29.0637 52.2451C29.341 51.7502 31.3377 52.6301 33.6673 53.95C35.9413 55.2699 44.0392 60.1644 43.7619 60.6594Z" fill="#2D2D2D"/>
</g>
<g id="Group_17">
<path id="Vector_11" d="M27.1224 51.1452C26.8451 51.6402 22.8516 49.6054 21.7423 49.0004C20.633 48.3955 19.8565 47.6805 20.1893 47.1856C20.4666 46.6906 21.465 47.0206 22.5743 47.6255C23.6281 48.2305 27.3997 50.6503 27.1224 51.1452Z" fill="#2D2D2D"/>
</g>
<g id="Group_18">
<path id="Vector_12" d="M18.1925 46.0307C17.9152 46.5257 13.9772 44.5459 12.9234 43.9409C11.8695 43.336 11.093 42.621 11.3703 42.1261C11.6477 41.6311 12.646 41.9061 13.6999 42.566C14.8092 43.171 18.5253 45.5358 18.1925 46.0307Z" fill="#2D2D2D"/>
</g>
</g>
<g id="Group_19">
<g id="Group_20">
<path id="Vector_13" d="M70.6623 84.3072C70.6623 84.9122 53.3572 85.1321 48.4763 85.1321C43.5954 85.1321 39.6574 84.9122 39.6574 84.3072C39.6574 83.7023 43.5954 83.4823 48.4763 83.4823C53.3572 83.4823 70.6623 83.7023 70.6623 84.3072Z" fill="#2D2D2D"/>
</g>
<g id="Group_21">
<path id="Vector_14" d="M37.3834 84.3072C37.3834 84.9122 27.8989 85.1321 25.2366 85.1321C22.5742 85.1321 20.4111 84.9122 20.4111 84.3072C20.4111 83.7023 22.5742 83.4823 25.2366 83.4823C27.8989 83.4823 37.3834 83.7023 37.3834 84.3072Z" fill="#2D2D2D"/>
</g>
<g id="Group_22">
<path id="Vector_15" d="M18.137 84.3072C18.137 84.9122 13.6443 85.1321 12.4241 85.1321C11.1484 85.1321 10.1501 84.9122 10.1501 84.3072C10.1501 83.7023 11.1484 83.4823 12.4241 83.4823C13.6998 83.4823 18.137 83.7023 18.137 84.3072Z" fill="#2D2D2D"/>
</g>
<g id="Group_23">
<path id="Vector_16" d="M7.87602 84.3072C7.87602 84.9122 3.49429 85.1321 2.2186 85.1321C0.998369 85.1321 0 84.9122 0 84.3072C0 83.7023 0.998369 83.4823 2.2186 83.4823C3.49429 83.4823 7.87602 83.7023 7.87602 84.3072Z" fill="#2D2D2D"/>
</g>
</g>
<g id="Group_24">
<g id="Group_25">
<path id="Vector_17" d="M72.6036 91.4016C72.8809 91.8965 58.0163 100.696 53.8009 103.115C49.5856 105.535 46.0359 107.295 45.7585 106.8C45.4812 106.305 48.7536 104.16 52.969 101.741C57.1843 99.2659 72.2708 90.9066 72.6036 91.4016Z" fill="#2D2D2D"/>
</g>
<g id="Group_26">
<path id="Vector_18" d="M43.7618 107.9C44.0391 108.395 35.9967 113.29 33.6672 114.609C31.3377 115.929 29.3964 116.809 29.0636 116.314C28.7863 115.819 30.5057 114.554 32.8352 113.235C35.1648 111.915 43.4845 107.405 43.7618 107.9Z" fill="#2D2D2D"/>
</g>
<g id="Group_27">
<path id="Vector_19" d="M27.1223 117.414C27.3996 117.909 23.628 120.329 22.5742 120.934C21.4649 121.539 20.4665 121.869 20.1892 121.374C19.9119 120.879 20.6884 120.164 21.7422 119.559C22.8515 118.954 26.845 116.919 27.1223 117.414Z" fill="#2D2D2D"/>
</g>
<g id="Group_28">
<path id="Vector_20" d="M18.1925 122.529C18.4698 123.024 14.8091 125.388 13.6998 126.048C12.646 126.653 11.6476 126.983 11.3703 126.433C11.093 125.938 11.814 125.223 12.9233 124.619C13.9771 124.014 17.9151 122.034 18.1925 122.529Z" fill="#2D2D2D"/>
</g>
</g>
<g id="Group_29">
<g id="Group_30">
<path id="Vector_21" d="M77.8173 96.6262C78.3165 96.9011 69.8858 111.915 67.4454 116.094C65.0049 120.274 62.8418 123.574 62.3426 123.244C61.8434 122.969 63.6183 119.449 66.0587 115.269C68.4437 111.09 77.3181 96.2962 77.8173 96.6262Z" fill="#2D2D2D"/>
</g>
<g id="Group_31">
<path id="Vector_22" d="M61.1778 125.169C61.677 125.443 57.1289 133.693 55.7977 136.003C54.4666 138.312 53.1909 140.017 52.6917 139.742C52.1925 139.467 53.08 137.487 54.4111 135.178C55.7423 132.923 60.6786 124.894 61.1778 125.169Z" fill="#2D2D2D"/>
</g>
<g id="Group_32">
<path id="Vector_23" d="M51.5824 141.667C52.0816 141.942 50.0294 145.902 49.4192 147.001C48.8091 148.101 48.0881 148.871 47.5889 148.541C47.0897 148.266 47.367 147.276 48.0326 146.177C48.6427 145.132 51.0832 141.392 51.5824 141.667Z" fill="#2D2D2D"/>
</g>
<g id="Group_33">
<path id="Vector_24" d="M46.4241 150.521C46.9233 150.796 44.9266 154.701 44.3165 155.746C43.7063 156.791 42.9853 157.56 42.4861 157.286C41.9869 157.011 42.2643 156.021 42.9298 154.976C43.54 153.876 45.9249 150.246 46.4241 150.521Z" fill="#2D2D2D"/>
</g>
</g>
<g id="Group_34">
<g id="Group_35">
<path id="Vector_25" d="M85.0277 98.4958C85.6379 98.4958 85.8597 115.654 85.8597 120.494C85.8597 125.333 85.6379 129.238 85.0277 129.238C84.4176 129.238 84.1958 125.333 84.1958 120.494C84.1958 115.654 84.4176 98.4958 85.0277 98.4958Z" fill="#2D2D2D"/>
</g>
<g id="Group_36">
<path id="Vector_26" d="M85.0277 131.493C85.6379 131.493 85.8597 140.897 85.8597 143.537C85.8597 146.176 85.6379 148.321 85.0277 148.321C84.4176 148.321 84.1958 146.176 84.1958 143.537C84.1958 140.897 84.4176 131.493 85.0277 131.493Z" fill="#2D2D2D"/>
</g>
<g id="Group_37">
<path id="Vector_27" d="M85.0277 150.576C85.6379 150.576 85.8597 155.031 85.8597 156.241C85.8597 157.505 85.6379 158.495 85.0277 158.495C84.4176 158.495 84.1958 157.505 84.1958 156.241C84.1958 155.031 84.4176 150.576 85.0277 150.576Z" fill="#2D2D2D"/>
</g>
<g id="Group_38">
<path id="Vector_28" d="M85.0277 160.75C85.6379 160.75 85.8597 165.095 85.8597 166.36C85.8597 167.569 85.6379 168.559 85.0277 168.559C84.4176 168.559 84.1958 167.569 84.1958 166.36C84.1958 165.095 84.4176 160.75 85.0277 160.75Z" fill="#2D2D2D"/>
</g>
</g>
<g id="Group_39">
<g id="Group_40">
<path id="Vector_29" d="M92.1827 96.5711C92.6819 96.2961 101.556 111.035 103.997 115.214C106.437 119.394 108.212 122.914 107.713 123.189C107.214 123.464 105.051 120.219 102.61 116.039C100.114 111.86 91.6835 96.901 92.1827 96.5711Z" fill="#2D2D2D"/>
</g>
<g id="Group_41">
<path id="Vector_30" d="M108.822 125.168C109.321 124.893 114.258 132.923 115.589 135.177C116.92 137.487 117.808 139.412 117.308 139.742C116.809 140.017 115.533 138.312 114.202 136.002C112.871 133.693 108.323 125.498 108.822 125.168Z" fill="#2D2D2D"/>
</g>
<g id="Group_42">
<path id="Vector_31" d="M118.418 141.667C118.917 141.392 121.357 145.132 121.967 146.176C122.578 147.276 122.91 148.266 122.411 148.541C121.912 148.816 121.191 148.046 120.581 147.001C119.971 145.956 117.918 141.997 118.418 141.667Z" fill="#2D2D2D"/>
</g>
<g id="Group_43">
<path id="Vector_32" d="M123.576 150.521C124.075 150.246 126.46 153.876 127.07 154.976C127.68 156.021 128.013 157.01 127.458 157.285C126.959 157.56 126.238 156.845 125.628 155.746C125.073 154.701 123.077 150.796 123.576 150.521Z" fill="#2D2D2D"/>
</g>
</g>
<g id="Group_44">
<g id="Group_45">
<path id="Vector_33" d="M97.3964 91.4016C97.6737 90.9066 112.816 99.2659 117.031 101.686C121.246 104.105 124.574 106.25 124.241 106.745C123.964 107.24 120.414 105.48 116.199 103.061C112.039 100.696 97.1191 91.8965 97.3964 91.4016Z" fill="#2D2D2D"/>
</g>
<g id="Group_46">
<path id="Vector_34" d="M126.238 107.9C126.515 107.405 134.835 111.915 137.165 113.235C139.494 114.554 141.214 115.819 140.936 116.314C140.659 116.809 138.662 115.929 136.333 114.609C134.059 113.29 125.961 108.395 126.238 107.9Z" fill="#2D2D2D"/>
</g>
<g id="Group_47">
<path id="Vector_35" d="M142.878 117.414C143.155 116.919 147.148 118.954 148.258 119.559C149.367 120.164 150.144 120.879 149.811 121.374C149.533 121.869 148.535 121.539 147.426 120.934C146.372 120.329 142.6 117.909 142.878 117.414Z" fill="#2D2D2D"/>
</g>
<g id="Group_48">
<path id="Vector_36" d="M151.807 122.529C152.085 122.034 156.023 124.014 157.077 124.619C158.13 125.223 158.907 125.938 158.63 126.433C158.352 126.928 157.354 126.653 156.3 126.048C155.191 125.388 151.53 123.024 151.807 122.529Z" fill="#2D2D2D"/>
</g>
</g>
<g id="Group_49">
<g id="Group_50">
<path id="Vector_37" d="M99.3377 84.3072C99.3377 83.7023 116.643 83.4823 121.524 83.4823C126.405 83.4823 130.343 83.7023 130.343 84.3072C130.343 84.9122 126.405 85.1321 121.524 85.1321C116.643 85.0772 99.3377 84.8572 99.3377 84.3072Z" fill="#2D2D2D"/>
</g>
<g id="Group_51">
<path id="Vector_38" d="M132.617 84.3072C132.617 83.7023 142.101 83.4823 144.763 83.4823C147.426 83.4823 149.589 83.7023 149.589 84.3072C149.589 84.9122 147.426 85.1321 144.763 85.1321C142.101 85.0772 132.617 84.8572 132.617 84.3072Z" fill="#2D2D2D"/>
</g>
<g id="Group_52">
<path id="Vector_39" d="M151.863 84.3072C151.863 83.7023 156.356 83.4823 157.576 83.4823C158.852 83.4823 159.85 83.7023 159.85 84.3072C159.85 84.9122 158.852 85.1321 157.576 85.1321C156.356 85.0772 151.863 84.8572 151.863 84.3072Z" fill="#2D2D2D"/>
</g>
<g id="Group_53">
<path id="Vector_40" d="M162.124 84.3072C162.124 83.7023 166.506 83.4823 167.781 83.4823C169.002 83.4823 170 83.7023 170 84.3072C170 84.9122 169.002 85.1321 167.781 85.1321C166.561 85.0772 162.124 84.8572 162.124 84.3072Z" fill="#2D2D2D"/>
</g>
</g>
<g id="Group_54">
<g id="Group_55">
<path id="Vector_41" d="M97.3964 77.158C97.1191 76.663 111.984 67.8638 116.199 65.444C120.414 63.0243 123.964 61.2644 124.241 61.7594C124.519 62.2543 121.246 64.3991 117.031 66.8189C112.816 69.2937 97.7292 77.7079 97.3964 77.158Z" fill="#2D2D2D"/>
</g>
<g id="Group_56">
<path id="Vector_42" d="M126.238 60.6593C125.961 60.1644 134.003 55.2698 136.333 53.95C138.662 52.6301 140.604 51.7502 140.936 52.2451C141.214 52.7401 139.494 54.005 137.165 55.3248C134.835 56.6997 126.571 61.1543 126.238 60.6593Z" fill="#2D2D2D"/>
</g>
<g id="Group_57">
<path id="Vector_43" d="M142.878 51.1453C142.6 50.6504 146.372 48.2306 147.426 47.6257C148.535 47.0207 149.533 46.6908 149.811 47.1857C150.088 47.6807 149.312 48.3956 148.258 49.0005C147.204 49.6055 143.21 51.6403 142.878 51.1453Z" fill="#2D2D2D"/>
</g>
<g id="Group_58">
<path id="Vector_44" d="M151.808 46.0308C151.53 45.5358 155.191 43.171 156.3 42.5661C157.354 41.9612 158.352 41.6312 158.63 42.1261C158.907 42.6211 158.186 43.336 157.077 43.941C156.023 44.5459 152.085 46.5257 151.808 46.0308Z" fill="#2D2D2D"/>
</g>
</g>
<g id="Group_59">
<g id="Group_60">
<path id="Vector_45" d="M92.1827 71.9884C91.6836 71.7135 100.114 56.6999 102.555 52.5202C104.995 48.3406 107.158 45.0409 107.657 45.3709C108.157 45.6459 106.382 49.1656 103.941 53.3452C101.556 57.5248 92.6819 72.2634 92.1827 71.9884Z" fill="#2D2D2D"/>
</g>
<g id="Group_61">
<path id="Vector_46" d="M108.822 43.3911C108.323 43.1161 112.871 34.8669 114.202 32.5571C115.533 30.2473 116.809 28.5425 117.308 28.8175C117.808 29.0924 116.92 31.0722 115.589 33.327C114.258 35.6368 109.321 43.6661 108.822 43.3911Z" fill="#2D2D2D"/>
</g>
<g id="Group_62">
<path id="Vector_47" d="M118.418 26.8926C117.918 26.6176 119.971 22.658 120.581 21.5581C121.191 20.4582 121.912 19.7433 122.411 20.0182C122.91 20.2932 122.578 21.2831 121.967 22.383C121.357 23.4279 118.917 27.1676 118.418 26.8926Z" fill="#2D2D2D"/>
</g>
<g id="Group_63">
<path id="Vector_48" d="M123.576 18.0384C123.077 17.7635 125.073 13.8588 125.684 12.8139C126.294 11.769 127.015 10.9991 127.514 11.2741C128.013 11.549 127.736 12.5389 127.126 13.5838C126.46 14.6837 124.075 18.3134 123.576 18.0384Z" fill="#2D2D2D"/>
</g>
</g>
</g>
<g id="Group_64">
<g id="Group_65">
<g id="Group_66">
<path id="Vector_49" d="M83.863 71.4384C83.3084 71.4934 82.0327 59.6695 81.6999 56.3149C81.4226 52.9602 81.3671 50.2654 81.9772 50.2104C82.5319 50.1554 83.0311 52.8502 83.3084 56.1499C83.6412 59.5046 84.4731 71.3834 83.863 71.4384Z" fill="#2D2D2D"/>
</g>
<g id="Group_67">
<path id="Vector_50" d="M81.8108 48.1755C81.2007 48.2305 80.2024 38.9913 79.9805 36.4066C79.7586 33.8218 79.8141 31.677 80.3688 31.622C80.9789 31.567 81.3671 33.6568 81.589 36.2416C81.8108 38.8264 82.4209 48.1205 81.8108 48.1755Z" fill="#2D2D2D"/>
</g>
<g id="Group_68">
<path id="Vector_51" d="M80.2024 29.5873C79.5923 29.6423 78.5384 20.1282 78.3166 17.4885C78.0947 14.7937 78.0947 12.6489 78.7048 12.5939C79.3149 12.5389 79.7032 14.6837 79.9251 17.3785C80.1469 20.0182 80.757 29.5324 80.2024 29.5873Z" fill="#2D2D2D"/>
</g>
<g id="Group_69">
<path id="Vector_52" d="M78.4829 10.5041C77.8728 10.5591 77.54 9.1842 77.54 8.79924C77.4846 8.41428 77.7064 8.08431 78.2611 8.02931C78.8712 7.97432 79.093 8.24929 79.1485 8.68925C79.204 9.07421 79.093 10.4491 78.4829 10.5041Z" fill="#2D2D2D"/>
</g>
</g>
<g id="Group_70">
<g id="Group_71">
<path id="Vector_53" d="M77.54 73.6932C77.0409 74.0232 69.9968 64.3991 68.0555 61.6493C66.1143 58.8996 64.7276 56.5348 65.2268 56.2049C65.726 55.8749 67.4454 57.9647 69.3867 60.7144C71.328 63.5192 78.0392 73.3633 77.54 73.6932Z" fill="#2D2D2D"/>
</g>
<g id="Group_72">
<path id="Vector_54" d="M64.0066 54.555C63.5074 54.885 57.9609 47.4057 56.4633 45.2609C54.9658 43.1161 53.9119 41.2462 54.4111 40.9163C54.9103 40.5863 56.2969 42.1811 57.7945 44.3259C59.3475 46.5257 64.5057 54.225 64.0066 54.555Z" fill="#2D2D2D"/>
</g>
<g id="Group_73">
<path id="Vector_55" d="M53.2463 39.3214C52.7471 39.6514 47.0342 31.9521 45.4812 29.7523C43.9282 27.5525 42.8744 25.6277 43.3181 25.2977C43.8173 24.9678 45.2594 26.6176 46.8124 28.8174C48.3654 31.0172 53.69 38.9915 53.2463 39.3214Z" fill="#2D2D2D"/>
</g>
<g id="Group_74">
<path id="Vector_56" d="M42.1534 23.6479C41.6542 23.9778 40.6558 22.9329 40.434 22.658C40.2121 22.328 40.2121 21.943 40.7113 21.6131C41.2105 21.2831 41.5433 21.3931 41.8206 21.723C42.0424 21.998 42.6525 23.3179 42.1534 23.6479Z" fill="#2D2D2D"/>
</g>
</g>
<g id="Group_75">
<g id="Group_76">
<path id="Vector_57" d="M73.2137 78.8077C72.9919 79.3577 62.0098 74.5181 58.9038 73.0882C55.8532 71.6584 53.4682 70.3385 53.6901 69.7886C53.9119 69.2386 56.5188 70.2285 59.5693 71.6034C62.6754 73.0883 73.4356 78.3128 73.2137 78.8077Z" fill="#2D2D2D"/>
</g>
<g id="Group_77">
<path id="Vector_58" d="M51.8597 68.9636C51.6379 69.5136 43.0408 65.7739 40.6558 64.674C38.2708 63.5741 36.4405 62.4742 36.6623 61.9243C36.8842 61.4293 38.9364 62.0892 41.3214 63.1891C43.7064 64.289 52.0816 68.4137 51.8597 68.9636Z" fill="#2D2D2D"/>
</g>
<g id="Group_78">
<path id="Vector_59" d="M34.832 61.0994C34.6101 61.6494 25.7912 57.7997 23.2953 56.6448C20.8548 55.4899 18.969 54.39 19.1909 53.8401C19.4127 53.3451 21.5204 54.0051 23.9609 55.16C26.4568 56.3149 35.0538 60.5495 34.832 61.0994Z" fill="#2D2D2D"/>
</g>
<g id="Group_79">
<path id="Vector_60" d="M17.3051 53.0151C17.0832 53.5651 15.6966 53.1251 15.3084 52.9601C14.9201 52.7951 14.7537 52.4652 14.9756 51.9152C15.1974 51.3653 15.5857 51.3103 15.9739 51.4753C16.3622 51.6403 17.5824 52.4652 17.3051 53.0151Z" fill="#2D2D2D"/>
</g>
</g>
<g id="Group_80">
<g id="Group_81">
<path id="Vector_61" d="M72.049 85.4071C72.1045 86.012 60.1795 87.2219 56.7961 87.5519C53.4128 87.8268 50.695 87.8818 50.6395 87.2769C50.5841 86.672 53.3019 86.232 56.6852 85.957C60.0131 85.6271 71.9935 84.8571 72.049 85.4071Z" fill="#2D2D2D"/>
</g>
<g id="Group_82">
<path id="Vector_62" d="M48.5873 87.4419C48.6427 88.0469 39.3246 89.0368 36.7178 89.3117C34.1109 89.5317 31.9478 89.4767 31.8923 88.9268C31.8369 88.3768 33.9445 87.9369 36.5514 87.7169C39.1582 87.4419 48.5318 86.837 48.5873 87.4419Z" fill="#2D2D2D"/>
</g>
<g id="Group_83">
<path id="Vector_63" d="M29.8402 89.0918C29.8956 89.6968 20.3002 90.7417 17.6379 90.9616C14.9201 91.1816 12.757 91.1816 12.7015 90.5767C12.646 90.0267 14.8092 89.5868 17.527 89.3668C20.1893 89.0918 29.7847 88.4869 29.8402 89.0918Z" fill="#2D2D2D"/>
</g>
<g id="Group_84">
<path id="Vector_64" d="M10.5938 90.7415C10.6493 91.2915 9.26268 91.6764 8.87442 91.6764C8.48617 91.7314 8.15338 91.5115 8.09791 90.9065C8.04245 90.3016 8.31977 90.0816 8.76349 90.0266C9.15175 90.0816 10.5384 90.1366 10.5938 90.7415Z" fill="#2D2D2D"/>
</g>
</g>
<g id="Group_85">
<g id="Group_86">
<path id="Vector_65" d="M74.323 91.6765C74.6558 92.1715 64.9494 99.1558 62.1762 101.081C59.4029 103.005 57.018 104.38 56.6852 103.885C56.3524 103.39 58.46 101.686 61.2333 99.7608C64.062 97.8359 73.9902 91.2366 74.323 91.6765Z" fill="#2D2D2D"/>
</g>
<g id="Group_87">
<path id="Vector_66" d="M55.0212 105.095C55.354 105.59 47.8108 111.09 45.6477 112.575C43.4845 114.059 41.5987 115.104 41.2659 114.609C40.9331 114.114 42.5416 112.74 44.7048 111.255C46.9233 109.77 54.6884 104.6 55.0212 105.095Z" fill="#2D2D2D"/>
</g>
<g id="Group_88">
<path id="Vector_67" d="M39.6574 115.764C39.9902 116.259 32.2251 121.924 30.0065 123.409C27.7879 124.948 25.8467 125.993 25.5139 125.553C25.1811 125.058 26.845 123.628 29.0636 122.089C31.2822 120.604 39.3246 115.324 39.6574 115.764Z" fill="#2D2D2D"/>
</g>
<g id="Group_89">
<path id="Vector_68" d="M23.8499 126.763C24.1827 127.258 23.1289 128.248 22.8516 128.468C22.5188 128.688 22.1305 128.688 21.7977 128.193C21.4649 127.698 21.5759 127.368 21.9087 127.148C22.186 126.873 23.5171 126.268 23.8499 126.763Z" fill="#2D2D2D"/>
</g>
</g>
<g id="Group_90">
<g id="Group_91">
<path id="Vector_69" d="M79.4813 95.9661C80.0359 96.2411 75.155 107.075 73.7129 110.1C72.2708 113.125 70.9397 115.489 70.385 115.269C69.8304 115.049 70.8287 112.465 72.2153 109.44C73.7129 106.415 78.9821 95.7461 79.4813 95.9661Z" fill="#2D2D2D"/>
</g>
<g id="Group_92">
<path id="Vector_70" d="M69.553 117.139C70.1077 117.359 66.336 125.883 65.2268 128.248C64.1175 130.613 63.0082 132.428 62.4535 132.208C61.8989 131.988 62.6199 129.953 63.7292 127.588C64.8385 125.223 68.9984 116.919 69.553 117.139Z" fill="#2D2D2D"/>
</g>
<g id="Group_93">
<path id="Vector_71" d="M61.6215 134.078C62.1762 134.298 58.2937 143.042 57.1289 145.517C55.9641 147.936 54.8548 149.806 54.3002 149.586C53.7455 149.366 54.4666 147.276 55.6313 144.857C56.7961 142.382 61.0669 133.803 61.6215 134.078Z" fill="#2D2D2D"/>
</g>
<g id="Group_94">
<path id="Vector_72" d="M53.4682 151.401C54.0229 151.621 53.5792 152.996 53.4128 153.381C53.2464 153.711 52.9136 153.931 52.3589 153.711C51.8043 153.436 51.7488 153.106 51.9152 152.721C52.0816 152.336 52.9136 151.126 53.4682 151.401Z" fill="#2D2D2D"/>
</g>
</g>
<g id="Group_95">
<g id="Group_96">
<path id="Vector_73" d="M86.1371 97.176C86.7472 97.121 87.9674 108.945 88.3002 112.3C88.5775 115.654 88.633 118.349 88.0229 118.404C87.4128 118.459 86.9691 115.764 86.6918 112.41C86.359 109.055 85.527 97.176 86.1371 97.176Z" fill="#2D2D2D"/>
</g>
<g id="Group_97">
<path id="Vector_74" d="M88.1893 120.439C88.7994 120.384 89.7978 129.623 90.0196 132.208C90.2415 134.792 90.186 136.937 89.6314 136.992C89.0767 137.047 88.633 134.957 88.4112 132.373C88.1893 129.733 87.6346 120.439 88.1893 120.439Z" fill="#2D2D2D"/>
</g>
<g id="Group_98">
<path id="Vector_75" d="M89.8532 138.972C90.4633 138.917 91.5172 148.431 91.739 151.071C91.9609 153.766 91.9609 155.91 91.3508 155.965C90.7407 156.02 90.3524 153.876 90.1305 151.181C89.8532 148.541 89.2431 139.027 89.8532 138.972Z" fill="#2D2D2D"/>
</g>
<g id="Group_99">
<path id="Vector_76" d="M91.5172 158.055C92.1273 158 92.4601 159.375 92.5155 159.76C92.571 160.145 92.3491 160.475 91.7945 160.53C91.1844 160.585 90.9625 160.31 90.9071 159.87C90.8516 159.54 90.9071 158.11 91.5172 158.055Z" fill="#2D2D2D"/>
</g>
</g>
<g id="Group_100">
<g id="Group_101">
<path id="Vector_77" d="M92.4601 94.8663C92.9593 94.5363 100.003 104.16 101.945 106.91C103.886 109.66 105.273 112.025 104.773 112.355C104.274 112.685 102.555 110.595 100.613 107.845C98.6722 105.095 92.0164 95.1963 92.4601 94.8663Z" fill="#2D2D2D"/>
</g>
<g id="Group_102">
<path id="Vector_78" d="M105.994 114.005C106.493 113.675 112.039 121.154 113.537 123.299C115.034 125.443 116.088 127.313 115.589 127.643C115.09 127.973 113.703 126.378 112.206 124.234C110.708 122.034 105.494 114.335 105.994 114.005Z" fill="#2D2D2D"/>
</g>
<g id="Group_103">
<path id="Vector_79" d="M116.754 129.293C117.253 128.963 122.966 136.662 124.463 138.862C126.016 141.062 127.07 142.987 126.626 143.317C126.127 143.647 124.685 141.997 123.132 139.797C121.635 137.542 116.31 129.623 116.754 129.293Z" fill="#2D2D2D"/>
</g>
<g id="Group_104">
<path id="Vector_80" d="M127.847 144.912C128.346 144.582 129.344 145.627 129.566 145.902C129.788 146.232 129.788 146.616 129.289 146.946C128.79 147.276 128.457 147.166 128.235 146.836C127.958 146.561 127.348 145.297 127.847 144.912Z" fill="#2D2D2D"/>
</g>
</g>
<g id="Group_105">
<g id="Group_106">
<path id="Vector_81" d="M96.7863 89.7517C97.0081 89.2018 107.99 94.0413 111.041 95.4712C114.091 96.901 116.476 98.2209 116.254 98.7709C116.033 99.3208 113.426 98.3309 110.375 96.956C107.325 95.5262 96.5644 90.2467 96.7863 89.7517Z" fill="#2D2D2D"/>
</g>
<g id="Group_107">
<path id="Vector_82" d="M118.14 99.5958C118.362 99.0458 126.959 102.785 129.344 103.885C131.729 104.985 133.56 106.085 133.338 106.635C133.116 107.185 131.064 106.47 128.679 105.37C126.294 104.27 117.918 100.146 118.14 99.5958Z" fill="#2D2D2D"/>
</g>
<g id="Group_108">
<path id="Vector_83" d="M135.223 107.515C135.445 106.965 144.264 110.815 146.76 111.97C149.201 113.125 151.086 114.224 150.865 114.774C150.643 115.324 148.535 114.609 146.095 113.455C143.599 112.245 134.946 108.01 135.223 107.515Z" fill="#2D2D2D"/>
</g>
<g id="Group_109">
<path id="Vector_84" d="M152.695 115.599C152.972 115.049 154.303 115.489 154.692 115.654C155.08 115.819 155.246 116.149 155.025 116.699C154.803 117.249 154.414 117.304 154.026 117.139C153.638 116.919 152.418 116.094 152.695 115.599Z" fill="#2D2D2D"/>
</g>
</g>
<g id="Group_110">
<g id="Group_111">
<path id="Vector_85" d="M98.0066 83.1524C97.9511 82.5474 109.876 81.3375 113.259 81.0076C116.643 80.7326 119.361 80.6776 119.416 81.2825C119.471 81.8875 116.754 82.3274 113.426 82.6024C109.987 82.9324 98.0066 83.7573 98.0066 83.1524Z" fill="#2D2D2D"/>
</g>
<g id="Group_112">
<path id="Vector_86" d="M121.468 81.1176C121.413 80.5676 130.731 79.5227 133.338 79.3027C135.945 79.0828 138.108 79.1378 138.163 79.6877C138.219 80.2926 136.111 80.6776 133.504 80.8976C130.842 81.1176 121.468 81.7225 121.468 81.1176Z" fill="#2D2D2D"/>
</g>
<g id="Group_113">
<path id="Vector_87" d="M140.16 79.5228C140.104 78.9178 149.7 77.8729 152.362 77.6529C155.08 77.4329 157.243 77.4329 157.299 78.0379C157.354 78.6428 155.191 79.0278 152.473 79.2478C149.811 79.4678 140.215 80.0727 140.16 79.5228Z" fill="#2D2D2D"/>
</g>
<g id="Group_114">
<path id="Vector_88" d="M159.406 77.8178C159.351 77.2679 160.737 76.883 161.126 76.883C161.514 76.828 161.847 77.0479 161.902 77.5979C161.958 78.2028 161.625 78.4228 161.237 78.4778C160.904 78.5328 159.462 78.4228 159.406 77.8178Z" fill="#2D2D2D"/>
</g>
</g>
<g id="Group_115">
<g id="Group_116">
<path id="Vector_89" d="M95.6771 76.8829C95.3443 76.388 105.051 69.4036 107.824 67.4788C110.597 65.554 112.982 64.1791 113.315 64.6741C113.648 65.169 111.54 66.8739 108.767 68.7987C105.994 70.7235 96.0098 77.3779 95.6771 76.8829Z" fill="#2D2D2D"/>
</g>
<g id="Group_117">
<path id="Vector_90" d="M114.979 63.4641C114.646 62.9692 122.189 57.4697 124.352 55.9848C126.516 54.5 128.401 53.4551 128.734 53.95C129.067 54.445 127.458 55.8198 125.295 57.3047C123.077 58.8446 115.312 63.9591 114.979 63.4641Z" fill="#2D2D2D"/>
</g>
<g id="Group_118">
<path id="Vector_91" d="M130.398 52.7951C130.065 52.3002 137.83 46.6357 140.049 45.1508C142.268 43.611 144.209 42.5661 144.542 43.006C144.874 43.501 143.21 44.9309 140.992 46.4707C138.718 47.9556 130.731 53.2351 130.398 52.7951Z" fill="#2D2D2D"/>
</g>
<g id="Group_119">
<path id="Vector_92" d="M146.15 41.7962C145.817 41.3012 146.871 40.3113 147.149 40.0913C147.481 39.8714 147.87 39.8714 148.202 40.3663C148.535 40.8613 148.424 41.1912 148.091 41.4112C147.814 41.6862 146.538 42.2911 146.15 41.7962Z" fill="#2D2D2D"/>
</g>
</g>
<g id="Group_120">
<g id="Group_121">
<path id="Vector_93" d="M90.5188 72.5933C89.9642 72.3183 94.8451 61.4843 96.2872 58.4596C97.7292 55.4349 99.0604 53.0701 99.615 53.2901C100.17 53.565 99.1713 56.0948 97.7847 59.1195C96.3426 62.1442 91.018 72.8133 90.5188 72.5933Z" fill="#2D2D2D"/>
</g>
<g id="Group_122">
<path id="Vector_94" d="M100.447 51.4203C99.8924 51.2003 103.664 42.6761 104.773 40.3113C105.883 37.9465 106.992 36.1317 107.547 36.3517C108.046 36.5717 107.38 38.6065 106.271 40.9713C105.162 43.336 101.002 51.6403 100.447 51.4203Z" fill="#2D2D2D"/>
</g>
<g id="Group_123">
<path id="Vector_95" d="M108.434 34.5368C107.879 34.3168 111.762 25.5726 112.927 23.0978C114.091 20.6781 115.201 18.8082 115.755 19.0282C116.31 19.2482 115.589 21.338 114.424 23.7578C113.204 26.1776 108.933 34.7568 108.434 34.5368Z" fill="#2D2D2D"/>
</g>
<g id="Group_124">
<path id="Vector_96" d="M116.587 17.1584C116.033 16.8835 116.421 15.5636 116.643 15.1786C116.809 14.7937 117.142 14.6287 117.697 14.8487C118.251 15.0686 118.307 15.4536 118.14 15.8386C117.918 16.2235 117.086 17.4334 116.587 17.1584Z" fill="#2D2D2D"/>
</g>
</g>
</g>
<g id="Group_125">
<g id="Group_126">
<g id="Group_127">
<path id="Vector_97" d="M82.6427 71.0535C82.0881 71.1635 78.5383 52.5202 77.5954 47.2407C76.6525 41.9612 76.1533 37.6716 76.708 37.6166C77.2626 37.5066 78.261 41.7412 79.2039 46.9657C80.1468 52.2452 83.2528 70.9985 82.6427 71.0535Z" fill="#2D2D2D"/>
</g>
<g id="Group_128">
<path id="Vector_98" d="M76.3197 35.5267C75.7651 35.6367 74.1011 27.6074 73.7128 25.3526C73.3246 23.0978 73.2137 21.228 73.7683 21.118C74.323 21.008 74.8776 22.8229 75.3213 25.0777C75.7096 27.3325 76.9298 35.4167 76.3197 35.5267Z" fill="#2D2D2D"/>
</g>
<g id="Group_129">
<path id="Vector_99" d="M73.3801 19.0282C72.8254 19.1382 71.938 15.6735 71.7716 14.6836C71.6052 13.6937 71.6607 12.8688 72.2708 12.7588C72.8254 12.6488 73.2137 13.4187 73.3801 14.4086C73.6019 15.3985 73.9902 18.9182 73.3801 19.0282Z" fill="#2D2D2D"/>
</g>
<g id="Group_130">
<path id="Vector_100" d="M71.938 10.669C71.3833 10.779 70.6623 8.19428 70.5514 7.47935C70.4404 6.76441 70.5514 6.10447 71.106 5.99448C71.6607 5.88449 71.9935 6.43444 72.1598 7.20437C72.2708 7.9193 72.4926 10.5591 71.938 10.669Z" fill="#2D2D2D"/>
</g>
</g>
<g id="Group_131">
<g id="Group_132">
<path id="Vector_101" d="M76.3198 74.0231C75.876 74.4081 63.3964 59.9994 59.9576 55.9298C56.5188 51.8602 53.8565 48.3955 54.3002 48.0105C54.7439 47.6256 57.739 50.8153 61.1778 54.8849C64.6167 58.9545 76.7635 73.6381 76.3198 74.0231Z" fill="#2D2D2D"/>
</g>
<g id="Group_133">
<path id="Vector_102" d="M52.9135 46.3607C52.4698 46.7457 46.9788 40.6413 45.4812 38.8814C43.9837 37.1216 42.9299 35.5267 43.429 35.1968C43.8728 34.8118 45.2594 36.1317 46.7569 37.8915C48.2545 39.5964 53.3573 45.9758 52.9135 46.3607Z" fill="#2D2D2D"/>
</g>
<g id="Group_134">
<path id="Vector_103" d="M42.0424 33.5468C41.5987 33.9318 39.1027 31.347 38.4926 30.5771C37.827 29.8072 37.4943 29.0373 37.938 28.6523C38.3817 28.2673 39.1027 28.7623 39.7128 29.5322C40.3784 30.3021 42.4861 33.1619 42.0424 33.5468Z" fill="#2D2D2D"/>
</g>
<g id="Group_135">
<path id="Vector_104" d="M36.5514 27.0025C36.1076 27.3875 34.2218 25.4627 33.7227 24.9127C33.2235 24.3628 33.0016 23.7578 33.5008 23.3729C33.9445 22.9879 34.4992 23.3179 34.9983 23.8678C35.4421 24.4728 36.9951 26.6725 36.5514 27.0025Z" fill="#2D2D2D"/>
</g>
</g>
<g id="Group_136">
<g id="Group_137">
<path id="Vector_105" d="M72.2708 79.6877C72.049 80.2376 54.0228 73.9682 48.9755 72.1534C43.9282 70.3385 39.8793 68.6337 40.1011 68.0838C40.323 67.5338 44.4829 68.7987 49.5302 70.6135C54.5775 72.4284 72.4927 79.1377 72.2708 79.6877Z" fill="#2D2D2D"/>
</g>
<g id="Group_138">
<path id="Vector_106" d="M38.1044 67.3689C37.8825 67.9189 30.062 65.3341 27.8989 64.5642C25.7357 63.7942 24.0163 62.9143 24.2382 62.3644C24.46 61.8144 26.2904 62.2544 28.4535 63.0243C30.6166 63.7942 38.2708 66.819 38.1044 67.3689Z" fill="#2D2D2D"/>
</g>
<g id="Group_139">
<path id="Vector_107" d="M22.1859 61.6494C21.9641 62.1993 18.5253 61.2094 17.5824 60.8245C16.6395 60.4945 15.9184 59.9995 16.1403 59.4496C16.3621 58.8996 17.1941 58.9546 18.137 59.3396C19.1354 59.6696 22.4078 61.0994 22.1859 61.6494Z" fill="#2D2D2D"/>
</g>
<g id="Group_140">
<path id="Vector_108" d="M14.1436 58.7346C13.9217 59.2846 11.3703 58.5697 10.6493 58.3497C9.92822 58.0747 9.42904 57.6897 9.6509 57.1398C9.87276 56.5898 10.4829 56.5898 11.2039 56.8648C11.925 57.0298 14.3654 58.1847 14.1436 58.7346Z" fill="#2D2D2D"/>
</g>
</g>
<g id="Group_141">
<g id="Group_142">
<path id="Vector_109" d="M71.6607 86.617C71.7716 87.1669 52.969 90.6866 47.6443 91.6215C42.3197 92.5564 37.9934 93.1064 37.8825 92.5014C37.7716 91.9515 42.0424 90.9616 47.3116 90.0266C52.6916 89.0917 71.6052 86.067 71.6607 86.617Z" fill="#2D2D2D"/>
</g>
<g id="Group_143">
<path id="Vector_110" d="M35.8303 92.8864C35.9413 93.4363 27.8434 95.0862 25.5693 95.5261C23.2953 95.9111 21.4095 96.0211 21.2985 95.4711C21.1876 94.9212 23.0179 94.3712 25.292 93.9313C27.5661 93.4913 35.7194 92.2814 35.8303 92.8864Z" fill="#2D2D2D"/>
</g>
<g id="Group_144">
<path id="Vector_111" d="M19.1908 95.8011C19.3017 96.351 15.8074 97.231 14.8091 97.3959C13.8107 97.5609 12.9787 97.5059 12.8678 96.901C12.7569 96.351 13.5334 95.9661 14.5318 95.8011C15.5301 95.6361 19.0799 95.1962 19.1908 95.8011Z" fill="#2D2D2D"/>
</g>
<g id="Group_145">
<path id="Vector_112" d="M10.7602 97.2859C10.8711 97.8359 8.26426 98.5508 7.54321 98.6608C6.82217 98.7708 6.15659 98.6608 6.04566 98.1109C5.93473 97.5609 6.48938 97.231 7.26589 97.066C7.98693 96.956 10.6492 96.681 10.7602 97.2859Z" fill="#2D2D2D"/>
</g>
</g>
<g id="Group_146">
<g id="Group_147">
<path id="Vector_113" d="M74.6558 92.8864C75.044 93.3263 60.5122 105.7 56.4078 109.11C52.3034 112.52 48.8091 115.159 48.4209 114.719C48.0326 114.279 51.2496 111.31 55.354 107.9C59.4584 104.49 74.2675 92.4464 74.6558 92.8864Z" fill="#2D2D2D"/>
</g>
<g id="Group_148">
<path id="Vector_114" d="M46.7569 116.094C47.1452 116.534 40.9886 121.979 39.2137 123.464C37.4388 124.948 35.8303 125.993 35.4975 125.498C35.1093 125.058 36.4404 123.684 38.2153 122.199C39.9347 120.714 46.3687 115.654 46.7569 116.094Z" fill="#2D2D2D"/>
</g>
<g id="Group_149">
<path id="Vector_115" d="M33.8336 126.873C34.2218 127.313 31.615 129.788 30.8384 130.448C30.0619 131.108 29.2854 131.438 28.8972 130.998C28.5089 130.558 29.0081 129.843 29.7846 129.238C30.5611 128.523 33.4453 126.433 33.8336 126.873Z" fill="#2D2D2D"/>
</g>
<g id="Group_150">
<path id="Vector_116" d="M27.2332 132.318C27.6215 132.758 25.7357 134.627 25.1256 135.122C24.5709 135.617 23.9608 135.837 23.5726 135.397C23.1843 134.957 23.5171 134.407 24.0717 133.913C24.6819 133.418 26.9004 131.878 27.2332 132.318Z" fill="#2D2D2D"/>
</g>
</g>
<g id="Group_151">
<g id="Group_152">
<path id="Vector_117" d="M80.3687 96.9011C80.9233 97.1211 74.6003 114.994 72.77 119.999C70.9396 125.003 69.2202 129.018 68.6656 128.798C68.1109 128.578 69.3866 124.454 71.217 119.449C73.0473 114.444 79.814 96.6811 80.3687 96.9011Z" fill="#2D2D2D"/>
</g>
<g id="Group_153">
<path id="Vector_118" d="M67.9446 130.778C68.4992 130.998 65.8924 138.752 65.1159 140.897C64.3394 143.042 63.4519 144.747 62.8973 144.527C62.3426 144.307 62.7863 142.492 63.5628 140.347C64.3394 138.202 67.3899 130.613 67.9446 130.778Z" fill="#2D2D2D"/>
</g>
<g id="Group_154">
<path id="Vector_119" d="M62.1762 146.561C62.7308 146.781 61.7325 150.191 61.3442 151.126C61.0114 152.061 60.5122 152.776 59.9576 152.556C59.4029 152.336 59.4584 151.511 59.7912 150.576C60.1794 149.586 61.6215 146.341 62.1762 146.561Z" fill="#2D2D2D"/>
</g>
<g id="Group_155">
<path id="Vector_120" d="M59.2365 154.536C59.7912 154.756 59.0701 157.285 58.8483 158C58.571 158.715 58.1827 159.21 57.6281 158.99C57.0734 158.77 57.0734 158.165 57.3507 157.45C57.5726 156.735 58.6819 154.316 59.2365 154.536Z" fill="#2D2D2D"/>
</g>
</g>
<g id="Group_156">
<g id="Group_157">
<path id="Vector_121" d="M87.3572 97.506C87.9119 97.396 91.4616 116.039 92.4045 121.319C93.3474 126.598 93.8466 130.888 93.292 130.943C92.7373 131.053 91.739 126.818 90.796 121.594C89.8531 116.314 86.8026 97.561 87.3572 97.506Z" fill="#2D2D2D"/>
</g>
<g id="Group_158">
<path id="Vector_122" d="M93.6802 133.033C94.2349 132.923 95.8988 140.952 96.3425 143.207C96.7308 145.462 96.8417 147.331 96.2871 147.441C95.7324 147.551 95.1778 145.737 94.7341 143.482C94.2903 141.227 93.0701 133.143 93.6802 133.033Z" fill="#2D2D2D"/>
</g>
<g id="Group_159">
<path id="Vector_123" d="M96.6199 149.531C97.1745 149.421 98.062 152.886 98.2283 153.876C98.3947 154.866 98.3393 155.691 97.7292 155.801C97.1745 155.911 96.7863 155.141 96.6199 154.151C96.4535 153.161 96.0097 149.641 96.6199 149.531Z" fill="#2D2D2D"/>
</g>
<g id="Group_160">
<path id="Vector_124" d="M98.1174 157.89C98.6721 157.78 99.3931 160.365 99.504 161.08C99.615 161.795 99.504 162.455 98.9494 162.565C98.3948 162.675 98.062 162.125 97.8956 161.355C97.7846 160.64 97.5073 158 98.1174 157.89Z" fill="#2D2D2D"/>
</g>
</g>
<g id="Group_161">
<g id="Group_162">
<path id="Vector_125" d="M93.6802 94.5363C94.1239 94.1513 106.604 108.56 110.042 112.63C113.481 116.699 116.144 120.164 115.7 120.549C115.256 120.934 112.261 117.744 108.822 113.674C105.383 109.605 93.2365 94.9212 93.6802 94.5363Z" fill="#2D2D2D"/>
</g>
<g id="Group_163">
<path id="Vector_126" d="M117.086 122.199C117.53 121.814 123.021 127.918 124.519 129.678C126.016 131.438 127.07 133.033 126.571 133.363C126.127 133.748 124.741 132.428 123.243 130.668C121.745 128.963 116.643 122.584 117.086 122.199Z" fill="#2D2D2D"/>
</g>
<g id="Group_164">
<path id="Vector_127" d="M127.958 135.012C128.401 134.628 130.897 137.212 131.507 137.982C132.173 138.752 132.506 139.522 132.062 139.907C131.618 140.292 130.897 139.797 130.287 139.027C129.621 138.257 127.514 135.397 127.958 135.012Z" fill="#2D2D2D"/>
</g>
<g id="Group_165">
<path id="Vector_128" d="M133.449 141.557C133.892 141.172 135.778 143.042 136.277 143.647C136.776 144.197 136.998 144.802 136.555 145.187C136.111 145.572 135.556 145.242 135.057 144.692C134.558 144.087 133.005 141.887 133.449 141.557Z" fill="#2D2D2D"/>
</g>
</g>
<g id="Group_166">
<g id="Group_167">
<path id="Vector_129" d="M97.7292 88.8718C97.9511 88.3219 115.977 94.5913 121.024 96.4061C126.072 98.2209 130.121 99.9258 129.899 100.476C129.677 101.026 125.517 99.7608 120.47 97.946C115.423 96.1311 97.5074 89.4218 97.7292 88.8718Z" fill="#2D2D2D"/>
</g>
<g id="Group_168">
<path id="Vector_130" d="M131.896 101.191C132.117 100.641 139.938 103.226 142.101 103.995C144.264 104.765 145.984 105.645 145.762 106.195C145.54 106.745 143.71 106.305 141.546 105.535C139.383 104.765 131.729 101.741 131.896 101.191Z" fill="#2D2D2D"/>
</g>
<g id="Group_169">
<path id="Vector_131" d="M147.814 106.965C148.036 106.415 151.475 107.405 152.418 107.79C153.36 108.12 154.082 108.615 153.86 109.165C153.638 109.715 152.806 109.66 151.863 109.33C150.865 108.89 147.592 107.515 147.814 106.965Z" fill="#2D2D2D"/>
</g>
<g id="Group_170">
<path id="Vector_132" d="M155.856 109.825C156.078 109.275 158.63 109.99 159.351 110.21C160.072 110.485 160.571 110.87 160.349 111.42C160.127 111.97 159.517 111.97 158.796 111.695C158.075 111.53 155.635 110.375 155.856 109.825Z" fill="#2D2D2D"/>
</g>
</g>
<g id="Group_171">
<g id="Group_172">
<path id="Vector_133" d="M98.3393 81.9424C98.2283 81.3925 117.031 77.8728 122.356 76.9379C127.68 76.003 132.006 75.508 132.117 76.058C132.228 76.6079 127.958 77.5978 122.688 78.5327C117.308 79.4677 98.4502 82.5474 98.3393 81.9424Z" fill="#2D2D2D"/>
</g>
<g id="Group_173">
<path id="Vector_134" d="M134.17 75.673C134.059 75.123 142.157 73.4732 144.431 73.0332C146.705 72.6483 148.591 72.5383 148.701 73.0882C148.812 73.6382 146.982 74.1881 144.708 74.6281C142.434 75.068 134.281 76.2779 134.17 75.673Z" fill="#2D2D2D"/>
</g>
<g id="Group_174">
<path id="Vector_135" d="M150.809 72.7582C150.698 72.2082 154.192 71.3283 155.191 71.1633C156.189 70.9984 157.021 71.0534 157.132 71.6583C157.243 72.2082 156.467 72.5932 155.468 72.7582C154.47 72.9782 150.92 73.3631 150.809 72.7582Z" fill="#2D2D2D"/>
</g>
<g id="Group_175">
<path id="Vector_136" d="M159.24 71.3284C159.129 70.7784 161.736 70.0635 162.457 69.9535C163.178 69.8435 163.843 69.9535 163.954 70.5034C164.065 71.0534 163.511 71.3834 162.734 71.5484C162.013 71.6583 159.351 71.8783 159.24 71.3284Z" fill="#2D2D2D"/>
</g>
</g>
<g id="Group_176">
<g id="Group_177">
<path id="Vector_137" d="M95.3442 75.6731C94.9559 75.2331 109.488 62.8593 113.592 59.4496C117.697 56.0399 121.191 53.4002 121.579 53.8401C121.967 54.2801 118.75 57.2498 114.646 60.6595C110.542 64.0692 95.7324 76.1131 95.3442 75.6731Z" fill="#2D2D2D"/>
</g>
<g id="Group_178">
<path id="Vector_138" d="M123.243 52.4652C122.855 52.0252 129.011 46.5808 130.786 45.0959C132.561 43.611 134.17 42.5661 134.502 43.0611C134.891 43.5011 133.56 44.8759 131.785 46.3608C130.065 47.8456 123.631 52.9052 123.243 52.4652Z" fill="#2D2D2D"/>
</g>
<g id="Group_179">
<path id="Vector_139" d="M136.166 41.6862C135.778 41.2463 138.385 38.7715 139.161 38.1665C139.938 37.5066 140.714 37.1766 141.103 37.6166C141.491 38.0565 140.992 38.7715 140.215 39.3764C139.439 40.0364 136.555 42.1262 136.166 41.6862Z" fill="#2D2D2D"/>
</g>
<g id="Group_180">
<path id="Vector_140" d="M142.767 36.2417C142.378 35.8018 144.264 33.9319 144.874 33.437C145.429 32.942 146.039 32.7221 146.427 33.162C146.816 33.602 146.483 34.1519 145.928 34.6469C145.318 35.1418 143.155 36.6817 142.767 36.2417Z" fill="#2D2D2D"/>
</g>
</g>
<g id="Group_181">
<g id="Group_182">
<path id="Vector_141" d="M89.6313 71.6584C89.0767 71.4384 95.3997 53.565 97.23 48.5605C99.0604 43.556 100.78 39.5413 101.334 39.7613C101.889 39.9813 100.613 44.1059 98.783 49.1104C96.9527 54.115 90.186 71.8783 89.6313 71.6584Z" fill="#2D2D2D"/>
</g>
<g id="Group_183">
<path id="Vector_142" d="M102.056 37.7814C101.501 37.5614 104.108 29.8072 104.884 27.6624C105.661 25.5176 106.548 23.8127 107.103 24.0327C107.657 24.2527 107.214 26.0675 106.437 28.2123C105.661 30.3571 102.61 37.9464 102.056 37.7814Z" fill="#2D2D2D"/>
</g>
<g id="Group_184">
<path id="Vector_143" d="M107.879 21.9979C107.325 21.7779 108.323 18.3682 108.711 17.4333C109.044 16.4984 109.543 15.7835 110.098 16.0034C110.653 16.2234 110.597 17.0484 110.209 17.9833C109.821 18.9732 108.434 22.2179 107.879 21.9979Z" fill="#2D2D2D"/>
</g>
<g id="Group_185">
<path id="Vector_144" d="M110.764 14.0237C110.209 13.8037 110.93 11.2739 111.152 10.559C111.429 9.84406 111.817 9.34911 112.372 9.56909C112.927 9.78907 112.927 10.394 112.649 11.1089C112.483 11.8239 111.318 14.2437 110.764 14.0237Z" fill="#2D2D2D"/>
</g>
</g>
</g>
<g id="Group_186">
<g id="Group_187">
<g id="Group_188">
<path id="Vector_145" d="M81.6444 71.7683C81.0898 71.9333 75.2105 50.9803 73.602 45.0958C71.9935 39.2114 70.9397 34.3168 71.4944 34.2068C72.049 34.0418 73.602 38.7714 75.155 44.7109C76.7081 50.5953 82.1991 71.6584 81.6444 71.7683Z" fill="#2D2D2D"/>
</g>
<g id="Group_189">
<path id="Vector_146" d="M70.9397 32.227C70.385 32.392 68.3883 25.9576 67.9446 24.1428C67.4454 22.3279 67.279 20.7881 67.8336 20.6231C68.3883 20.4581 68.9984 21.888 69.4976 23.7028C69.9413 25.5176 71.4943 32.062 70.9397 32.227Z" fill="#2D2D2D"/>
</g>
<g id="Group_190">
<path id="Vector_147" d="M67.279 18.6433C66.7243 18.8083 65.2268 14.1337 64.8385 12.8139C64.5058 11.494 64.3948 10.3391 65.0049 10.2291C65.5596 10.0641 66.0588 11.109 66.447 12.4289C66.7798 13.7488 67.8336 18.5333 67.279 18.6433Z" fill="#2D2D2D"/>
</g>
</g>
<g id="Group_191">
<g id="Group_192">
<path id="Vector_148" d="M75.7651 75.1231C75.3769 75.563 59.6803 60.3294 55.2986 55.9848C50.9723 51.6952 47.5889 48.0106 48.0327 47.6256C48.4209 47.1857 52.1371 50.5403 56.5188 54.8849C60.8451 59.1745 76.2088 74.7381 75.7651 75.1231Z" fill="#2D2D2D"/>
</g>
<g id="Group_193">
<path id="Vector_149" d="M46.5351 46.1408C46.1468 46.5258 41.2104 41.9612 39.8793 40.6413C38.5481 39.3214 37.6052 38.0566 38.0489 37.6716C38.4372 37.2866 39.7129 38.1665 41.044 39.4864C42.3752 40.8613 46.9788 45.7558 46.5351 46.1408Z" fill="#2D2D2D"/>
</g>
<g id="Group_194">
<path id="Vector_150" d="M36.5514 36.2417C36.1632 36.6817 32.5025 33.382 31.5041 32.3921C30.5058 31.4021 29.8956 30.4672 30.2839 30.0823C30.6721 29.6973 31.6705 30.3022 32.6134 31.2922C33.6672 32.2271 36.9951 35.8567 36.5514 36.2417Z" fill="#2D2D2D"/>
</g>
</g>
<g id="Group_195">
<g id="Group_196">
<path id="Vector_151" d="M72.3818 80.9526C72.2154 81.5026 50.9723 76.1131 45.0376 74.5182C39.1028 72.9234 34.3328 71.4385 34.4438 70.8886C34.6102 70.3386 39.4911 71.3835 45.4258 72.9784C51.416 74.5182 72.5482 80.3477 72.3818 80.9526Z" fill="#2D2D2D"/>
</g>
<g id="Group_197">
<path id="Vector_152" d="M32.5025 70.3385C32.3361 70.8885 25.7913 69.4036 23.9609 68.9087C22.1306 68.4137 20.6885 67.8088 20.8549 67.2588C21.0213 66.7089 22.5743 66.8738 24.4046 67.3688C26.1795 67.8088 32.6134 69.7886 32.5025 70.3385Z" fill="#2D2D2D"/>
</g>
<g id="Group_198">
<path id="Vector_153" d="M18.8027 66.7089C18.6363 67.2588 13.8663 66.2139 12.5351 65.884C11.204 65.554 10.1501 65.0041 10.3165 64.4541C10.4829 63.9042 11.5922 63.9592 12.9234 64.3441C14.31 64.6741 18.9691 66.1589 18.8027 66.7089Z" fill="#2D2D2D"/>
</g>
</g>
<g id="Group_199">
<g id="Group_200">
<path id="Vector_154" d="M72.3818 87.6619C72.5482 88.2119 51.416 94.0413 45.4258 95.6362C39.4911 97.231 34.5547 98.2759 34.4438 97.726C34.2774 97.176 39.0474 95.6912 45.0376 94.0963C51.0278 92.5015 72.2709 87.057 72.3818 87.6619Z" fill="#2D2D2D"/>
</g>
<g id="Group_201">
<path id="Vector_155" d="M32.5025 98.2209C32.6689 98.7708 26.1795 100.751 24.3492 101.246C22.5188 101.741 20.9658 101.906 20.7994 101.356C20.633 100.806 22.0751 100.201 23.9054 99.7058C25.7358 99.2108 32.3361 97.6709 32.5025 98.2209Z" fill="#2D2D2D"/>
</g>
<g id="Group_202">
<path id="Vector_156" d="M18.8027 101.851C18.9691 102.401 14.2545 103.886 12.9234 104.27C11.5922 104.6 10.4275 104.71 10.3165 104.105C10.1501 103.556 11.204 103.061 12.5351 102.676C13.8663 102.346 18.6917 101.301 18.8027 101.851Z" fill="#2D2D2D"/>
</g>
</g>
<g id="Group_203">
<g id="Group_204">
<path id="Vector_157" d="M75.7652 93.4363C76.1534 93.8213 60.8451 109.385 56.4634 113.674C52.0817 118.019 48.421 121.374 47.9773 120.934C47.5335 120.549 50.9169 116.864 55.2986 112.52C59.6804 108.23 75.3769 92.9964 75.7652 93.4363Z" fill="#2D2D2D"/>
</g>
<g id="Group_205">
<path id="Vector_158" d="M46.5352 122.419C46.9234 122.859 42.3198 127.698 40.9887 129.018C39.6575 130.338 38.3818 131.273 37.9936 130.833C37.6053 130.448 38.4927 129.183 39.8239 127.863C41.2105 126.598 46.1469 121.979 46.5352 122.419Z" fill="#2D2D2D"/>
</g>
<g id="Group_206">
<path id="Vector_159" d="M36.5515 132.318C36.9952 132.758 33.6673 136.332 32.6689 137.322C31.6705 138.312 30.7276 138.917 30.3394 138.532C29.9511 138.147 30.5612 137.157 31.5041 136.222C32.5025 135.177 36.1632 131.933 36.5515 132.318Z" fill="#2D2D2D"/>
</g>
</g>
<g id="Group_207">
<g id="Group_208">
<path id="Vector_160" d="M81.6444 96.791C82.1991 96.956 76.7635 118.019 75.155 123.903C73.5465 129.788 72.049 134.518 71.4943 134.408C70.9397 134.243 71.9935 129.403 73.602 123.519C75.155 117.579 81.0898 96.626 81.6444 96.791Z" fill="#2D2D2D"/>
</g>
<g id="Group_209">
<path id="Vector_161" d="M70.9397 136.387C71.4943 136.552 69.9968 143.042 69.4976 144.857C68.9984 146.671 68.3883 148.101 67.8336 147.936C67.279 147.771 67.4454 146.231 67.9445 144.417C68.3883 142.602 70.385 136.222 70.9397 136.387Z" fill="#2D2D2D"/>
</g>
<g id="Group_210">
<path id="Vector_162" d="M67.279 149.916C67.8336 150.081 66.7798 154.811 66.447 156.185C66.1142 157.505 65.5596 158.55 65.0049 158.385C64.4503 158.22 64.5058 157.12 64.894 155.8C65.2268 154.426 66.7243 149.751 67.279 149.916Z" fill="#2D2D2D"/>
</g>
</g>
<g id="Group_211">
<g id="Group_212">
<path id="Vector_163" d="M88.3557 96.791C88.9104 96.626 94.8451 117.579 96.3981 123.519C98.0066 129.403 99.0604 134.243 98.5058 134.408C97.9511 134.573 96.3981 129.843 94.8451 123.904C93.2921 118.019 87.8011 96.956 88.3557 96.791Z" fill="#2D2D2D"/>
</g>
<g id="Group_213">
<path id="Vector_164" d="M99.0604 136.387C99.6151 136.222 101.612 142.657 102.111 144.472C102.61 146.286 102.777 147.826 102.222 147.991C101.667 148.156 101.057 146.726 100.558 144.912C100.059 143.042 98.5058 136.497 99.0604 136.387Z" fill="#2D2D2D"/>
</g>
<g id="Group_214">
<path id="Vector_165" d="M102.721 149.916C103.276 149.751 104.773 154.426 105.162 155.746C105.494 157.065 105.605 158.22 105.051 158.33C104.496 158.495 103.997 157.45 103.609 156.13C103.22 154.811 102.166 150.026 102.721 149.916Z" fill="#2D2D2D"/>
</g>
</g>
<g id="Group_215">
<g id="Group_216">
<path id="Vector_166" d="M94.2349 93.4363C94.6232 92.9964 110.32 108.23 114.701 112.575C119.083 116.919 122.411 120.549 122.023 120.989C121.635 121.429 117.918 118.074 113.537 113.729C109.155 109.385 93.8467 93.8213 94.2349 93.4363Z" fill="#2D2D2D"/>
</g>
<g id="Group_217">
<path id="Vector_167" d="M123.465 122.419C123.909 122.034 128.79 126.598 130.176 127.918C131.507 129.238 132.45 130.503 132.007 130.888C131.618 131.273 130.343 130.393 129.011 129.073C127.625 127.698 123.021 122.804 123.465 122.419Z" fill="#2D2D2D"/>
</g>
<g id="Group_218">
<path id="Vector_168" d="M133.449 132.318C133.837 131.933 137.498 135.177 138.496 136.167C139.494 137.157 140.104 138.092 139.716 138.477C139.328 138.862 138.33 138.257 137.387 137.267C136.333 136.332 133.06 132.758 133.449 132.318Z" fill="#2D2D2D"/>
</g>
</g>
<g id="Group_219">
<g id="Group_220">
<path id="Vector_169" d="M97.6183 87.6619C97.7847 87.1119 119.028 92.5015 124.963 94.0963C130.897 95.6912 135.667 97.176 135.556 97.726C135.39 98.2759 130.509 97.231 124.574 95.6362C118.584 94.0413 97.4519 88.2118 97.6183 87.6619Z" fill="#2D2D2D"/>
</g>
<g id="Group_221">
<path id="Vector_170" d="M137.553 98.2209C137.719 97.671 144.264 99.1559 146.095 99.6508C147.925 100.146 149.367 100.751 149.201 101.301C149.034 101.851 147.481 101.686 145.651 101.191C143.821 100.751 137.387 98.7709 137.553 98.2209Z" fill="#2D2D2D"/>
</g>
<g id="Group_222">
<path id="Vector_171" d="M151.197 101.851C151.364 101.301 156.134 102.346 157.465 102.675C158.796 103.005 159.85 103.555 159.684 104.105C159.517 104.655 158.408 104.6 157.077 104.27C155.746 103.885 151.031 102.456 151.197 101.851Z" fill="#2D2D2D"/>
</g>
</g>
<g id="Group_223">
<g id="Group_224">
<path id="Vector_172" d="M97.6183 80.9526C97.4519 80.4027 118.584 74.5732 124.574 72.9784C130.509 71.3835 135.445 70.3386 135.556 70.8886C135.723 71.4385 130.953 72.9784 124.963 74.5182C119.028 76.1131 97.7847 81.5026 97.6183 80.9526Z" fill="#2D2D2D"/>
</g>
<g id="Group_225">
<path id="Vector_173" d="M137.553 70.3386C137.387 69.7886 143.876 67.8088 145.706 67.3139C147.537 66.8189 149.09 66.6539 149.256 67.2039C149.423 67.7538 147.981 68.3588 146.15 68.8537C144.264 69.4037 137.664 70.8886 137.553 70.3386Z" fill="#2D2D2D"/>
</g>
<g id="Group_226">
<path id="Vector_174" d="M151.197 66.7089C151.031 66.1589 155.746 64.6741 157.077 64.3441C158.408 63.9592 159.573 63.9042 159.684 64.4541C159.85 65.0041 158.796 65.499 157.465 65.884C156.134 66.2139 151.364 67.2588 151.197 66.7089Z" fill="#2D2D2D"/>
</g>
</g>
<g id="Group_227">
<g id="Group_228">
<path id="Vector_175" d="M94.2349 75.123C93.8467 74.738 109.155 59.1745 113.537 54.8299C117.918 50.4853 121.579 47.1306 122.023 47.5706C122.411 47.9555 119.083 51.6402 114.701 55.9848C110.32 60.3294 94.6232 75.563 94.2349 75.123Z" fill="#2D2D2D"/>
</g>
<g id="Group_229">
<path id="Vector_176" d="M123.465 46.1407C123.077 45.7558 127.68 40.8612 129.011 39.5413C130.343 38.2215 131.618 37.2865 132.007 37.7265C132.45 38.1115 131.507 39.3763 130.176 40.6962C128.79 42.0161 123.853 46.5807 123.465 46.1407Z" fill="#2D2D2D"/>
</g>
<g id="Group_230">
<path id="Vector_177" d="M133.449 36.2416C133.005 35.8567 136.333 32.227 137.331 31.2371C138.33 30.2472 139.272 29.6423 139.661 30.0272C140.049 30.4672 139.439 31.4021 138.441 32.337C137.498 33.3819 133.892 36.6816 133.449 36.2416Z" fill="#2D2D2D"/>
</g>
</g>
<g id="Group_231">
<g id="Group_232">
<path id="Vector_178" d="M88.3557 71.7684C87.8011 71.6034 93.2366 50.5404 94.8451 44.6559C96.4536 38.7715 97.9512 34.0419 98.5058 34.1519C99.0605 34.3169 98.0066 39.1564 96.3981 45.0409C94.8451 50.9803 88.9658 71.9334 88.3557 71.7684Z" fill="#2D2D2D"/>
</g>
<g id="Group_233">
<path id="Vector_179" d="M99.0604 32.2271C98.5058 32.0621 100.003 25.5727 100.503 23.7578C101.002 21.943 101.612 20.5131 102.166 20.6781C102.721 20.8431 102.555 22.383 102.056 24.1978C101.612 25.9576 99.6706 32.337 99.0604 32.2271Z" fill="#2D2D2D"/>
</g>
<g id="Group_234">
<path id="Vector_180" d="M102.721 18.6433C102.166 18.4783 103.22 13.7488 103.553 12.4289C103.886 11.109 104.441 10.0641 104.995 10.2291C105.55 10.3941 105.494 11.494 105.106 12.8139C104.773 14.1887 103.331 18.8083 102.721 18.6433Z" fill="#2D2D2D"/>
</g>
</g>
</g>
<g id="Group_235">
<g id="Group_236">
<g id="Group_237">
<path id="Vector_181" d="M80.757 72.7583C80.4797 72.8683 78.3165 67.5338 75.9315 61.4293C73.5465 55.3249 70.9397 48.4505 69.8304 45.4258C67.6118 39.3764 66.0033 34.3718 66.5579 34.1519C67.1126 33.9319 69.1093 38.7714 71.3279 44.8759C72.4372 47.9006 74.9331 54.8299 77.0408 61.0444C79.2594 67.2038 81.0343 72.6483 80.757 72.7583Z" fill="#2D2D2D"/>
</g>
<g id="Group_238">
<path id="Vector_182" d="M65.9478 32.3371C65.3932 32.557 63.5629 28.2674 63.1191 27.0575C62.6754 25.8477 62.509 24.7478 63.0637 24.5828C63.6183 24.3628 64.173 25.2977 64.6167 26.5076C65.1159 27.6625 66.5025 32.1171 65.9478 32.3371Z" fill="#2D2D2D"/>
</g>
<g id="Group_239">
<path id="Vector_183" d="M62.398 22.713C61.8434 22.933 61.0114 21.3382 60.845 20.8982C60.6786 20.4582 60.7341 19.9633 61.2887 19.7983C61.8434 19.5783 62.1762 19.9083 62.3426 20.3482C62.5644 20.7882 62.9527 22.493 62.398 22.713Z" fill="#2D2D2D"/>
</g>
<g id="Group_240">
<path id="Vector_184" d="M60.6232 17.9284C60.0685 18.1484 59.4584 17.0485 59.3475 16.7735C59.2365 16.4436 59.3475 16.1136 59.9021 15.8936C60.4568 15.6736 60.7341 15.8936 60.9005 16.2236C60.956 16.4985 61.1778 17.7084 60.6232 17.9284Z" fill="#2D2D2D"/>
</g>
</g>
<g id="Group_241">
<g id="Group_242">
<path id="Vector_185" d="M75.4878 76.3881C75.3214 76.608 70.7178 73.0884 65.615 68.9638C60.4568 64.8391 54.7439 60.1646 52.248 58.0748C47.2561 53.9501 43.3736 50.3755 43.7618 49.9355C44.1501 49.4956 48.3099 52.6853 53.3018 56.8099C55.7977 58.8997 61.4551 63.6292 66.3915 67.9738C71.3834 72.3184 75.7096 76.1681 75.4878 76.3881Z" fill="#2D2D2D"/>
</g>
<g id="Group_243">
<path id="Vector_186" d="M42.2643 48.7255C41.876 49.1655 38.1599 46.3608 37.1615 45.5358C36.1631 44.7109 35.4976 43.831 35.8858 43.391C36.2741 42.9511 37.217 43.446 38.2153 44.271C39.2137 45.1509 42.6525 48.2856 42.2643 48.7255Z" fill="#2D2D2D"/>
</g>
<g id="Group_244">
<path id="Vector_187" d="M34.3882 42.1262C34 42.5661 32.5024 41.6312 32.1142 41.3013C31.7259 40.9713 31.5595 40.5313 31.9478 40.0914C32.336 39.6514 32.7798 39.7064 33.168 40.0364C33.5563 40.4213 34.721 41.6862 34.3882 42.1262Z" fill="#2D2D2D"/>
</g>
<g id="Group_245">
<path id="Vector_188" d="M30.4502 38.8815C30.062 39.3215 29.0081 38.7165 28.7308 38.4965C28.4535 38.2766 28.398 37.9466 28.7863 37.4516C29.1745 37.0117 29.5073 37.0117 29.7846 37.2317C30.0065 37.5066 30.783 38.4415 30.4502 38.8815Z" fill="#2D2D2D"/>
</g>
</g>
<g id="Group_246">
<g id="Group_247">
<path id="Vector_189" d="M72.8255 82.1623C72.77 82.4373 67.0571 81.6674 60.5122 80.6225C53.9674 79.6326 46.7015 78.3677 43.4845 77.8177C37.0506 76.7178 31.8924 75.5629 32.0033 75.013C32.1142 74.463 37.3279 75.123 43.7618 76.2229C46.9788 76.7728 54.2447 78.0927 60.7341 79.3576C67.168 80.6775 72.8809 81.8873 72.8255 82.1623Z" fill="#2D2D2D"/>
</g>
<g id="Group_248">
<path id="Vector_190" d="M30.062 74.683C29.9511 75.233 25.292 74.683 24.0163 74.463C22.7406 74.243 21.6868 73.8581 21.7977 73.2531C21.9087 72.7032 22.9625 72.6482 24.2937 72.8682C25.6248 73.0882 30.1729 74.1331 30.062 74.683Z" fill="#2D2D2D"/>
</g>
<g id="Group_249">
<path id="Vector_191" d="M19.9119 72.9232C19.801 73.4731 18.0261 73.4181 17.5269 73.3081C17.0277 73.1981 16.6949 72.9232 16.8059 72.3732C16.9168 71.8233 17.3605 71.6583 17.8597 71.7133C18.3034 71.8232 20.0228 72.3182 19.9119 72.9232Z" fill="#2D2D2D"/>
</g>
<g id="Group_250">
<path id="Vector_192" d="M14.8646 72.0433C14.7537 72.5932 13.5334 72.6482 13.2006 72.5932C12.8678 72.5383 12.646 72.2633 12.7569 71.7133C12.8678 71.1634 13.1452 70.9434 13.5334 71.0534C13.8107 70.9984 14.92 71.4383 14.8646 72.0433Z" fill="#2D2D2D"/>
</g>
</g>
<g id="Group_251">
<g id="Group_252">
<path id="Vector_193" d="M73.3801 88.4869C73.491 88.7619 68.1109 90.9067 61.9543 93.2714C55.7977 95.6362 48.8646 98.166 45.814 99.3209C39.7129 101.521 34.6656 103.116 34.4437 102.566C34.2218 102.016 39.1028 100.036 45.2594 97.836C48.3099 96.7361 55.2985 94.2613 61.5661 92.1715C67.7781 89.9717 73.2692 88.2119 73.3801 88.4869Z" fill="#2D2D2D"/>
</g>
<g id="Group_253">
<path id="Vector_194" d="M32.6134 103.225C32.8352 103.775 28.509 105.59 27.2887 106.03C26.0685 106.47 24.9592 106.635 24.7928 106.085C24.571 105.535 25.5139 104.985 26.7341 104.545C27.8989 104.05 32.3915 102.675 32.6134 103.225Z" fill="#2D2D2D"/>
</g>
<g id="Group_254">
<path id="Vector_195" d="M22.907 106.69C23.1288 107.24 21.5203 108.065 21.0766 108.23C20.6329 108.395 20.1337 108.34 19.9673 107.79C19.7455 107.24 20.0782 106.91 20.522 106.745C20.9657 106.525 22.6851 106.14 22.907 106.69Z" fill="#2D2D2D"/>
</g>
<g id="Group_255">
<path id="Vector_196" d="M18.0815 108.45C18.3034 109 17.1941 109.605 16.8613 109.715C16.5285 109.825 16.1957 109.715 15.9739 109.165C15.752 108.615 15.9739 108.285 16.3066 108.175C16.6394 108.12 17.8597 107.9 18.0815 108.45Z" fill="#2D2D2D"/>
</g>
</g>
<g id="Group_256">
<g id="Group_257">
<path id="Vector_197" d="M77.0407 93.7114C77.2626 93.8763 73.7128 98.4409 69.553 103.5C65.3931 108.615 60.6786 114.279 58.6264 116.754C54.4665 121.704 50.8613 125.553 50.4176 125.168C49.9739 124.783 53.1908 120.659 57.3507 115.709C59.4584 113.235 64.2283 107.625 68.6101 102.731C72.9363 97.781 76.8189 93.4914 77.0407 93.7114Z" fill="#2D2D2D"/>
</g>
<g id="Group_258">
<path id="Vector_198" d="M49.1419 126.653C49.5856 127.038 46.7569 130.723 45.9249 131.713C45.0929 132.703 44.2055 133.363 43.7618 132.978C43.3181 132.593 43.8173 131.658 44.6492 130.668C45.5367 129.678 48.6982 126.268 49.1419 126.653Z" fill="#2D2D2D"/>
</g>
<g id="Group_259">
<path id="Vector_199" d="M42.4861 134.518C42.9299 134.903 41.987 136.387 41.6542 136.772C41.3214 137.157 40.8777 137.322 40.4339 136.937C39.9902 136.552 40.0457 136.112 40.3785 135.727C40.7667 135.342 42.0424 134.133 42.4861 134.518Z" fill="#2D2D2D"/>
</g>
<g id="Group_260">
<path id="Vector_200" d="M39.2137 138.367C39.6574 138.752 39.0473 139.797 38.8254 140.072C38.6036 140.347 38.2708 140.402 37.8271 140.017C37.3833 139.632 37.3833 139.302 37.6052 139.027C37.8271 138.807 38.77 138.037 39.2137 138.367Z" fill="#2D2D2D"/>
</g>
</g>
<g id="Group_261">
<g id="Group_262">
<path id="Vector_201" d="M82.8646 96.3511C83.1419 96.4061 82.3654 102.071 81.3116 108.56C80.3132 115.049 79.0375 122.254 78.4829 125.443C77.3736 131.823 76.2088 136.882 75.6542 136.827C75.0995 136.717 75.7651 131.548 76.8744 125.168C77.429 121.979 78.7602 114.774 80.0359 108.34C81.3671 101.961 82.5873 96.3511 82.8646 96.3511Z" fill="#2D2D2D"/>
</g>
<g id="Group_263">
<path id="Vector_202" d="M75.3214 138.752C75.876 138.862 75.3214 143.427 75.0995 144.747C74.8776 146.011 74.4894 147.056 73.8793 146.946C73.3246 146.836 73.2692 145.736 73.491 144.472C73.7129 143.152 74.7667 138.642 75.3214 138.752Z" fill="#2D2D2D"/>
</g>
<g id="Group_264">
<path id="Vector_203" d="M73.5465 148.816C74.1012 148.926 74.0457 150.686 73.9348 151.181C73.8238 151.676 73.5465 152.006 72.9918 151.896C72.4372 151.786 72.2708 151.346 72.3263 150.851C72.4372 150.411 72.9364 148.761 73.5465 148.816Z" fill="#2D2D2D"/>
</g>
<g id="Group_265">
<path id="Vector_204" d="M72.659 153.821C73.2137 153.931 73.2692 155.141 73.2137 155.471C73.1582 155.801 72.8809 156.021 72.3263 155.911C71.7716 155.801 71.5497 155.471 71.6607 155.141C71.6052 154.921 72.0489 153.766 72.659 153.821Z" fill="#2D2D2D"/>
</g>
</g>
<g id="Group_266">
<g id="Group_267">
<path id="Vector_205" d="M89.2431 95.8011C89.5204 95.6911 91.6836 101.026 94.0686 107.13C96.4535 113.234 99.0604 120.109 100.17 123.134C102.388 129.183 103.997 134.188 103.442 134.408C102.887 134.627 100.891 129.788 98.6721 123.684C97.5628 120.659 95.0669 113.729 92.9593 107.515C90.7407 101.356 88.9658 95.9111 89.2431 95.8011Z" fill="#2D2D2D"/>
</g>
<g id="Group_268">
<path id="Vector_206" d="M104.108 136.277C104.662 136.057 106.493 140.347 106.936 141.557C107.38 142.767 107.547 143.867 106.992 144.032C106.437 144.252 105.883 143.317 105.439 142.107C104.94 140.897 103.553 136.442 104.108 136.277Z" fill="#2D2D2D"/>
</g>
<g id="Group_269">
<path id="Vector_207" d="M107.602 145.901C108.157 145.681 108.989 147.276 109.155 147.716C109.321 148.156 109.266 148.651 108.711 148.816C108.157 149.036 107.824 148.706 107.657 148.266C107.436 147.826 107.047 146.066 107.602 145.901Z" fill="#2D2D2D"/>
</g>
<g id="Group_270">
<path id="Vector_208" d="M109.377 150.686C109.932 150.466 110.542 151.566 110.653 151.841C110.763 152.171 110.653 152.501 110.098 152.721C109.543 152.941 109.266 152.721 109.1 152.391C109.044 152.061 108.822 150.851 109.377 150.686Z" fill="#2D2D2D"/>
</g>
</g>
<g id="Group_271">
<g id="Group_272">
<path id="Vector_209" d="M94.5123 92.1715C94.6787 91.9515 99.2822 95.4712 104.385 99.5958C109.543 103.72 115.256 108.395 117.752 110.485C122.744 114.609 126.626 118.184 126.238 118.624C125.85 119.064 121.69 115.874 116.698 111.75C114.202 109.66 108.545 104.93 103.609 100.586C98.6167 96.2411 94.2904 92.3915 94.5123 92.1715Z" fill="#2D2D2D"/>
</g>
<g id="Group_273">
<path id="Vector_210" d="M127.736 119.834C128.124 119.394 131.84 122.199 132.839 123.024C133.837 123.849 134.502 124.728 134.114 125.168C133.726 125.608 132.783 125.113 131.785 124.289C130.786 123.409 127.348 120.274 127.736 119.834Z" fill="#2D2D2D"/>
</g>
<g id="Group_274">
<path id="Vector_211" d="M135.667 126.433C136.055 125.993 137.553 126.928 137.941 127.258C138.33 127.588 138.496 128.028 138.108 128.468C137.719 128.908 137.276 128.853 136.887 128.523C136.499 128.138 135.279 126.873 135.667 126.433Z" fill="#2D2D2D"/>
</g>
<g id="Group_275">
<path id="Vector_212" d="M139.55 129.678C139.938 129.238 140.992 129.843 141.269 130.063C141.547 130.283 141.602 130.613 141.214 131.053C140.825 131.493 140.493 131.493 140.215 131.273C139.993 131.108 139.217 130.118 139.55 129.678Z" fill="#2D2D2D"/>
</g>
</g>
<g id="Group_276">
<g id="Group_277">
<path id="Vector_213" d="M97.23 86.3971C97.2855 86.1221 102.998 86.8921 109.543 87.9369C116.088 88.9269 123.354 90.1917 126.571 90.7417C133.005 91.8416 138.108 92.9965 138.052 93.5464C137.941 94.0963 132.728 93.4364 126.294 92.3365C123.077 91.7866 115.811 90.4667 109.321 89.2018C102.832 87.882 97.1745 86.7271 97.23 86.3971Z" fill="#2D2D2D"/>
</g>
<g id="Group_278">
<path id="Vector_214" d="M139.938 93.8764C140.049 93.3264 144.653 93.8764 145.984 94.0964C147.259 94.3163 148.313 94.7013 148.202 95.3062C148.091 95.8562 147.038 95.9112 145.706 95.6912C144.375 95.4712 139.827 94.4813 139.938 93.8764Z" fill="#2D2D2D"/>
</g>
<g id="Group_279">
<path id="Vector_215" d="M150.088 95.6912C150.199 95.1413 151.974 95.1963 152.473 95.3062C152.972 95.4162 153.305 95.6912 153.194 96.2412C153.083 96.7911 152.639 96.9561 152.14 96.9011C151.697 96.7911 150.033 96.2412 150.088 95.6912Z" fill="#2D2D2D"/>
</g>
<g id="Group_280">
<path id="Vector_216" d="M155.135 96.5711C155.246 96.0212 156.467 95.9662 156.799 96.0212C157.132 96.0762 157.354 96.3512 157.299 96.9011C157.188 97.4511 156.855 97.671 156.522 97.561C156.245 97.561 155.08 97.1211 155.135 96.5711Z" fill="#2D2D2D"/>
</g>
</g>
<g id="Group_281">
<g id="Group_282">
<path id="Vector_217" d="M96.6198 80.0726C96.5089 79.7976 101.889 77.6528 108.046 75.288C114.202 72.9233 121.135 70.3385 124.186 69.2386C130.287 67.0388 135.334 65.4439 135.556 65.9939C135.778 66.5438 130.897 68.5237 124.741 70.7235C121.69 71.8234 114.701 74.2981 108.434 76.3879C102.277 78.5877 96.7308 80.3476 96.6198 80.0726Z" fill="#2D2D2D"/>
</g>
<g id="Group_283">
<path id="Vector_218" d="M137.442 65.3889C137.22 64.8389 141.546 63.0241 142.767 62.5841C143.987 62.1442 145.096 61.9792 145.263 62.5291C145.484 63.0791 144.542 63.629 143.321 64.069C142.101 64.5639 137.608 65.8838 137.442 65.3889Z" fill="#2D2D2D"/>
</g>
<g id="Group_284">
<path id="Vector_219" d="M147.148 61.8692C146.927 61.3193 148.535 60.4944 148.979 60.3294C149.422 60.1644 149.922 60.2194 150.088 60.7694C150.31 61.3193 149.977 61.6493 149.533 61.8143C149.09 62.0342 147.315 62.4192 147.148 61.8692Z" fill="#2D2D2D"/>
</g>
<g id="Group_285">
<path id="Vector_220" d="M151.974 60.1094C151.752 59.5594 152.861 58.9545 153.194 58.8445C153.527 58.7345 153.86 58.8445 154.081 59.3944C154.303 59.9444 154.081 60.2194 153.749 60.3843C153.36 60.4393 152.14 60.6593 151.974 60.1094Z" fill="#2D2D2D"/>
</g>
</g>
<g id="Group_286">
<g id="Group_287">
<path id="Vector_221" d="M92.9592 74.8481C92.7373 74.6832 96.2871 70.1186 100.447 65.059C104.607 59.9445 109.321 54.28 111.429 51.8053C115.589 46.8557 119.194 43.0061 119.638 43.3911C120.082 43.776 116.865 47.9006 112.705 52.8502C110.597 55.3249 105.827 60.9344 101.445 65.829C97.0636 70.7785 93.181 75.0681 92.9592 74.8481Z" fill="#2D2D2D"/>
</g>
<g id="Group_288">
<path id="Vector_222" d="M120.858 41.9062C120.414 41.5212 123.243 37.8366 124.075 36.8467C124.907 35.8568 125.794 35.1968 126.238 35.5818C126.682 35.9667 126.183 36.9017 125.351 37.8916C124.463 38.8815 121.302 42.2912 120.858 41.9062Z" fill="#2D2D2D"/>
</g>
<g id="Group_289">
<path id="Vector_223" d="M127.514 34.0969C127.07 33.7119 128.013 32.2271 128.346 31.8421C128.679 31.4571 129.122 31.2922 129.566 31.6771C130.01 32.0621 129.954 32.502 129.621 32.887C129.233 33.217 127.958 34.4269 127.514 34.0969Z" fill="#2D2D2D"/>
</g>
<g id="Group_290">
<path id="Vector_224" d="M130.786 30.1923C130.343 29.8073 130.953 28.7624 131.174 28.4874C131.396 28.2125 131.729 28.1575 132.228 28.5424C132.672 28.9274 132.672 29.2574 132.45 29.5323C132.228 29.7523 131.23 30.5222 130.786 30.1923Z" fill="#2D2D2D"/>
</g>
</g>
<g id="Group_291">
<g id="Group_292">
<path id="Vector_225" d="M87.1354 72.2083C86.8581 72.1533 87.6346 66.4889 88.6884 59.9995C89.6868 53.5101 90.9625 46.3057 91.5171 43.116C92.6264 36.7366 93.7912 31.6221 94.3458 31.7321C94.9005 31.8421 94.2349 37.0116 93.1256 43.391C92.5709 46.5807 91.2398 53.785 89.9641 60.2194C88.6329 66.5989 87.4682 72.2633 87.1354 72.2083Z" fill="#2D2D2D"/>
</g>
<g id="Group_293">
<path id="Vector_226" d="M94.6786 29.8073C94.1239 29.6973 94.6786 25.1327 94.9004 23.8129C95.1223 22.548 95.5106 21.5031 96.1207 21.6131C96.6753 21.7231 96.7308 22.823 96.5089 24.0878C96.2871 25.4077 95.2887 29.9173 94.6786 29.8073Z" fill="#2D2D2D"/>
</g>
<g id="Group_294">
<path id="Vector_227" d="M96.509 19.7432C95.9543 19.6332 96.0098 17.8734 96.1207 17.3784C96.2317 16.8835 96.509 16.5535 97.0636 16.6085C97.6183 16.7185 97.7847 17.1585 97.7292 17.6534C97.6183 18.1484 97.0636 19.8532 96.509 19.7432Z" fill="#2D2D2D"/>
</g>
<g id="Group_295">
<path id="Vector_228" d="M97.3964 14.7387C96.8417 14.6287 96.7863 13.4188 96.8417 13.0888C96.8972 12.7589 97.1745 12.5389 97.7292 12.5939C98.2838 12.7039 98.5057 13.0338 98.4502 13.3638C98.3947 13.6388 97.951 14.8487 97.3964 14.7387Z" fill="#2D2D2D"/>
</g>
</g>
</g>
<g id="Group_296">
<g id="Group_297">
<g id="Group_298">
<path id="Vector_229" d="M79.4813 72.5933C78.9267 72.8133 73.6575 62.1443 72.2709 59.1195C70.8288 56.0948 69.8859 53.5101 70.4406 53.2901C70.9952 53.0701 72.3264 55.4349 73.7685 58.4596C75.1551 61.4293 80.036 72.3183 79.4813 72.5933Z" fill="#2D2D2D"/>
</g>
<g id="Group_299">
<path id="Vector_230" d="M69.553 51.4203C68.9984 51.6952 65.3377 44.3809 64.3948 42.2911C63.3964 40.2013 62.8418 38.4415 63.341 38.2215C63.8956 38.0015 64.894 39.5414 65.8369 41.6312C66.8353 43.721 70.0522 51.1453 69.553 51.4203Z" fill="#2D2D2D"/>
</g>
<g id="Group_300">
<path id="Vector_231" d="M62.4535 36.3517C61.8989 36.5717 58.8483 30.6322 58.0718 28.9274C57.2953 27.2225 56.8516 25.7377 57.3508 25.5177C57.9054 25.2977 58.7374 26.5626 59.5139 28.2674C60.3459 29.9723 63.0082 36.1317 62.4535 36.3517Z" fill="#2D2D2D"/>
</g>
<g id="Group_301">
<path id="Vector_232" d="M56.5188 23.6478C55.9642 23.9228 53.4683 19.0832 52.8582 17.7084C52.1926 16.3335 51.9152 15.1236 52.4144 14.8486C52.9691 14.6287 53.6901 15.6186 54.3002 16.9934C54.9104 18.4233 57.018 23.4278 56.5188 23.6478Z" fill="#2D2D2D"/>
</g>
</g>
<g id="Group_302">
<g id="Group_303">
<path id="Vector_233" d="M74.323 76.8831C73.9902 77.378 64.0065 70.7236 61.2333 68.7988C58.46 66.874 56.3523 65.1142 56.6851 64.6742C57.0179 64.1792 59.4029 65.5541 62.1762 67.4789C64.9494 69.4038 74.6558 76.3881 74.323 76.8831Z" fill="#2D2D2D"/>
</g>
<g id="Group_304">
<path id="Vector_234" d="M55.0212 63.4642C54.6884 63.9592 47.8108 59.4496 45.925 58.1297C44.0392 56.8098 42.6525 55.545 42.9853 55.105C43.3181 54.61 44.9821 55.49 46.8679 56.8098C48.8091 58.1297 55.354 63.0243 55.0212 63.4642Z" fill="#2D2D2D"/>
</g>
<g id="Group_305">
<path id="Vector_235" d="M41.3214 53.9501C40.9886 54.445 35.3312 50.7604 33.7781 49.7155C32.2251 48.6156 31.1158 47.5707 31.4486 47.1307C31.7814 46.6358 33.168 47.3507 34.721 48.3956C36.2741 49.4405 41.6542 53.4551 41.3214 53.9501Z" fill="#2D2D2D"/>
</g>
<g id="Group_306">
<path id="Vector_236" d="M29.7292 45.9209C29.3964 46.4159 24.7928 43.5011 23.5171 42.6212C22.2414 41.7413 21.354 40.8614 21.6868 40.3664C22.0196 39.8715 23.1844 40.4214 24.4046 41.3013C25.7357 42.1812 30.062 45.4259 29.7292 45.9209Z" fill="#2D2D2D"/>
</g>
</g>
<g id="Group_307">
<g id="Group_308">
<path id="Vector_237" d="M72.049 83.1523C71.9935 83.7573 60.0131 82.9323 56.6852 82.6024C53.3018 82.3274 50.6395 81.8324 50.6395 81.2825C50.695 80.7325 53.4128 80.7325 56.7961 81.0075C60.124 81.3375 72.1045 82.6024 72.049 83.1523Z" fill="#2D2D2D"/>
</g>
<g id="Group_309">
<path id="Vector_238" d="M48.5873 81.1175C48.5318 81.7224 40.323 81.2274 38.049 81.0075C35.7749 80.7875 33.8891 80.4025 33.9446 79.8526C34 79.3026 35.8858 79.1926 38.1599 79.4126C40.4894 79.6326 48.6428 80.5675 48.5873 81.1175Z" fill="#2D2D2D"/>
</g>
<g id="Group_310">
<path id="Vector_239" d="M31.8924 79.6877C31.8369 80.2926 25.1257 79.9077 23.2398 79.7427C21.354 79.5777 19.8565 79.2477 19.912 78.6428C19.9674 78.0378 21.5204 77.9829 23.4062 78.1478C25.2366 78.3128 31.9478 79.0827 31.8924 79.6877Z" fill="#2D2D2D"/>
</g>
<g id="Group_311">
<path id="Vector_240" d="M17.8043 78.4777C17.7488 79.0827 12.3132 78.8077 10.7602 78.6977C9.2072 78.5877 7.98697 78.2578 8.04244 77.6528C8.0979 77.0479 9.3736 76.9379 10.8711 77.1029C12.4242 77.1579 17.8597 77.8728 17.8043 78.4777Z" fill="#2D2D2D"/>
</g>
</g>
<g id="Group_312">
<g id="Group_313">
<path id="Vector_241" d="M73.2137 89.7517C73.4355 90.3017 62.6753 95.5262 59.6248 96.901C56.5742 98.3309 53.9673 99.2658 53.7455 98.7159C53.5236 98.1659 55.9086 96.8461 58.9592 95.4162C61.9543 94.0413 72.9364 89.2018 73.2137 89.7517Z" fill="#2D2D2D"/>
</g>
<g id="Group_314">
<path id="Vector_242" d="M51.8597 99.5959C52.0815 100.146 44.7602 103.775 42.6525 104.71C40.5448 105.7 38.7699 106.25 38.5481 105.755C38.3262 105.205 39.8792 104.27 41.9869 103.281C44.0946 102.291 51.5823 99.1009 51.8597 99.5959Z" fill="#2D2D2D"/>
</g>
<g id="Group_315">
<path id="Vector_243" d="M36.6623 106.635C36.8842 107.185 30.894 110.21 29.1746 110.98C27.4551 111.75 25.9576 112.19 25.7357 111.695C25.5139 111.145 26.7896 110.32 28.509 109.495C30.2284 108.725 36.4405 106.085 36.6623 106.635Z" fill="#2D2D2D"/>
</g>
<g id="Group_316">
<path id="Vector_244" d="M23.8499 112.575C24.0718 113.125 19.2463 115.599 17.8597 116.259C16.4731 116.919 15.2528 117.194 14.9755 116.699C14.7537 116.149 15.752 115.434 17.1387 114.829C18.5807 114.114 23.6281 112.025 23.8499 112.575Z" fill="#2D2D2D"/>
</g>
</g>
<g id="Group_317">
<g id="Group_318">
<path id="Vector_245" d="M77.54 94.8663C78.0392 95.1963 71.3279 105.095 69.3867 107.845C67.4454 110.595 65.6705 112.685 65.2268 112.355C64.7276 112.025 66.1142 109.66 68.0555 106.91C69.9968 104.16 77.0408 94.5363 77.54 94.8663Z" fill="#2D2D2D"/>
</g>
<g id="Group_319">
<path id="Vector_246" d="M64.0066 114.005C64.5058 114.335 59.9577 121.154 58.6265 123.024C57.2954 124.894 56.0197 126.268 55.5759 125.938C55.0768 125.608 55.9642 123.959 57.2954 122.089C58.6265 120.219 63.5629 113.675 64.0066 114.005Z" fill="#2D2D2D"/>
</g>
<g id="Group_320">
<path id="Vector_247" d="M54.4111 127.588C54.9103 127.918 51.1942 133.528 50.1403 135.068C49.031 136.607 47.9772 137.707 47.478 137.377C46.9788 137.047 47.6999 135.672 48.7537 134.133C49.863 132.593 53.9119 127.258 54.4111 127.588Z" fill="#2D2D2D"/>
</g>
<g id="Group_321">
<path id="Vector_248" d="M46.3133 139.082C46.8124 139.412 43.8728 143.977 42.9854 145.242C42.0979 146.507 41.2105 147.386 40.7113 147.056C40.2121 146.727 40.7668 145.572 41.6542 144.362C42.5416 143.042 45.8141 138.752 46.3133 139.082Z" fill="#2D2D2D"/>
</g>
</g>
<g id="Group_322">
<g id="Group_323">
<path id="Vector_249" d="M83.863 97.176C84.4731 97.231 83.6411 109.11 83.3638 112.41C83.0865 115.764 82.5873 118.404 82.0326 118.404C81.4225 118.349 81.478 115.654 81.7553 112.3C82.0326 108.945 83.3083 97.121 83.863 97.176Z" fill="#2D2D2D"/>
</g>
<g id="Group_324">
<path id="Vector_250" d="M81.8108 120.439C82.4209 120.494 81.9217 128.633 81.6998 130.888C81.478 133.143 81.0897 135.012 80.5351 134.957C79.9804 134.902 79.8695 133.033 80.0914 130.778C80.3132 128.468 81.2561 120.384 81.8108 120.439Z" fill="#2D2D2D"/>
</g>
<g id="Group_325">
<path id="Vector_251" d="M80.3687 136.937C80.9233 136.992 80.5905 143.647 80.4241 145.516C80.2577 147.386 79.925 148.871 79.3148 148.816C78.7047 148.761 78.6493 147.221 78.8157 145.351C78.9821 143.537 79.7586 136.882 80.3687 136.937Z" fill="#2D2D2D"/>
</g>
<g id="Group_326">
<path id="Vector_252" d="M79.1485 150.906C79.7586 150.961 79.4813 156.351 79.3703 157.89C79.2594 159.43 78.9266 160.585 78.3165 160.53C77.7064 160.475 77.5954 159.21 77.7618 157.725C77.8173 156.241 78.5384 150.851 79.1485 150.906Z" fill="#2D2D2D"/>
</g>
</g>
<g id="Group_327">
<g id="Group_328">
<path id="Vector_253" d="M90.5188 95.9661C91.0735 95.7461 96.3426 106.415 97.7292 109.44C99.1713 112.465 100.114 115.049 99.5596 115.269C99.0049 115.544 97.6738 113.125 96.2317 110.1C94.8451 107.13 89.9642 96.2411 90.5188 95.9661Z" fill="#2D2D2D"/>
</g>
<g id="Group_329">
<path id="Vector_254" d="M100.447 117.139C101.002 116.864 104.662 124.178 105.605 126.213C106.604 128.303 107.158 130.063 106.659 130.283C106.104 130.503 105.106 128.963 104.163 126.873C103.165 124.838 99.9479 117.414 100.447 117.139Z" fill="#2D2D2D"/>
</g>
<g id="Group_330">
<path id="Vector_255" d="M107.547 132.208C108.101 131.988 111.152 137.927 111.928 139.632C112.705 141.337 113.148 142.822 112.649 143.042C112.095 143.262 111.263 141.997 110.486 140.292C109.654 138.587 106.992 132.428 107.547 132.208Z" fill="#2D2D2D"/>
</g>
<g id="Group_331">
<path id="Vector_256" d="M113.537 144.912C114.091 144.637 116.587 149.476 117.197 150.851C117.863 152.226 118.14 153.436 117.641 153.711C117.086 153.931 116.365 152.941 115.755 151.566C115.09 150.136 112.982 145.132 113.537 144.912Z" fill="#2D2D2D"/>
</g>
</g>
<g id="Group_332">
<g id="Group_333">
<path id="Vector_257" d="M95.677 91.6765C96.0098 91.1815 105.993 97.8359 108.711 99.7607C111.485 101.686 113.592 103.445 113.259 103.885C112.927 104.38 110.542 103.005 107.768 101.081C105.051 99.1558 95.3442 92.1714 95.677 91.6765Z" fill="#2D2D2D"/>
</g>
<g id="Group_334">
<path id="Vector_258" d="M114.979 105.095C115.312 104.6 122.189 109.11 124.075 110.43C125.961 111.75 127.347 113.014 127.015 113.454C126.682 113.949 125.018 113.069 123.132 111.75C121.246 110.43 114.646 105.535 114.979 105.095Z" fill="#2D2D2D"/>
</g>
<g id="Group_335">
<path id="Vector_259" d="M128.679 114.609C129.011 114.114 134.669 117.799 136.222 118.844C137.775 119.944 138.884 120.989 138.551 121.429C138.219 121.924 136.832 121.209 135.279 120.164C133.726 119.119 128.346 115.104 128.679 114.609Z" fill="#2D2D2D"/>
</g>
<g id="Group_336">
<path id="Vector_260" d="M140.271 122.639C140.604 122.144 145.207 125.058 146.483 125.938C147.759 126.818 148.646 127.698 148.313 128.193C147.98 128.688 146.816 128.138 145.595 127.258C144.264 126.433 139.938 123.134 140.271 122.639Z" fill="#2D2D2D"/>
</g>
</g>
<g id="Group_337">
<g id="Group_338">
<path id="Vector_261" d="M98.0065 85.4072C98.062 84.8022 110.042 85.6272 113.37 85.9571C116.754 86.2321 119.416 86.7271 119.416 87.277C119.361 87.827 116.643 87.827 113.259 87.552C109.876 87.222 97.9511 86.0121 98.0065 85.4072Z" fill="#2D2D2D"/>
</g>
<g id="Group_339">
<path id="Vector_262" d="M121.468 87.4419C121.524 86.837 129.732 87.3319 132.007 87.5519C134.281 87.7719 136.166 88.1568 136.111 88.7068C136.055 89.3117 134.17 89.3667 131.896 89.1467C129.566 88.9818 121.413 88.0469 121.468 87.4419Z" fill="#2D2D2D"/>
</g>
<g id="Group_340">
<path id="Vector_263" d="M138.108 88.8719C138.163 88.2669 144.874 88.6519 146.76 88.8169C148.646 88.9818 150.144 89.3118 150.088 89.9168C150.033 90.4667 148.48 90.5767 146.594 90.4117C144.763 90.3017 138.052 89.4768 138.108 88.8719Z" fill="#2D2D2D"/>
</g>
<g id="Group_341">
<path id="Vector_264" d="M152.196 90.1367C152.251 89.5317 157.687 89.8067 159.24 89.9167C160.793 90.0267 161.958 90.3566 161.958 90.9616C161.902 91.5665 160.626 91.6765 159.129 91.5115C157.576 91.4015 152.14 90.6866 152.196 90.1367Z" fill="#2D2D2D"/>
</g>
</g>
<g id="Group_342">
<g id="Group_343">
<path id="Vector_265" d="M96.7863 78.8077C96.509 78.3128 107.325 73.0333 110.375 71.6584C113.426 70.2285 116.033 69.2936 116.255 69.8436C116.476 70.3935 114.091 71.7134 111.041 73.1432C108.046 74.5181 97.0636 79.3577 96.7863 78.8077Z" fill="#2D2D2D"/>
</g>
<g id="Group_344">
<path id="Vector_266" d="M118.14 68.9637C117.918 68.4137 125.24 64.784 127.292 63.8491C129.4 62.8592 131.175 62.3093 131.396 62.8042C131.618 63.3542 130.065 64.2891 127.958 65.279C125.905 66.2689 118.418 69.4586 118.14 68.9637Z" fill="#2D2D2D"/>
</g>
<g id="Group_345">
<path id="Vector_267" d="M133.338 61.9243C133.116 61.3744 139.106 58.3496 140.825 57.5797C142.545 56.8098 144.042 56.3698 144.264 56.8648C144.486 57.4147 143.21 58.2397 141.491 59.0096C139.772 59.8345 133.56 62.4743 133.338 61.9243Z" fill="#2D2D2D"/>
</g>
<g id="Group_346">
<path id="Vector_268" d="M146.15 56.0399C145.928 55.4899 150.754 53.0152 152.14 52.3552C153.527 51.6953 154.747 51.4203 155.024 51.9153C155.246 52.4652 154.248 53.1801 152.861 53.7851C151.419 54.445 146.372 56.5348 146.15 56.0399Z" fill="#2D2D2D"/>
</g>
</g>
<g id="Group_347">
<g id="Group_348">
<path id="Vector_269" d="M92.46 73.6932C91.9608 73.3633 98.6721 63.4642 100.613 60.7144C102.555 57.9647 104.33 55.8749 104.773 56.2049C105.272 56.5348 103.886 58.8996 101.945 61.6493C100.003 64.3991 92.9592 74.0232 92.46 73.6932Z" fill="#2D2D2D"/>
</g>
<g id="Group_349">
<path id="Vector_270" d="M105.993 54.5551C105.494 54.2251 110.042 47.4608 111.374 45.5359C112.705 43.6661 113.98 42.2912 114.424 42.6212C114.923 42.9512 114.036 44.601 112.705 46.4708C111.374 48.3957 106.437 54.8851 105.993 54.5551Z" fill="#2D2D2D"/>
</g>
<g id="Group_350">
<path id="Vector_271" d="M115.589 40.9712C115.09 40.6413 118.806 35.0318 119.86 33.4919C120.969 31.9521 122.023 30.8522 122.522 31.1821C123.021 31.5121 122.3 32.887 121.246 34.4268C120.137 35.9667 116.088 41.3012 115.589 40.9712Z" fill="#2D2D2D"/>
</g>
<g id="Group_351">
<path id="Vector_272" d="M123.687 29.4774C123.188 29.1474 126.127 24.5828 127.015 23.3179C127.902 22.053 128.79 21.1731 129.289 21.5031C129.788 21.8331 129.233 22.988 128.346 24.1978C127.514 25.5177 124.186 29.8073 123.687 29.4774Z" fill="#2D2D2D"/>
</g>
</g>
<g id="Group_352">
<g id="Group_353">
<path id="Vector_273" d="M86.137 71.4384C85.5269 71.3834 86.3589 59.5045 86.6917 56.2048C86.969 52.8501 87.4682 50.2104 88.0229 50.2654C88.633 50.3204 88.5775 53.0151 88.3002 56.3698C87.9674 59.6145 86.7472 71.4934 86.137 71.4384Z" fill="#2D2D2D"/>
</g>
<g id="Group_354">
<path id="Vector_274" d="M88.1892 48.1756C87.6346 48.1206 88.0783 39.9814 88.3001 37.7266C88.522 35.4718 88.9103 33.6019 89.4649 33.6569C90.075 33.7119 90.1305 35.5818 89.9086 37.8366C89.7422 40.1463 88.7993 48.1756 88.1892 48.1756Z" fill="#2D2D2D"/>
</g>
<g id="Group_355">
<path id="Vector_275" d="M89.6313 31.6222C89.0212 31.5672 89.4095 24.9128 89.5759 23.043C89.7423 21.1732 90.1305 19.6883 90.6852 19.7433C91.2953 19.7983 91.3507 21.3382 91.1843 23.208C91.0734 25.0228 90.2415 31.6772 89.6313 31.6222Z" fill="#2D2D2D"/>
</g>
<g id="Group_356">
<path id="Vector_276" d="M90.907 17.6534C90.2969 17.5984 90.5742 12.2089 90.6852 10.6691C90.7961 9.12923 91.1289 7.91934 91.739 7.97434C92.2937 8.02933 92.46 9.29421 92.2937 10.7791C92.1827 12.3189 91.4617 17.7084 90.907 17.6534Z" fill="#2D2D2D"/>
</g>
</g>
</g>
</g>
<g id="Group_357">
<path id="Vector_277" d="M145.041 84.3073C145.041 51.4203 118.196 24.7478 85.0278 24.7478C51.8597 24.7478 24.9592 51.4203 24.9592 84.3073C24.9592 117.194 51.8597 143.867 85.0278 143.867C118.196 143.812 145.041 117.194 145.041 84.3073Z" fill="#F0F0F0"/>
<g id="Group_358">
<path id="Vector_278" d="M85.0278 139.522C54.3002 139.522 29.2855 114.719 29.2855 84.2523C29.2855 53.7851 54.3002 28.9824 85.0278 28.9824C115.755 28.9824 140.77 53.7851 140.77 84.2523C140.715 114.719 115.7 139.522 85.0278 139.522ZM85.0278 30.3573C55.0212 30.3573 30.6167 54.555 30.6167 84.3073C30.6167 114.06 55.0212 138.202 85.0278 138.202C115.034 138.202 139.383 114.005 139.383 84.3073C139.383 54.555 114.979 30.3573 85.0278 30.3573Z" fill="#2D2D2D"/>
</g>
<g id="Group_359">
<path id="Vector_279" d="M85.0277 119.669C65.3377 119.669 49.3083 103.775 49.3083 84.2523C49.3083 64.7291 65.3377 48.8356 85.0277 48.8356C104.718 48.8356 120.747 64.7291 120.747 84.2523C120.692 103.83 104.718 119.669 85.0277 119.669ZM85.0277 50.2104C66.0587 50.2104 50.6395 65.499 50.6395 84.3073C50.6395 103.116 66.0587 118.404 85.0277 118.404C103.997 118.404 119.416 103.116 119.416 84.3073C119.361 65.499 103.941 50.2104 85.0277 50.2104Z" fill="#2D2D2D"/>
</g>
</g>
<g id="Group_360">
<path id="Vector_280" d="M46.2578 89.5317V79.0277H32.7243L37.217 84.3072L32.7243 89.5317H46.2578Z" fill="#2D2D2D"/>
</g>
<g id="Group_361">
<path id="Vector_281" d="M123.077 89.5317V79.0277H136.555L132.117 84.3072L136.555 89.5317H123.077Z" fill="#2D2D2D"/>
</g>
</g>
</svg>
