<svg width="84" height="121" viewBox="0 0 84 121" fill="none" xmlns="http://www.w3.org/2000/svg">
<g id="Group">
<path id="Vector" d="M25.8368 120.097C24.8777 120.097 23.9186 119.78 23.2792 119.145C22.1603 118.193 12.2497 109.627 9.0527 98.0472C7.13452 90.9089 7.77391 82.3428 8.41331 73.9354C8.89285 68.8592 9.21255 63.4657 8.89286 59.3413C8.73301 56.9619 7.29437 52.8375 5.85574 48.2372C1.06029 33.6432 -5.49348 13.8144 8.89286 4.93104C13.8481 1.75843 18.8034 0.330747 23.7587 0.330747C29.0337 0.330747 33.3496 2.07568 36.8663 3.50336C38.9443 4.29651 40.7026 5.08967 41.9814 5.08967C43.1004 5.08967 45.1784 4.29651 46.9367 3.50336C50.1337 2.07568 54.6094 0.172119 60.0443 0.172119C64.9995 0.172119 69.795 1.75842 74.9101 4.7724C86.2594 11.9108 84.1814 26.1875 81.4639 36.6572L81.7836 37.2917L80.9844 38.0848C80.0253 41.5747 78.9064 44.906 77.9473 47.9199C76.5086 52.5202 75.07 56.6446 74.7503 59.1827C74.4306 63.3071 74.7503 68.3833 75.2298 73.7767V73.9354C75.8692 82.1842 76.5086 90.7502 74.5905 97.8886C71.3935 109.627 61.4829 118.035 60.364 118.986C58.9253 120.097 57.167 120.256 55.5685 119.304C54.1299 118.511 53.3306 116.766 53.6503 115.021C54.9291 107.565 56.3678 92.3365 52.8511 82.8187C49.0147 72.5077 43.1004 68.2247 41.8216 67.9074C40.7026 68.066 34.7882 72.3491 30.9519 82.8187C26.4761 95.1919 30.1527 114.703 30.1527 115.021C30.4724 116.766 29.6731 118.511 28.2345 119.304C27.2754 119.938 26.4762 120.097 25.8368 120.097ZM41.5019 63.4657C45.8178 63.4657 53.011 70.7628 56.8473 81.391C61.0034 92.6538 59.0852 108.675 58.1261 114.228C60.8435 111.531 67.2374 105.027 69.4753 96.7782C71.2336 90.5916 70.5943 82.3428 69.9549 74.4113L72.3526 74.094L69.9549 74.2526C69.4753 68.7006 69.1556 63.3071 69.4753 58.8655C69.795 55.8515 71.2336 51.5684 72.8321 46.6509C73.951 43.3197 75.07 39.9884 76.0291 36.4985L76.3488 35.3881C80.0253 21.27 78.5867 13.1798 71.873 8.8968C67.717 6.20008 63.7208 4.93104 59.5647 4.93104C55.2488 4.93104 51.4125 6.51734 48.3754 7.78638C45.9776 8.73817 43.5799 9.84859 41.5019 9.84859C39.4239 9.84859 37.0261 8.8968 34.6284 7.78638C31.4314 6.35871 27.7549 4.93104 23.439 4.93104C19.4428 4.93104 15.4466 6.20008 11.1307 8.8968C-0.0586397 15.8766 5.85574 33.6432 10.0118 46.6509C11.6103 51.7271 13.0489 56.0101 13.3686 58.8655C13.8481 63.4658 13.3686 69.0178 12.8891 74.2526C12.2497 82.1842 11.6103 90.2743 13.3686 96.6196C15.6065 104.71 21.8406 111.372 24.7178 114.069C23.9186 108.675 22.0004 92.3365 25.9966 81.2324C30.1527 70.7628 37.3458 63.4657 41.5019 63.4657Z" fill="white"/>
</g>
</svg>
