<svg width="135" height="135" viewBox="0 0 135 135" fill="none" xmlns="http://www.w3.org/2000/svg">
<g clip-path="url(#clip0_1_1764)">
<path d="M67.4994 134.999C63.8075 134.999 60.3912 133.567 57.8014 131.032L54.9361 128.167C50.032 123.262 40.334 119.24 33.3912 119.24H29.3687C21.8198 119.24 15.7034 113.124 15.7034 105.575V101.552C15.7034 94.6094 11.681 84.9665 6.77691 80.0073L3.9667 77.142C-1.37819 71.7971 -1.37819 63.1461 3.9667 57.8012L6.77691 54.9359C11.681 50.0318 15.7034 40.3339 15.7034 33.391V29.3686C15.7034 21.8196 21.8198 15.7033 29.3687 15.7033H33.3912C40.334 15.7033 49.9769 11.6808 54.9361 6.77674L57.8014 3.91144C60.3912 1.32164 63.8075 -0.0559082 67.4994 -0.0559082C71.1912 -0.0559082 74.6075 1.37674 77.1973 3.91144L80.0626 6.77674C84.9667 11.6808 94.6647 15.7033 101.608 15.7033H105.63C113.179 15.7033 119.295 21.8196 119.295 29.3686V33.391C119.295 40.3339 123.318 49.9767 128.222 54.9359L131.087 57.8012C136.432 63.1461 136.432 71.7971 131.087 77.142L128.222 80.0073C123.318 84.9114 119.295 94.5543 119.295 101.552V105.575C119.295 113.124 113.179 119.24 105.63 119.24H101.608C94.6647 119.24 85.0218 123.262 80.0626 128.167L77.1973 131.032C74.6075 133.567 71.1912 134.999 67.4994 134.999ZM29.4238 17.2461C22.7014 17.2461 17.2463 22.7012 17.2463 29.4237V33.4461C17.2463 40.7196 13.0585 50.9135 7.87895 56.038L5.01364 58.8482C0.274867 63.5869 0.274867 71.3012 5.01364 76.04L7.87895 78.9053C13.0585 84.0849 17.2463 94.2237 17.2463 101.497V105.52C17.2463 112.242 22.7014 117.697 29.4238 117.697H33.4463C40.7198 117.697 50.9136 121.885 56.0381 127.064L58.9034 129.93C61.2177 132.244 64.2483 133.456 67.4994 133.456C70.7504 133.456 73.8361 132.189 76.0953 129.93L78.9606 127.064C84.1402 121.885 94.2789 117.697 101.552 117.697H105.575C112.297 117.697 117.752 112.242 117.752 105.52V101.497C117.752 94.2237 121.94 84.0298 127.12 78.9053L129.93 76.04C134.669 71.3012 134.669 63.5869 129.93 58.8482L127.12 56.038C121.94 50.8584 117.752 40.7196 117.752 33.4461V29.4237C117.752 22.7012 112.297 17.2461 105.575 17.2461H101.552C94.2789 17.2461 84.0851 13.0584 78.9606 7.87878L76.0953 5.01348C73.781 2.7543 70.7504 1.48695 67.4994 1.48695C64.2483 1.48695 61.1626 2.7543 58.9034 5.01348L56.0381 7.87878C50.8585 13.0584 40.7198 17.2461 33.4463 17.2461H29.4238Z" fill="#232323"/>
<path d="M81 133.292C78.5755 133.292 76.2061 132.631 74.1123 131.418L70.6408 129.38C66.5633 126.955 60.0612 125.412 54.0551 125.412C51.6306 125.412 49.4265 125.688 47.5531 126.129L43.6408 127.12C42.5388 127.396 41.3816 127.561 40.2245 127.561C33.998 127.561 28.5429 123.374 26.9449 117.312L25.9531 113.4C24.1898 106.678 17.9082 98.3021 11.902 94.8307L8.43061 92.7919C5.2898 90.9184 3.03061 87.998 2.14898 84.4164C1.21224 80.8899 1.70816 77.198 3.58163 74.0572L5.62041 70.5858C9.14694 64.5797 10.5796 54.2205 8.81633 47.498L7.82449 43.5858C5.95102 36.3674 10.3592 28.8736 17.6327 27.0001L21.5449 26.0083C28.2673 24.245 36.5878 17.9083 40.1143 11.9572L42.1531 8.4858C44.5776 4.29805 49.151 1.70825 54 1.70825C56.4245 1.70825 58.7939 2.36948 60.8878 3.58172L64.3592 5.6205C68.4367 8.04499 74.9388 9.58784 80.9449 9.58784C83.3694 9.58784 85.5735 9.31233 87.447 8.87152L91.3041 7.87968C92.4061 7.60417 93.5633 7.43886 94.7204 7.43886C100.947 7.43886 106.402 11.6266 108 17.6878L108.992 21.6001C110.755 28.3225 117.037 36.6429 123.043 40.1695L126.514 42.2083C133.016 46.0103 135.22 54.4409 131.418 60.9429L129.38 64.4144C125.853 70.4205 124.42 80.7797 126.184 87.5021L127.176 91.3593C129.049 98.6878 124.696 106.127 117.367 108.055L113.455 109.047C106.733 110.81 98.4123 117.092 94.8857 123.098L92.847 126.569C90.4225 130.702 85.9041 133.292 81 133.292ZM54.0551 123.869C60.3918 123.869 67.0592 125.467 71.4123 128.002L74.8837 130.041C76.7571 131.143 78.851 131.694 81 131.694C85.298 131.694 89.3755 129.38 91.5245 125.688L93.5633 122.216C97.2551 115.935 106.016 109.323 113.069 107.449L116.982 106.457C123.484 104.749 127.396 98.1368 125.688 91.6348L124.696 87.7225C122.878 80.6695 124.365 69.8144 128.057 63.4776L130.096 60.0062C133.512 54.2205 131.529 46.7266 125.743 43.3654L122.271 41.3266C115.99 37.6348 109.378 28.8736 107.504 21.8205L106.512 17.9634C105.135 12.6185 100.286 8.87152 94.7204 8.87152C93.6735 8.87152 92.6816 8.98172 91.6898 9.25723L87.8327 10.2491C85.849 10.745 83.5347 11.0205 80.9449 11.0205C74.6082 11.0205 67.9408 9.42254 63.5878 6.88784L60.1163 4.84907C58.2429 3.74703 56.149 3.19601 54 3.19601C49.702 3.19601 45.6245 5.51029 43.4755 9.20213L41.4367 12.6736C37.7449 18.9552 28.9837 25.5674 21.9306 27.4409L18.0184 28.4327C11.5163 30.1409 7.60408 36.7532 9.31225 43.2552L10.3041 47.1674C12.1225 54.2205 10.6347 65.0756 6.94286 71.4123L4.90408 74.8838C3.25102 77.694 2.8102 80.945 3.63673 84.0858C4.46327 87.2266 6.44694 89.8715 9.25714 91.5246L12.7286 93.5633C19.0102 97.2552 25.6225 106.016 27.4959 113.069L28.4878 116.982C29.8653 122.327 34.7143 126.074 40.2796 126.074C41.3265 126.074 42.3184 125.963 43.3102 125.688L47.1674 124.696C49.2061 124.145 51.5204 123.869 54.0551 123.869Z" fill="#232323"/>
<path d="M54.2755 133.347C49.4265 133.347 44.9082 130.812 42.4837 126.68L40.4449 123.208C36.9184 117.257 28.5429 110.976 21.7653 109.267L17.8531 108.276C10.5245 106.402 6.11633 98.9634 7.9347 91.6348L8.92654 87.7225C10.6347 81.0001 9.14694 70.6409 5.56531 64.6899L3.52654 61.2185C-0.330607 54.7164 1.81837 46.3409 8.32041 42.4838L11.7918 40.445C17.7429 36.9185 24.0245 28.4878 25.7327 21.7654L26.7245 17.8532C28.2673 11.7919 33.7225 7.54907 40.0041 7.54907C41.1061 7.54907 42.2633 7.71437 43.3653 7.98988L47.2776 8.98172C49.0959 9.42254 51.2449 9.69805 53.6143 9.69805C59.6755 9.69805 66.2327 8.10009 70.3653 5.6756L73.8367 3.63682C75.9306 2.36948 78.3551 1.70825 80.7796 1.70825C85.6286 1.70825 90.1469 4.24295 92.5714 8.3756L94.6102 11.847C98.1367 17.798 106.512 24.0797 113.29 25.7878L117.202 26.7797C124.531 28.6532 128.939 36.0919 127.12 43.4205L126.129 47.3327C124.42 54.0552 125.908 64.4144 129.49 70.4205L131.529 73.8919C133.402 77.0327 133.898 80.7246 133.016 84.2511C132.135 87.7776 129.876 90.8083 126.735 92.6266L123.263 94.6654C117.312 98.247 111.031 106.623 109.322 113.345L108.331 117.257C106.788 123.318 101.333 127.561 95.051 127.561C93.949 127.561 92.7918 127.396 91.6898 127.12L87.7775 126.129C85.9592 125.688 83.8102 125.412 81.4408 125.412C75.3796 125.412 68.8225 127.01 64.6898 129.435L61.2184 131.474C59.1245 132.686 56.7551 133.347 54.2755 133.347ZM40.0041 9.09193C34.4388 9.09193 29.5898 12.8389 28.2122 18.2389L27.2204 22.1511C25.402 29.2042 18.8449 37.9654 12.5633 41.7123L9.09184 43.7511C3.36123 47.2225 1.43266 54.6613 4.90409 60.447L6.94286 63.9185C10.6898 70.2001 12.2327 81.0552 10.4694 88.1083L9.47756 92.0205C7.82449 98.5225 11.7918 105.135 18.2939 106.788L22.2061 107.78C29.2592 109.598 38.0755 116.155 41.8225 122.437L43.8612 125.908C46.0653 129.6 50.0327 131.859 54.3306 131.859C56.5347 131.859 58.6286 131.253 60.502 130.151L63.9735 128.112C68.3265 125.523 75.2143 123.869 81.4959 123.869C83.9755 123.869 86.2347 124.145 88.1633 124.641L92.0755 125.633C93.0674 125.908 94.0592 126.018 95.051 126.018C100.616 126.018 105.465 122.272 106.843 116.872L107.835 112.959C109.653 105.906 116.21 97.0899 122.492 93.3429L125.963 91.3042C128.718 89.6511 130.702 87.0062 131.529 83.8654C132.355 80.7246 131.859 77.4185 130.206 74.6634L128.167 71.1919C124.42 64.9103 122.878 54.0552 124.696 46.947L125.688 43.0348C127.341 36.5327 123.373 29.9205 116.871 28.2674L112.959 27.2756C105.906 25.4572 97.0898 18.9001 93.3428 12.6185L91.3041 9.14703C89.1 5.51029 85.1327 3.19601 80.8347 3.19601C78.6857 3.19601 76.5367 3.80213 74.6633 4.90417L71.1918 6.94295C66.8388 9.53274 59.951 11.1858 53.6694 11.1858C51.1898 11.1858 48.9306 10.9103 47.002 10.4144L42.9796 9.42254C42.0429 9.20213 40.9959 9.09193 40.0041 9.09193Z" fill="#232323"/>
<path d="M111.471 92.2961C110.314 92.9573 109.267 92.9022 108.441 92.6267C107.669 92.4063 107.173 92.0205 107.173 92.0205C107.173 92.0205 107.284 91.8552 107.449 91.4695C107.614 91.1389 107.89 90.6981 108.22 90.2022C108.882 89.2103 109.873 88.0532 110.865 87.3369C111.912 86.6206 113.014 86.5655 113.841 86.6757C114.667 86.7859 115.218 87.0614 115.218 87.0614C115.218 87.0614 114.888 88.0532 114.282 89.1552C113.676 90.3675 112.573 91.6348 111.471 92.2961Z" fill="#232323"/>
<path d="M107.449 98.6327C106.182 99.1287 105.135 98.8531 104.418 98.5225C103.702 98.1919 103.206 97.696 103.206 97.696C103.206 97.696 103.702 96.9246 104.529 96.0429C105.41 95.2164 106.347 94.1144 107.559 93.5633C108.716 93.0123 109.818 93.1225 110.645 93.3429C111.416 93.5633 111.967 93.9491 111.967 93.9491C111.967 93.9491 111.857 94.1695 111.637 94.5552C111.416 94.8858 111.086 95.3817 110.7 95.9327C109.818 96.9797 108.716 98.1919 107.449 98.6327Z" fill="#232323"/>
<path d="M102.6 104.363C101.278 104.639 100.231 104.253 99.5694 103.812C98.8531 103.372 98.5224 102.876 98.5224 102.876C98.5224 102.876 99.1837 102.214 100.12 101.498C101.002 100.727 102.214 99.845 103.482 99.5144C104.694 99.1287 105.741 99.3491 106.512 99.6797C107.284 100.01 107.724 100.451 107.724 100.451C107.724 100.451 107.559 100.672 107.339 101.002C107.063 101.333 106.733 101.774 106.237 102.214C105.19 103.041 103.867 104.033 102.6 104.363Z" fill="#232323"/>
<path d="M104.088 88.3287C104.253 89.4858 104.914 90.3675 105.52 90.9185C106.127 91.4695 106.678 91.745 106.678 91.745C106.678 91.745 106.843 91.5797 107.008 91.2491C107.173 90.9185 107.394 90.4226 107.614 89.8715C108.055 88.7695 108.441 87.392 108.165 86.1246C107.89 84.9124 107.173 84.1409 106.457 83.7001C105.796 83.2593 105.19 83.094 105.19 83.094C105.19 83.094 104.804 83.8103 104.529 84.8573C104.253 85.9593 103.867 87.1715 104.088 88.3287Z" fill="#232323"/>
<path d="M100.727 93.6735C100.727 94.8307 101.222 95.8225 101.773 96.4287C102.269 97.0899 102.82 97.4205 102.82 97.4205C102.82 97.4205 103.427 96.7042 104.033 95.7123C104.694 94.7205 105.135 93.2878 105.08 92.0756C105.024 90.8633 104.418 90.0368 103.757 89.4858C103.151 88.9348 102.545 88.7144 102.545 88.7144C102.545 88.7144 102.435 88.8797 102.269 89.1552C102.104 89.4307 101.884 89.8164 101.608 90.3123C101.167 91.2491 100.727 92.5164 100.727 93.6735Z" fill="#232323"/>
<path d="M96.649 98.4675C96.4837 99.6246 96.8143 100.616 97.2551 101.333C97.6959 102.049 98.1367 102.435 98.1367 102.435C98.1367 102.435 98.8531 101.829 99.5694 100.947C100.286 100.01 101.002 98.743 101.112 97.5308C101.222 96.3185 100.671 95.3267 100.12 94.7205C99.5694 94.1144 99.0735 93.7838 99.0735 93.7838C99.0735 93.7838 98.9633 93.9491 98.7429 94.2246C98.5225 94.5001 98.302 94.8859 97.9714 95.3267C97.4204 96.1532 96.8143 97.3103 96.649 98.4675Z" fill="#232323"/>
<path d="M116.596 78.0798C115.659 79.0165 114.612 79.292 113.786 79.292C112.959 79.292 112.353 79.0716 112.353 79.0716C112.353 79.0716 112.518 78.1349 112.904 77.0328C113.345 75.9308 113.731 74.4981 114.612 73.5614C115.439 72.5696 116.486 72.1838 117.312 72.0736C118.139 71.9634 118.745 72.0736 118.745 72.0736C118.745 72.0736 118.745 72.3491 118.69 72.7349C118.635 73.1206 118.524 73.7267 118.414 74.3879C118.084 75.6002 117.588 77.143 116.596 78.0798Z" fill="#232323"/>
<path d="M114.612 85.298C113.565 86.1246 112.408 86.1797 111.637 86.0694C110.81 85.9592 110.259 85.6286 110.259 85.6286C110.259 85.6286 110.369 85.4082 110.48 85.0776C110.59 84.747 110.865 84.2511 111.086 83.7001C111.582 82.598 112.298 81.3307 113.29 80.5041C114.227 79.6225 115.273 79.4021 116.1 79.4021C116.927 79.4021 117.533 79.6225 117.533 79.6225C117.533 79.6225 117.367 80.6694 116.927 81.8817C116.376 83.0388 115.604 84.4715 114.612 85.298Z" fill="#232323"/>
<path d="M108.441 76.4266C108.937 77.4736 109.763 78.1348 110.535 78.5205C111.251 78.9062 111.912 78.9613 111.912 78.9613C111.912 78.9613 112.188 78.0797 112.298 76.9225C112.463 75.7654 112.298 74.2777 111.747 73.1756C111.196 72.0736 110.259 71.5777 109.488 71.3572C108.716 71.1368 108.055 71.1368 108.055 71.1368C108.055 71.1368 108.055 71.3572 108 71.6879C107.945 72.0185 107.89 72.4593 107.89 73.0103C107.835 74.0021 108 75.3246 108.441 76.4266Z" fill="#232323"/>
<path d="M106.733 82.4878C107.063 83.5899 107.78 84.3613 108.496 84.8021C109.157 85.2429 109.763 85.4633 109.763 85.4633C109.763 85.4633 109.873 85.2429 109.984 84.9123C110.094 84.5817 110.314 84.0858 110.424 83.4797C110.645 82.3225 110.81 80.8899 110.424 79.7327C109.984 78.5756 109.102 77.9144 108.331 77.5838C107.559 77.2531 106.953 77.1429 106.953 77.1429C106.953 77.1429 106.733 77.9144 106.622 78.9613C106.457 80.0082 106.347 81.3307 106.733 82.4878Z" fill="#232323"/>
<path d="M96.9245 109.323C95.602 109.488 94.6653 108.937 94.0041 108.386C93.398 107.835 93.0673 107.284 93.0673 107.284C93.0673 107.284 93.2327 107.174 93.5633 106.953C93.8939 106.733 94.2796 106.402 94.7755 106.127C95.7673 105.465 97.1449 104.859 98.3571 104.639C99.6245 104.418 100.616 104.804 101.333 105.245C102.049 105.686 102.435 106.182 102.435 106.182C102.435 106.182 101.718 106.898 100.671 107.725C99.7347 108.496 98.2469 109.157 96.9245 109.323Z" fill="#232323"/>
<path d="M90.6429 113.455C89.3204 113.4 88.4388 112.739 87.8878 112.133C87.3367 111.527 87.1163 110.921 87.1163 110.921C87.1163 110.921 87.8878 110.425 88.9898 109.984C90.0918 109.543 91.4694 108.992 92.7367 108.992C94.0041 108.992 94.9959 109.488 95.602 110.039C96.2633 110.59 96.5388 111.141 96.5388 111.141C96.5388 111.141 95.7122 111.747 94.5551 112.353C93.949 112.684 93.3429 112.959 92.6265 113.18C92.0755 113.345 91.3592 113.455 90.6429 113.455Z" fill="#232323"/>
<path d="M83.9204 116.651C82.598 116.376 81.8265 115.604 81.3857 114.888C80.9449 114.172 80.8347 113.565 80.8347 113.565C80.8347 113.565 81.6612 113.235 82.8735 112.959C84.0306 112.629 85.4633 112.298 86.7306 112.519C87.998 112.739 88.8796 113.29 89.4306 113.951C89.9816 114.557 90.202 115.163 90.202 115.163C90.202 115.163 89.9816 115.274 89.5959 115.494C89.2102 115.714 88.7143 115.935 88.0531 116.155C86.7857 116.486 85.1878 116.927 83.9204 116.651Z" fill="#232323"/>
<path d="M91.8551 102.71C91.5796 103.867 91.7449 104.914 92.0755 105.631C92.4061 106.402 92.7918 106.843 92.7918 106.843C92.7918 106.843 92.9571 106.733 93.2878 106.512C93.5633 106.292 94.0041 105.961 94.3898 105.521C95.2163 104.694 96.2082 103.592 96.4286 102.38C96.7041 101.167 96.3184 100.176 95.8776 99.4593C95.4367 98.743 94.9408 98.3572 94.9408 98.3572C94.9408 98.3572 94.3347 98.8532 93.6184 99.6797C93.0122 100.561 92.1306 101.498 91.8551 102.71Z" fill="#232323"/>
<path d="M86.5653 106.127C86.0694 107.229 86.1796 108.276 86.3449 109.102C86.5653 109.929 86.8959 110.425 86.8959 110.425C86.8959 110.425 87.7225 110.039 88.6592 109.378C89.651 108.772 90.6429 107.669 91.0837 106.512C91.5245 105.355 91.3041 104.363 90.9735 103.592C90.6429 102.821 90.202 102.38 90.202 102.38C90.202 102.38 89.4857 102.765 88.7143 103.482C88.3286 103.812 87.8878 104.253 87.502 104.694C87.1714 105.135 86.8408 105.576 86.5653 106.127Z" fill="#232323"/>
<path d="M80.8898 108.827C80.2286 109.818 80.1735 110.865 80.2837 111.692C80.3939 112.518 80.6694 113.07 80.6694 113.07C80.6694 113.07 81.551 112.794 82.598 112.298C83.6449 111.747 84.802 110.865 85.4082 109.818C86.0143 108.772 85.9041 107.669 85.6837 106.898C85.4633 106.127 85.1327 105.576 85.1327 105.576C85.1327 105.576 84.9674 105.686 84.6367 105.851C84.3612 106.016 83.9204 106.237 83.4796 106.512C82.5429 107.008 81.551 107.835 80.8898 108.827Z" fill="#232323"/>
<path d="M74.7184 114.998C74.7184 114.998 77.1429 113.896 77.8041 113.455C78.3 113.18 79.5122 111.967 79.5122 111.967C79.5122 111.967 79.6225 113.235 79.7327 113.676C79.8429 114.061 80.5592 115.163 80.5592 115.163C80.5592 115.163 78.7959 114.998 78.1898 114.888C77.3633 114.833 74.7184 114.998 74.7184 114.998Z" fill="#232323"/>
<path d="M111.582 70.8613C111.361 70.8613 111.251 70.5858 111.251 70.3102C111.251 70.3102 111.306 69.5388 111.361 68.3817C111.471 67.2245 111.306 65.6817 111.306 64.1388C111.141 62.596 111.031 61.0531 110.81 59.9511C110.59 58.7939 110.48 58.0776 110.48 58.0776C110.424 57.8021 110.535 57.5266 110.755 57.5266C110.976 57.4715 111.141 57.6919 111.196 57.9674C111.196 57.9674 111.361 58.7388 111.527 59.896C111.747 61.0531 111.857 62.596 112.022 64.1388C112.078 65.6817 112.188 67.2796 112.078 68.4368C112.022 69.5939 111.967 70.3654 111.967 70.3654C111.967 70.6409 111.802 70.8613 111.582 70.8613Z" fill="#232323"/>
<path d="M113.29 72.0736C113.069 72.0736 112.959 71.7981 113.014 71.5225C113.014 71.5225 113.069 70.4205 113.124 68.7674C113.124 68.3266 113.18 67.8858 113.18 67.445C113.18 66.9491 113.124 66.4532 113.124 65.9572C113.069 64.9103 113.069 63.8083 112.904 62.7062C112.739 60.5021 112.298 58.2981 111.967 56.7001C111.582 55.1021 111.306 54.0001 111.306 54.0001C111.251 53.7246 111.306 53.4491 111.527 53.394C111.692 53.3389 111.912 53.5042 112.022 53.7797C112.022 53.7797 112.298 54.8817 112.739 56.4797C113.069 58.1328 113.51 60.3368 113.676 62.596C113.841 63.6981 113.841 64.8552 113.896 65.9021C113.896 66.4532 113.951 66.9491 113.951 67.3899C113.951 67.8858 113.896 68.3266 113.896 68.7674C113.841 70.4756 113.786 71.5776 113.786 71.5776C113.731 71.9083 113.51 72.0736 113.29 72.0736Z" fill="#232323"/>
<path d="M115.218 71.1368C114.998 71.1368 114.888 70.8613 114.888 70.5858C114.888 70.5858 114.943 69.7593 114.998 68.4919C115.108 67.2246 114.943 65.5715 114.943 63.9185C114.778 62.2654 114.612 60.6123 114.447 59.4001C114.227 58.1879 114.061 57.3613 114.061 57.3613C114.006 57.0858 114.116 56.8103 114.337 56.7552C114.502 56.7001 114.722 56.9205 114.778 57.196C114.778 57.196 114.943 58.0226 115.163 59.2899C115.384 60.5021 115.549 62.2103 115.714 63.8634C115.769 65.5715 115.88 67.2246 115.769 68.4919C115.714 69.7593 115.659 70.5858 115.659 70.5858C115.549 70.9164 115.384 71.1368 115.218 71.1368Z" fill="#232323"/>
<path d="M31.9592 88.3287C31.7939 89.4858 31.1327 90.3675 30.5265 90.9185C29.9204 91.4695 29.3694 91.745 29.3694 91.745C29.3694 91.745 29.2041 91.5797 29.0388 91.2491C28.8735 90.9185 28.6531 90.4226 28.4326 89.8715C27.9918 88.7695 27.6061 87.392 27.8816 86.1246C28.1571 84.9124 28.8735 84.1409 29.5898 83.7001C30.251 83.2593 30.8571 83.094 30.8571 83.094C30.8571 83.094 31.2429 83.8103 31.5184 84.8573C31.7939 85.9593 32.1796 87.1715 31.9592 88.3287Z" fill="#232323"/>
<path d="M35.3755 93.6735C35.3755 94.8307 34.8796 95.8225 34.3286 96.4287C33.8326 97.0899 33.2816 97.4205 33.2816 97.4205C33.2816 97.4205 32.6755 96.7042 32.0694 95.7123C31.4082 94.7205 30.9673 93.2878 31.0224 92.0756C31.0775 90.8633 31.6837 90.0368 32.3449 89.4858C32.951 88.9348 33.5571 88.7144 33.5571 88.7144C33.5571 88.7144 33.6673 88.8797 33.8326 89.1552C33.998 89.4307 34.2184 89.8164 34.4939 90.3123C34.8796 91.2491 35.3204 92.5164 35.3755 93.6735Z" fill="#232323"/>
<path d="M39.398 98.4675C39.5633 99.6246 39.2327 100.616 38.7918 101.333C38.351 102.049 37.9102 102.435 37.9102 102.435C37.9102 102.435 37.1939 101.829 36.4775 100.947C35.8163 100.01 35.0449 98.743 34.9347 97.5308C34.8245 96.3185 35.3755 95.3267 35.9265 94.7205C36.4775 94.1144 36.9735 93.7838 36.9735 93.7838C36.9735 93.7838 37.0837 93.9491 37.3041 94.2246C37.5245 94.5001 37.7449 94.8859 38.0755 95.3267C38.6816 96.1532 39.2878 97.3103 39.398 98.4675Z" fill="#232323"/>
<path d="M24.6306 92.2961C25.7878 92.9573 26.8347 92.9022 27.6612 92.6267C28.4327 92.4063 28.9286 92.0205 28.9286 92.0205C28.9286 92.0205 28.8184 91.8552 28.6531 91.4695C28.4878 91.1389 28.2122 90.6981 27.8816 90.2022C27.2204 89.2103 26.2286 88.0532 25.2367 87.3369C24.1898 86.6206 23.0878 86.5655 22.2612 86.6757C21.4347 86.7859 20.8837 87.0614 20.8837 87.0614C20.8837 87.0614 21.2143 88.0532 21.8204 89.1552C22.3714 90.3675 23.4735 91.6348 24.6306 92.2961Z" fill="#232323"/>
<path d="M28.598 98.6327C29.8653 99.1287 30.9122 98.8531 31.6286 98.5225C32.4 98.1919 32.8408 97.696 32.8408 97.696C32.8408 97.696 32.3449 96.9246 31.5184 96.0429C30.6367 95.2164 29.7 94.1144 28.4878 93.5633C27.3306 93.0123 26.1735 93.1225 25.402 93.3429C24.6306 93.5633 24.0796 93.9491 24.0796 93.9491C24.0796 93.9491 24.1898 94.1695 24.4102 94.5552C24.6306 94.8858 24.9612 95.3817 25.3469 95.9327C26.2286 96.9797 27.3306 98.1919 28.598 98.6327Z" fill="#232323"/>
<path d="M33.4469 104.363C34.7694 104.639 35.8163 104.253 36.4776 103.812C37.1939 103.372 37.5245 102.876 37.5245 102.876C37.5245 102.876 36.8633 102.214 35.9265 101.498C35.0449 100.727 33.8327 99.845 32.6204 99.5144C31.4082 99.1287 30.3612 99.3491 29.5898 99.6797C28.8184 100.01 28.3776 100.451 28.3776 100.451C28.3776 100.451 28.5429 100.672 28.7633 101.002C29.0388 101.333 29.3694 101.829 29.8653 102.214C30.9122 103.041 32.1796 104.033 33.4469 104.363Z" fill="#232323"/>
<path d="M27.6612 76.4266C27.1653 77.4736 26.3388 78.1348 25.5673 78.5205C24.851 78.9062 24.1898 78.9613 24.1898 78.9613C24.1898 78.9613 23.9143 78.0797 23.8041 76.9225C23.6388 75.7654 23.8041 74.2777 24.3551 73.1756C24.9061 72.0736 25.8429 71.5777 26.6143 71.3572C27.3857 71.1368 28.0469 71.1368 28.0469 71.1368C28.0469 71.1368 28.0469 71.3572 28.102 71.6879C28.1571 72.0185 28.2122 72.4593 28.2122 73.0103C28.2122 74.0021 28.102 75.3246 27.6612 76.4266Z" fill="#232323"/>
<path d="M29.3143 82.4878C28.9837 83.5899 28.2673 84.3613 27.551 84.8021C26.8898 85.2429 26.2837 85.4633 26.2837 85.4633C26.2837 85.4633 26.1735 85.2429 26.0633 84.9123C25.9531 84.5817 25.7326 84.0858 25.6224 83.4797C25.402 82.3225 25.2367 80.8899 25.6224 79.7327C26.0633 78.5756 26.9449 77.9144 27.7163 77.5838C28.4326 77.2531 29.0939 77.1429 29.0939 77.1429C29.0939 77.1429 29.3143 77.9144 29.4245 78.9613C29.5898 80.0082 29.7 81.3307 29.3143 82.4878Z" fill="#232323"/>
<path d="M19.451 78.0796C20.3878 79.0164 21.4347 79.2919 22.2612 79.2919C23.0878 79.2919 23.6939 79.0715 23.6939 79.0715C23.6939 79.0715 23.5286 78.1347 23.1429 77.0327C22.702 75.9307 22.3163 74.498 21.4347 73.5613C20.6082 72.5694 19.5612 72.1837 18.7347 72.0735C17.9082 71.9633 17.302 72.0735 17.302 72.0735C17.302 72.0735 17.302 72.349 17.3571 72.7347C17.4122 73.1205 17.5224 73.7266 17.6327 74.3878C17.9633 75.6 18.4592 77.1429 19.451 78.0796Z" fill="#232323"/>
<path d="M21.4347 85.298C22.4816 86.1246 23.6388 86.1797 24.4102 86.0694C25.2367 85.9592 25.7878 85.6286 25.7878 85.6286C25.7878 85.6286 25.6776 85.4082 25.5673 85.0776C25.4571 84.747 25.1816 84.2511 24.9612 83.7001C24.4653 82.598 23.749 81.3307 22.7571 80.5041C21.8204 79.6225 20.7735 79.4021 19.9469 79.4021C19.1204 79.4021 18.5143 79.6225 18.5143 79.6225C18.5143 79.6225 18.6796 80.6694 19.1204 81.8817C19.6714 83.0388 20.4429 84.4715 21.4347 85.298Z" fill="#232323"/>
<path d="M44.1918 102.71C44.4673 103.867 44.302 104.914 43.9714 105.631C43.6408 106.402 43.2551 106.843 43.2551 106.843C43.2551 106.843 43.0898 106.733 42.7592 106.512C42.4837 106.292 42.0428 105.961 41.6571 105.521C40.8306 104.694 39.8388 103.592 39.6184 102.38C39.3428 101.167 39.7286 100.176 40.1694 99.4593C40.6102 98.743 41.1061 98.3572 41.1061 98.3572C41.1061 98.3572 41.7122 98.8532 42.4286 99.6797C43.0347 100.561 43.9163 101.498 44.1918 102.71Z" fill="#232323"/>
<path d="M49.4816 106.127C49.9775 107.229 49.8673 108.276 49.702 109.102C49.4816 109.929 49.151 110.425 49.151 110.425C49.151 110.425 48.3245 110.039 47.3877 109.378C46.3959 108.772 45.4041 107.669 44.9633 106.512C44.5224 105.355 44.7429 104.363 45.0735 103.592C45.4041 102.821 45.8449 102.38 45.8449 102.38C45.8449 102.38 46.5612 102.765 47.3326 103.482C47.7184 103.812 48.1592 104.253 48.5449 104.694C48.8755 105.135 49.2612 105.576 49.4816 106.127Z" fill="#232323"/>
<path d="M55.1571 108.827C55.8184 109.818 55.8735 110.865 55.7633 111.692C55.6531 112.518 55.3775 113.07 55.3775 113.07C55.3775 113.07 54.4959 112.794 53.449 112.298C52.402 111.747 51.2449 110.865 50.6388 109.818C50.0327 108.772 50.1429 107.669 50.3633 106.898C50.5837 106.127 50.9143 105.576 50.9143 105.576C50.9143 105.576 51.0796 105.686 51.4102 105.851C51.6857 106.016 52.1265 106.237 52.5673 106.512C53.5041 107.008 54.551 107.835 55.1571 108.827Z" fill="#232323"/>
<path d="M39.1225 109.323C40.4449 109.488 41.3816 108.937 42.0429 108.386C42.649 107.835 42.9796 107.284 42.9796 107.284C42.9796 107.284 42.8143 107.174 42.4837 106.953C42.1531 106.733 41.7674 106.402 41.2714 106.127C40.2796 105.465 38.902 104.859 37.6898 104.639C36.4225 104.418 35.4306 104.804 34.7143 105.245C33.998 105.686 33.6122 106.182 33.6122 106.182C33.6122 106.182 34.3286 106.898 35.3755 107.725C36.3122 108.496 37.8551 109.157 39.1225 109.323Z" fill="#232323"/>
<path d="M45.4041 113.455C46.7265 113.4 47.6082 112.739 48.1592 112.133C48.7102 111.527 48.9306 110.921 48.9306 110.921C48.9306 110.921 48.1592 110.425 47.0571 109.984C45.9551 109.543 44.5776 108.992 43.3102 108.992C42.0429 108.992 41.051 109.488 40.4449 110.039C39.7837 110.59 39.5082 111.141 39.5082 111.141C39.5082 111.141 40.3347 111.747 41.4918 112.353C42.098 112.684 42.7041 112.959 43.4204 113.18C44.0265 113.345 44.7429 113.455 45.4041 113.455Z" fill="#232323"/>
<path d="M52.1816 116.651C53.5041 116.376 54.2755 115.604 54.7163 114.888C55.1571 114.172 55.2673 113.565 55.2673 113.565C55.2673 113.565 54.3857 113.235 53.2286 112.959C52.0714 112.629 50.6388 112.298 49.3714 112.519C48.1041 112.739 47.2224 113.29 46.6714 113.951C46.1204 114.557 45.9 115.163 45.9 115.163C45.9 115.163 46.1204 115.274 46.5061 115.494C46.8918 115.714 47.3878 115.935 48.049 116.155C49.2612 116.486 50.8592 116.927 52.1816 116.651Z" fill="#232323"/>
<path d="M61.3286 114.998C61.3286 114.998 58.6837 114.833 57.802 114.888C57.1959 114.943 55.4327 115.163 55.4327 115.163C55.4327 115.163 56.149 114.061 56.2592 113.676C56.3694 113.29 56.4796 111.967 56.4796 111.967C56.4796 111.967 57.6918 113.18 58.1878 113.455C58.9041 113.896 61.3286 114.998 61.3286 114.998Z" fill="#232323"/>
<path d="M20.8837 71.1368C20.6633 71.1368 20.498 70.9164 20.498 70.5858C20.498 70.5858 20.4429 69.7593 20.3878 68.4919C20.2776 67.2246 20.4429 65.5715 20.4429 63.8634C20.6082 62.2103 20.7735 60.5021 20.9939 59.2899C21.2143 58.0777 21.3796 57.196 21.3796 57.196C21.4347 56.9205 21.6551 56.7001 21.8204 56.7552C22.0408 56.8103 22.151 57.0858 22.0959 57.3613C22.0959 57.3613 21.9306 58.1879 21.7102 59.4001C21.4898 60.6123 21.3245 62.2654 21.2143 63.9185C21.1592 65.5715 21.049 67.2246 21.1592 68.4919C21.2143 69.7593 21.2694 70.5858 21.2694 70.5858C21.2143 70.8613 21.049 71.0817 20.8837 71.1368Z" fill="#232323"/>
<path d="M22.7571 72.0736C22.5918 72.0736 22.3714 71.8532 22.3714 71.5776C22.3714 71.5776 22.3163 70.4756 22.2612 68.7674C22.2612 68.3266 22.2061 67.8858 22.2061 67.3899C22.2061 66.894 22.2612 66.3981 22.2612 65.9021C22.3163 64.8552 22.3163 63.6981 22.4816 62.596C22.6469 60.3368 23.0878 58.1328 23.4184 56.4797C23.8592 54.8266 24.1347 53.7797 24.1347 53.7797C24.1898 53.5042 24.4102 53.3389 24.6306 53.394C24.7959 53.4491 24.9061 53.7246 24.851 54.0001C24.851 54.0001 24.5755 55.047 24.1347 56.7001C23.8041 58.3532 23.3633 60.5021 23.198 62.7062C23.0327 63.8083 23.0327 64.9103 22.9776 65.9572C22.9776 66.4532 22.9224 67.0042 22.9224 67.445C22.9224 67.9409 22.9776 68.3817 22.9776 68.7674C23.0327 70.4205 23.0878 71.5225 23.0878 71.5225C23.0327 71.7981 22.9225 72.0736 22.7571 72.0736Z" fill="#232323"/>
<path d="M24.4653 70.8613C24.2449 70.8613 24.0796 70.6409 24.0796 70.3654C24.0796 70.3654 24.0245 69.5939 23.9694 68.4368C23.8592 67.2796 24.0245 65.6817 24.0245 64.1388C24.1898 62.596 24.3 61.0531 24.5204 59.896C24.7408 58.7388 24.851 57.9674 24.851 57.9674C24.9061 57.6919 25.1265 57.4715 25.2918 57.5266C25.4572 57.5817 25.6225 57.8021 25.5674 58.0776C25.5674 58.0776 25.4572 58.849 25.2367 59.9511C25.0163 61.1082 24.9061 62.6511 24.7408 64.1388C24.6857 65.6817 24.5755 67.2245 24.6857 68.3817C24.7408 69.5388 24.7959 70.3102 24.7959 70.3102C24.7959 70.5858 24.6857 70.8613 24.4653 70.8613Z" fill="#232323"/>
<path d="M84.4163 38.9571C81.9367 37.4142 79.5674 36.6428 77.198 36.6428C74.6082 36.6428 72.4592 37.5796 70.6959 38.2959C69.4837 38.8469 68.3816 39.2877 67.5 39.2877C66.6184 39.2877 65.5714 38.8469 64.3041 38.2959C62.5408 37.5796 60.3918 36.6428 57.802 36.6428C55.3776 36.6428 53.0633 37.4142 50.5837 38.9571C43.751 43.2551 47.0571 53.3938 49.4816 60.8326C49.6469 61.2734 49.7571 61.7142 49.9224 62.1H49.7571V74.4428H64.4694V77.0877H54.1102V80.2285H64.4694V82.4326H56.6449V85.5734H64.4694V87.7775H59.7306V90.9183H64.4694V93.1224H63.0367V96.2632H71.9633V93.1224H70.5306V90.9183H75.2694V87.7775H70.5306V85.5734H78.3551V82.4326H70.5306V80.2285H80.8898V77.0877H70.5306V74.4428H85.298V62.1H85.1327C85.2429 61.6591 85.4082 61.2734 85.5735 60.8326C87.9429 53.4489 91.249 43.2551 84.4163 38.9571ZM83.7551 60.2265C83.5347 60.8877 83.3694 61.4938 83.149 62.1H51.851C51.6857 61.4938 51.4653 60.8877 51.2449 60.2265C49.0408 53.4489 45.9551 44.0816 51.5755 40.5551C53.7245 39.1775 55.7633 38.5163 57.802 38.5163C60.0061 38.5163 61.8796 39.3428 63.5878 40.004C64.9653 40.6102 66.2327 41.1061 67.5 41.1061C68.7673 41.1061 70.0347 40.5551 71.4123 40.004C73.0653 39.2877 74.9388 38.5163 77.198 38.5163C79.2367 38.5163 81.2755 39.1775 83.4245 40.5551C89.0449 44.0816 85.9592 53.4489 83.7551 60.2265Z" fill="#232323"/>
</g>
<defs>
<clipPath id="clip0_1_1764">
<rect width="135" height="135" fill="white"/>
</clipPath>
</defs>
</svg>
