<svg width="135" height="135" viewBox="0 0 135 135" fill="none" xmlns="http://www.w3.org/2000/svg">
<g clip-path="url(#clip0_1_1765)">
<path d="M47.4383 84.2317C47.1108 84.5592 46.8379 84.8322 46.5103 85.1051C46.1828 85.3781 45.9098 85.651 45.6915 85.9786C45.2548 86.6336 44.818 87.2341 44.3813 87.8346C43.5625 88.981 42.8528 90.0182 42.2523 90.837C41.6518 91.6559 41.2151 92.3656 40.9422 92.8023C40.8876 92.8569 40.8876 92.9115 40.833 92.966C40.5601 92.8569 39.9596 92.6385 39.1407 92.5293C38.977 92.5293 38.8678 92.5293 38.704 92.4747C38.5402 92.4747 38.3765 92.4747 38.2127 92.4747C37.8852 92.4747 37.503 92.5293 37.1209 92.6931C36.9571 92.7477 36.7388 92.8569 36.575 92.966C36.4112 93.0752 36.1383 93.239 36.0837 93.3482L35.9745 93.4573L35.9199 93.5119L35.8654 93.5665L35.8108 93.6211C35.7562 93.7303 35.647 93.8395 35.5924 93.8941C35.4832 94.1124 35.4286 94.3308 35.374 94.5491C35.2103 95.368 35.374 96.1868 35.5378 96.8419C35.7016 97.5516 35.9199 98.1521 36.1383 98.6979C36.5204 99.7352 36.9026 100.39 36.9026 100.39L37.0117 100.336C37.0117 100.336 36.7388 99.626 36.4658 98.5342C36.3567 97.9883 36.1929 97.3878 36.0837 96.6781C35.9745 96.0231 35.9745 95.2588 36.1383 94.6583C36.1929 94.4945 36.2475 94.3854 36.3021 94.2762C36.3567 94.2216 36.3567 94.167 36.4112 94.1124L36.575 94.0032C36.7388 93.8395 36.848 93.8395 36.9571 93.7849C37.1209 93.7303 37.2301 93.6757 37.3939 93.6211C37.6668 93.5119 37.9943 93.4574 38.2673 93.4028C40.0142 93.0206 40.3963 93.5119 41.1605 93.0752C41.6518 92.8023 42.3069 92.311 43.1258 91.7651C43.9446 91.1646 44.9818 90.5095 46.1282 89.6361C46.7287 89.1994 47.3292 88.7626 47.9842 88.3259C48.3118 88.1076 48.5847 87.8346 48.8577 87.5071C49.1306 87.1795 49.4582 86.9066 49.7311 86.5791C51.4234 84.8868 53.2794 83.0307 55.2992 81.0109L52.9519 78.6636C51.0413 80.6288 49.1306 82.5394 47.4383 84.2317Z" fill="#232323"/>
<path d="M87.1795 49.1852C87.5071 48.8577 87.78 48.5848 88.1076 48.3118C88.4351 48.0389 88.7081 47.7659 88.9264 47.4384C89.3631 46.7833 89.7998 46.1828 90.2366 45.5823C91.0554 44.436 91.7651 43.3988 92.3656 42.5799C92.966 41.7611 93.4028 41.0514 93.6757 40.6147C93.7303 40.5601 93.7303 40.5055 93.7849 40.4509C94.0578 40.5601 94.6583 40.7785 95.4772 40.8876C95.6409 40.8876 95.7501 40.8876 95.9139 40.9422C96.0776 40.9422 96.2414 40.9422 96.4052 40.9422C96.7327 40.9422 97.1149 40.8876 97.497 40.7239C97.6608 40.6693 97.8791 40.5601 98.0429 40.4509C98.2066 40.3417 98.4796 40.178 98.5888 40.0688L98.698 39.9596L98.7525 39.905L98.8071 39.8504L98.8617 39.7958C98.9163 39.6867 99.0255 39.5775 99.0801 39.5229C99.1893 39.3045 99.2438 39.0862 99.2984 38.8678C99.4622 38.049 99.2984 37.2301 99.1347 36.5751C98.9709 35.8654 98.7525 35.2649 98.5342 34.719C98.1521 33.6818 97.7699 33.0267 97.7699 33.0267L97.6607 33.0813C97.6607 33.0813 97.9337 33.791 98.2066 34.8828C98.3158 35.4287 98.4796 36.0292 98.5888 36.7388C98.698 37.3939 98.698 38.1582 98.5342 38.7586C98.4796 38.9224 98.425 39.0316 98.3704 39.1408C98.3158 39.1954 98.3158 39.2499 98.2612 39.3045L98.0975 39.4137C97.9337 39.5775 97.8245 39.5775 97.7153 39.6321C97.5516 39.6867 97.4424 39.7413 97.2786 39.7958C97.0057 39.905 96.6781 39.9596 96.4052 40.0142C94.6583 40.3963 94.2762 39.905 93.5119 40.3417C93.0206 40.6147 92.3656 41.106 91.5467 41.6519C90.7279 42.2524 89.6907 42.9074 88.5443 43.7809C87.9438 44.2176 87.3433 44.6543 86.6882 45.091C86.3607 45.3094 86.0878 45.5823 85.8148 45.9099C85.5419 46.2374 85.2143 46.5104 84.9414 46.8379C83.2491 48.5302 81.393 50.3862 79.3732 52.406L81.7206 54.7534C83.5766 52.7882 85.4873 50.8775 87.1795 49.1852Z" fill="#232323"/>
<path d="M62.2867 69.3833C62.0683 69.6017 61.9046 69.7654 61.6862 69.9838L64.0336 72.3311C64.2519 72.1128 64.4157 71.949 64.6341 71.7307L62.2867 69.3833Z" fill="#232323"/>
<path d="M66.0534 65.6166C65.835 65.8349 65.6713 65.9987 65.4529 66.2171L67.8003 68.5644C68.0186 68.3461 68.1824 68.1823 68.4007 67.9639L66.0534 65.6166Z" fill="#232323"/>
<path d="M61.5225 70.1476C61.3041 70.3659 61.1403 70.5297 60.922 70.7481L63.2693 73.0954C63.4877 72.8771 63.6514 72.7133 63.8698 72.4949L61.5225 70.1476Z" fill="#232323"/>
<path d="M63.051 68.619C62.8326 68.8374 62.6689 69.0011 62.4505 69.2195L64.7979 71.5669C65.0162 71.3485 65.18 71.1847 65.3983 70.9664L63.051 68.619Z" fill="#232323"/>
<path d="M63.8152 67.8547C63.5968 68.0731 63.4331 68.2369 63.2147 68.4552L65.5621 70.8026C65.7804 70.5842 65.9442 70.4205 66.1625 70.2021L63.8152 67.8547Z" fill="#232323"/>
<path d="M65.2891 66.3809C65.0708 66.5992 64.907 66.763 64.6887 66.9813L67.036 69.3287C67.2544 69.1103 67.4181 68.9466 67.6365 68.7282L65.2891 66.3809Z" fill="#232323"/>
<path d="M60.8128 70.9119C60.5944 71.1302 60.4307 71.294 60.2123 71.5124L62.5597 73.8597C62.778 73.6413 62.9418 73.4776 63.1601 73.2592L60.8128 70.9119Z" fill="#232323"/>
<path d="M57.2645 79.1003C57.4828 78.8819 57.6466 78.7182 57.8649 78.4998L55.5176 76.1525C55.2992 76.3708 55.1355 76.5346 54.9171 76.753L57.2645 79.1003Z" fill="#232323"/>
<path d="M66.8176 64.8524C66.5993 65.0708 66.4355 65.2345 66.2172 65.4529L68.5645 67.8002C68.7829 67.5819 68.9466 67.4181 69.165 67.1998L66.8176 64.8524Z" fill="#232323"/>
<path d="M60.0485 71.6215C59.8302 71.8398 59.6664 72.0036 59.4481 72.2219L61.7954 74.5693C62.0138 74.3509 62.1775 74.1872 62.3959 73.9688L60.0485 71.6215Z" fill="#232323"/>
<path d="M56.2818 75.4427C56.0635 75.6611 55.8997 75.8249 55.6814 76.0432L58.0287 78.3906C58.2471 78.1722 58.4108 78.0085 58.6292 77.7901L56.2818 75.4427Z" fill="#232323"/>
<path d="M56.9915 74.6785C56.7732 74.8968 56.6094 75.0606 56.3911 75.2789L58.7384 77.6263C58.9568 77.4079 59.1205 77.2442 59.3389 77.0258L56.9915 74.6785Z" fill="#232323"/>
<path d="M59.2843 72.3857C59.0659 72.6041 58.9021 72.7679 58.6838 72.9862L61.0311 75.3336C61.2495 75.1152 61.4133 74.9514 61.6316 74.7331L59.2843 72.3857Z" fill="#232323"/>
<path d="M57.7558 73.9142C57.5374 74.1325 57.3737 74.2963 57.1553 74.5147L59.5027 76.862C59.721 76.6437 59.8848 76.4799 60.1031 76.2615L57.7558 73.9142Z" fill="#232323"/>
<path d="M58.52 73.15C58.3017 73.3684 58.1379 73.5322 57.9196 73.7505L60.2669 76.0979C60.4853 75.8795 60.649 75.7157 60.8674 75.4974L58.52 73.15Z" fill="#232323"/>
<path d="M64.5795 67.1451C64.3611 67.3635 64.1974 67.5273 63.979 67.7456L66.3264 70.093C66.5447 69.8746 66.7085 69.7109 66.9268 69.4925L64.5795 67.1451Z" fill="#232323"/>
<path d="M75.8795 55.7905C75.6612 56.0089 75.4974 56.1727 75.2791 56.391L77.6264 58.7384C77.8448 58.52 78.0085 58.3562 78.2269 58.1379L75.8795 55.7905Z" fill="#232323"/>
<path d="M76.6438 55.0262C76.4254 55.2446 76.2616 55.4084 76.0433 55.6267L78.3906 57.9741C78.609 57.7557 78.7727 57.5919 78.9911 57.3736L76.6438 55.0262Z" fill="#232323"/>
<path d="M75.1153 56.5548C74.8969 56.7732 74.7331 56.9369 74.5148 57.1553L76.8621 59.5026C77.0805 59.2843 77.2442 59.1205 77.4626 58.9022L75.1153 56.5548Z" fill="#232323"/>
<path d="M74.351 57.3191C74.1327 57.5375 73.9689 57.7012 73.7505 57.9196L76.0979 60.2669C76.3162 60.0486 76.48 59.8848 76.6984 59.6664L74.351 57.3191Z" fill="#232323"/>
<path d="M77.408 54.3167C77.1897 54.535 77.0259 54.6988 76.8076 54.9171L79.1549 57.2645C79.3733 57.0461 79.537 56.8824 79.7554 56.664L77.408 54.3167Z" fill="#232323"/>
<path d="M77.5172 54.1528L79.8645 56.5002C80.1375 56.2272 80.4104 55.9543 80.6834 55.6813L78.336 53.334C78.1177 53.6069 77.7901 53.8799 77.5172 54.1528Z" fill="#232323"/>
<path d="M54.7534 76.9166C54.4804 77.1896 54.2075 77.4625 53.9345 77.7355L56.2819 80.0828C56.5548 79.8099 56.8277 79.5369 57.1007 79.264L54.7534 76.9166Z" fill="#232323"/>
<path d="M67.5819 64.0881C67.3635 64.3065 67.1998 64.4703 66.9814 64.6886L69.3288 67.036C69.5471 66.8176 69.7109 66.6538 69.9293 66.4355L67.5819 64.0881Z" fill="#232323"/>
<path d="M73.6413 58.0833C73.423 58.3016 73.2592 58.4654 73.0409 58.6837L75.3882 61.0311C75.6066 60.8127 75.7703 60.649 75.9887 60.4306L73.6413 58.0833Z" fill="#232323"/>
<path d="M69.8201 61.85C69.6017 62.0683 69.4379 62.2321 69.2196 62.4505L71.5669 64.7978C71.7853 64.5794 71.949 64.4157 72.1674 64.1973L69.8201 61.85Z" fill="#232323"/>
<path d="M72.8771 58.793C72.6587 59.0113 72.495 59.1751 72.2766 59.3935L74.624 61.7408C74.8423 61.5224 75.0061 61.3587 75.2245 61.1403L72.8771 58.793Z" fill="#232323"/>
<path d="M68.3462 63.3239C68.1278 63.5422 67.964 63.706 67.7457 63.9243L70.093 66.2717C70.3114 66.0533 70.4751 65.8896 70.6935 65.6712L68.3462 63.3239Z" fill="#232323"/>
<path d="M69.1104 62.6143C68.892 62.8326 68.7283 62.9964 68.5099 63.2147L70.8573 65.5621C71.0756 65.3437 71.2394 65.18 71.4577 64.9616L69.1104 62.6143Z" fill="#232323"/>
<path d="M72.1128 59.5571C71.8945 59.7755 71.7307 59.9393 71.5123 60.1576L73.8597 62.505C74.0781 62.2866 74.2418 62.1228 74.4602 61.9045L72.1128 59.5571Z" fill="#232323"/>
<path d="M71.3486 60.3214C71.1302 60.5398 70.9665 60.7035 70.7481 60.9219L73.0955 63.2692C73.3138 63.0509 73.4776 62.8871 73.6959 62.6688L71.3486 60.3214Z" fill="#232323"/>
<path d="M70.5843 61.0857C70.366 61.3041 70.2022 61.4678 69.9839 61.6862L72.3312 64.0335C72.5496 63.8152 72.7134 63.6514 72.9317 63.433L70.5843 61.0857Z" fill="#232323"/>
<path d="M77.6809 74.7332C77.4626 74.5148 77.2988 74.351 77.0804 74.1327L74.7331 76.48C74.9515 76.6984 75.1152 76.8622 75.3336 77.0805L77.6809 74.7332Z" fill="#232323"/>
<path d="M81.5022 78.4999C81.2838 78.2815 81.1201 78.1178 80.9017 77.8994L78.5544 80.2468C78.7727 80.4651 78.9365 80.6289 79.1548 80.8473L81.5022 78.4999Z" fill="#232323"/>
<path d="M76.9713 74.0235C76.7529 73.8051 76.5891 73.6413 76.3708 73.423L74.0234 75.7703C74.2418 75.9887 74.4056 76.1525 74.6239 76.3708L76.9713 74.0235Z" fill="#232323"/>
<path d="M78.4452 75.4975C78.2268 75.2791 78.0631 75.1153 77.8447 74.897L75.4973 77.2443C75.7157 77.4627 75.8795 77.6265 76.0978 77.8448L78.4452 75.4975Z" fill="#232323"/>
<path d="M79.2094 76.2617C78.9911 76.0434 78.8273 75.8796 78.609 75.6613L76.2616 78.0086C76.48 78.2269 76.6437 78.3907 76.8621 78.6091L79.2094 76.2617Z" fill="#232323"/>
<path d="M80.7379 77.7902C80.5196 77.5718 80.3558 77.4081 80.1375 77.1897L77.7901 79.537C78.0085 79.7554 78.1722 79.9192 78.3906 80.1375L80.7379 77.7902Z" fill="#232323"/>
<path d="M76.207 73.2593C75.9887 73.0409 75.8249 72.8772 75.6065 72.6588L73.2592 75.0062C73.4775 75.2245 73.6413 75.3883 73.8597 75.6067L76.207 73.2593Z" fill="#232323"/>
<path d="M67.964 69.711C68.1823 69.9294 68.3461 70.0931 68.5645 70.3115L70.9118 67.9641C70.6935 67.7458 70.5297 67.582 70.3113 67.3636L67.964 69.711Z" fill="#232323"/>
<path d="M82.2119 79.2641C81.9935 79.0457 81.8298 78.8819 81.6114 78.6636L79.264 81.0109C79.4824 81.2293 79.6462 81.3931 79.8645 81.6114L82.2119 79.2641Z" fill="#232323"/>
<path d="M75.4427 72.495C75.2244 72.2767 75.0606 72.1129 74.8423 71.8945L72.4949 74.2419C72.7133 74.4602 72.877 74.624 73.0954 74.8424L75.4427 72.495Z" fill="#232323"/>
<path d="M71.6761 68.7283C71.4577 68.5099 71.2939 68.3462 71.0756 68.1278L68.7282 70.4752C68.9466 70.6935 69.1104 70.8573 69.3287 71.0756L71.6761 68.7283Z" fill="#232323"/>
<path d="M72.4403 69.4926C72.222 69.2742 72.0582 69.1104 71.8398 68.8921L69.4925 71.2394C69.7109 71.4578 69.8746 71.6216 70.093 71.8399L72.4403 69.4926Z" fill="#232323"/>
<path d="M74.6785 71.7307C74.4601 71.5124 74.2964 71.3486 74.078 71.1302L71.7307 73.4776C71.949 73.696 72.1128 73.8597 72.3311 74.0781L74.6785 71.7307Z" fill="#232323"/>
<path d="M73.2046 70.2023C72.9863 69.9839 72.8225 69.8202 72.6041 69.6018L70.2568 71.9492C70.4751 72.1675 70.6389 72.3313 70.8573 72.5496L73.2046 70.2023Z" fill="#232323"/>
<path d="M73.9143 70.9665C73.6959 70.7481 73.5321 70.5843 73.3138 70.366L70.9664 72.7133C71.1848 72.9317 71.3486 73.0955 71.5669 73.3138L73.9143 70.9665Z" fill="#232323"/>
<path d="M79.9737 77.0259C79.7553 76.8075 79.5916 76.6438 79.3732 76.4254L77.0258 78.7728C77.2442 78.9911 77.408 79.1549 77.6263 79.3732L79.9737 77.0259Z" fill="#232323"/>
<path d="M91.2737 88.326C91.0554 88.1076 90.8916 87.9438 90.6732 87.7255L88.3259 90.0728C88.5443 90.2912 88.708 90.4549 88.9264 90.6733L91.2737 88.326Z" fill="#232323"/>
<path d="M92.038 89.0902C91.8196 88.8719 91.6559 88.7081 91.4375 88.4897L89.0901 90.8371C89.3085 91.0554 89.4723 91.2192 89.6906 91.4376L92.038 89.0902Z" fill="#232323"/>
<path d="M90.5095 87.5618C90.2911 87.3434 90.1274 87.1797 89.909 86.9613L87.5616 89.3087C87.78 89.527 87.9438 89.6908 88.1621 89.9091L90.5095 87.5618Z" fill="#232323"/>
<path d="M89.7998 86.8521C89.5814 86.6337 89.4177 86.4699 89.1993 86.2516L86.852 88.5989C87.0703 88.8173 87.2341 88.9811 87.4524 89.1994L89.7998 86.8521Z" fill="#232323"/>
<path d="M92.8022 89.8545C92.5839 89.6362 92.4201 89.4724 92.2017 89.254L89.8544 91.6014C90.0728 91.8197 90.2365 91.9835 90.4549 92.2019L92.8022 89.8545Z" fill="#232323"/>
<path d="M92.966 89.9637L90.6187 92.3111C90.8916 92.584 91.1646 92.857 91.4375 93.1299L93.7849 90.7826C93.5119 90.5642 93.239 90.2913 92.966 89.9637Z" fill="#232323"/>
<path d="M70.1476 67.1998C69.8746 66.9269 69.6017 66.6539 69.3287 66.381L66.9814 68.7283C67.2543 69.0013 67.5273 69.2742 67.8002 69.5472L70.1476 67.1998Z" fill="#232323"/>
<path d="M82.9761 80.0283C82.7578 79.81 82.594 79.6462 82.3756 79.4279L80.0283 81.7752C80.2466 81.9936 80.4104 82.1573 80.6288 82.3757L82.9761 80.0283Z" fill="#232323"/>
<path d="M89.0356 86.0878C88.8172 85.8694 88.6534 85.7057 88.4351 85.4873L86.0877 87.8347C86.3061 88.053 86.4698 88.2168 86.6882 88.4351L89.0356 86.0878Z" fill="#232323"/>
<path d="M85.2689 82.3212C85.0505 82.1028 84.8867 81.9391 84.6684 81.7207L82.321 84.0681C82.5394 84.2864 82.7032 84.4502 82.9215 84.6685L85.2689 82.3212Z" fill="#232323"/>
<path d="M88.2713 85.3236C88.0529 85.1053 87.8892 84.9415 87.6708 84.7231L85.3235 87.0705C85.5418 87.2889 85.7056 87.4526 85.9239 87.671L88.2713 85.3236Z" fill="#232323"/>
<path d="M83.7404 80.7926C83.522 80.5743 83.3583 80.4105 83.1399 80.1921L80.7925 82.5395C81.0109 82.7579 81.1747 82.9216 81.393 83.14L83.7404 80.7926Z" fill="#232323"/>
<path d="M84.5046 81.5569C84.2863 81.3385 84.1225 81.1748 83.9041 80.9564L81.5568 83.3038C81.7752 83.5221 81.9389 83.6859 82.1573 83.9043L84.5046 81.5569Z" fill="#232323"/>
<path d="M87.507 84.5593C87.2887 84.341 87.1249 84.1772 86.9066 83.9589L84.5592 86.3062C84.7776 86.5246 84.9413 86.6883 85.1597 86.9067L87.507 84.5593Z" fill="#232323"/>
<path d="M86.7428 83.7951C86.5244 83.5767 86.3607 83.4129 86.1423 83.1946L83.795 85.5419C84.0133 85.7603 84.1771 85.9241 84.3955 86.1424L86.7428 83.7951Z" fill="#232323"/>
<path d="M85.9785 83.0308C85.7602 82.8124 85.5964 82.6487 85.378 82.4303L83.0307 84.7776C83.2491 84.996 83.4128 85.1598 83.6312 85.3781L85.9785 83.0308Z" fill="#232323"/>
<path d="M100.772 97.8246C100.609 97.6608 100.39 97.4425 100.226 97.2787C98.5342 95.5864 96.6781 93.7304 94.6583 91.7106L92.3109 94.0579C94.3308 96.0777 96.1868 97.9338 97.8791 99.6261C98.0429 99.7898 98.2612 100.008 98.425 100.172L100.772 97.8246Z" fill="#232323"/>
<path d="M54.6441 51.751L52.3514 54.0437C52.5697 54.3713 64.0881 65.8351 66.108 67.8549L68.4553 65.5075C66.4355 63.4877 54.9717 51.9693 54.6441 51.751Z" fill="#232323"/>
<path d="M44.9272 43.4534L44.1084 44.2722C44.2721 44.436 51.478 51.6964 52.7881 52.952L53.6615 52.0785C52.3514 50.8776 45.091 43.6171 44.9272 43.4534Z" fill="#232323"/>
<path d="M44.0538 43.4533C41.7064 45.8007 37.9397 45.8007 35.5924 43.4533C33.245 41.106 33.245 37.3393 35.5924 34.992C37.9397 32.6446 41.7064 32.6446 44.0538 34.992C46.4011 37.3393 46.4011 41.106 44.0538 43.4533Z" fill="#232323"/>
<path d="M43.1803 42.5799C41.3243 44.436 38.3219 44.436 36.4658 42.5799C34.6098 40.7239 34.6098 37.7215 36.4658 35.8654C38.3219 34.0094 41.3243 34.0094 43.1803 35.8654C45.0364 37.7215 45.0364 40.7239 43.1803 42.5799Z" fill="#F0F0F0"/>
<path d="M134.236 70.5844C134.563 70.2022 135 69.5471 135 68.5645C135 68.237 134.945 67.8549 134.836 67.4727C134.727 67.036 134.509 66.5993 134.236 66.2172C134.563 65.8351 134.945 65.1254 134.945 64.1428C134.891 63.3785 134.563 62.6143 134.017 61.85C134.29 61.4133 134.672 60.7036 134.563 59.721C134.454 58.9568 134.127 58.1925 133.526 57.4828C133.799 57.0461 134.072 56.2819 133.908 55.3539C133.854 55.0263 133.744 54.6442 133.581 54.3167C133.417 53.9345 133.089 53.5524 132.762 53.1703C132.98 52.7336 133.253 51.9693 133.035 51.0413C132.871 50.277 132.38 49.6219 131.725 48.9669C131.943 48.5302 132.161 47.7113 131.834 46.7833C131.615 46.0736 131.124 45.364 130.36 44.7635C130.524 44.2722 130.687 43.5079 130.305 42.6345C130.196 42.3069 129.978 41.9794 129.759 41.7065C129.486 41.3789 129.159 41.0514 128.722 40.7238C128.886 40.2325 128.941 39.4683 128.558 38.5403C128.231 37.8306 127.63 37.2847 126.866 36.7388C126.975 36.2475 127.03 35.4287 126.539 34.6098C126.156 33.9547 125.556 33.4088 124.737 32.9175C124.792 32.4262 124.792 31.6074 124.246 30.7885C124.082 30.5156 123.809 30.2426 123.536 29.9697C123.209 29.6968 122.772 29.4238 122.335 29.2054C122.39 28.7141 122.335 27.8953 121.735 27.131C121.298 26.5306 120.588 26.0392 119.715 25.7117C119.715 25.2204 119.606 24.4016 119.005 23.6919C118.514 23.0914 117.804 22.6547 116.931 22.3818C116.876 21.8904 116.712 21.1262 116.057 20.4165C115.839 20.1436 115.512 19.9252 115.239 19.7614C114.856 19.5431 114.42 19.3793 113.874 19.2701C113.819 18.7788 113.601 18.0146 112.891 17.3595C112.345 16.8682 111.526 16.5407 110.598 16.3769C110.544 15.8856 110.271 15.1213 109.507 14.5209C108.906 14.0841 108.142 13.7566 107.214 13.6474C107.105 13.1561 106.777 12.4464 105.958 11.846C105.685 11.6276 105.358 11.4638 104.976 11.3547C104.539 11.2455 104.102 11.1363 103.556 11.1363C103.393 10.645 103.065 9.93533 102.192 9.44402C101.537 9.06189 100.718 8.89812 99.7897 8.89812C99.6259 8.40682 99.1892 7.75174 98.3158 7.31503C97.6607 6.98749 96.8419 6.82372 95.8593 6.9329C95.6409 6.49618 95.2042 5.84111 94.3307 5.40439C94.0032 5.24062 93.6757 5.18603 93.2935 5.13144C92.8568 5.07685 92.3655 5.13144 91.8742 5.18603C91.6559 4.74932 91.1646 4.09424 90.2365 3.7667C89.5269 3.49376 88.708 3.49376 87.78 3.71212C87.5071 3.2754 86.9612 2.7295 86.0331 2.45655C85.3235 2.2382 84.5046 2.2382 83.5766 2.56573C83.2491 2.18361 82.7032 1.63771 81.7752 1.41935C81.4476 1.36476 81.0655 1.31017 80.6834 1.36476C80.2466 1.41935 79.8099 1.52853 79.3186 1.6923C78.9911 1.31017 78.3906 0.764278 77.408 0.655099C76.6437 0.54592 75.8249 0.709689 74.9515 1.09182C74.6239 0.709689 73.9688 0.272972 72.9862 0.163793C72.222 0.109203 71.4031 0.272972 70.5843 0.709689C70.2022 0.382151 69.5471 -0.0545654 68.5645 -0.0545654C68.2369 -0.0545654 67.8548 2.41511e-05 67.4727 0.109203C67.036 0.218382 66.5993 0.436741 66.1625 0.709689C65.7804 0.382151 65.0707 2.41473e-05 64.0881 0.0546137C63.3239 0.109203 62.5596 0.436741 61.7954 0.928047C61.3587 0.655099 60.649 0.272972 59.721 0.382151C58.9567 0.49133 58.1925 0.818868 57.4828 1.41935C57.0461 1.14641 56.2818 0.873457 55.3538 1.03723C55.0263 1.09182 54.6987 1.20099 54.3166 1.36476C53.9345 1.52853 53.5523 1.85607 53.1702 2.18361C52.7335 1.96525 51.9692 1.6923 51.0412 1.91066C50.3316 2.07443 49.6219 2.56573 48.9668 3.22081C48.4755 3.00245 47.7113 2.78409 46.7832 3.11163C46.0736 3.32999 45.4185 3.82129 44.7634 4.53096C44.2721 4.36719 43.5079 4.20342 42.5798 4.58555C42.2523 4.69473 41.9794 4.91309 41.6518 5.13144C41.2697 5.40439 40.9967 5.73193 40.6692 6.16865C40.1779 6.00488 39.4136 5.95029 38.4856 6.33242C37.776 6.65995 37.1755 7.26044 36.6842 8.02469C36.1929 7.91551 35.374 7.86092 34.5552 8.35223C33.9001 8.73436 33.3542 9.33484 32.8629 10.1537C32.3716 10.0445 31.5527 10.0991 30.7339 10.645C30.461 10.8088 30.188 11.0817 29.9151 11.3547C29.6421 11.6822 29.3692 12.1189 29.1508 12.5556C28.6595 12.501 27.8407 12.5556 27.0764 13.1561C26.4759 13.5928 25.9846 14.3025 25.6571 15.1759C25.1658 15.1759 24.3469 15.2851 23.6373 15.8856C23.0368 16.3769 22.6001 17.0866 22.3271 17.96C21.8358 18.0146 21.0716 18.1784 20.3619 18.8334C20.0889 19.0518 19.8706 19.3793 19.7068 19.7069C19.4885 20.089 19.3247 20.5257 19.2155 21.017C18.7242 21.0716 17.9599 21.29 17.3049 21.9996C16.8136 22.5455 16.486 23.3098 16.3223 24.2378C15.831 24.2924 15.0667 24.5653 14.4662 25.3296C13.9749 25.9301 13.702 26.6943 13.5928 27.6223C13.1015 27.7315 12.3918 28.0591 11.8459 28.8779C11.6276 29.1509 11.4638 29.4784 11.3546 29.8605C11.2454 30.2972 11.1363 30.734 11.1363 31.2799C10.6449 31.4436 9.93528 31.7712 9.44397 32.6446C9.06185 33.2997 8.89808 34.1185 8.89808 35.0465C8.40677 35.2103 7.7517 35.647 7.31498 36.5205C6.98744 37.1755 6.82368 37.9944 6.93286 38.977C6.49614 39.1953 5.84106 39.6321 5.40435 40.5055C5.24058 40.833 5.18599 41.1606 5.1314 41.5427C5.07681 41.9794 5.07681 42.4707 5.18599 42.962C4.74927 43.235 4.0942 43.6717 3.76666 44.5997C3.5483 45.3094 3.49371 46.1282 3.71207 47.0562C3.27535 47.3292 2.72946 47.8751 2.45651 48.8031C2.23815 49.5128 2.23815 50.3862 2.56569 51.2596C2.18356 51.5872 1.63767 52.1331 1.36472 53.0611C1.31013 53.3886 1.25554 53.7708 1.31013 54.1529C1.36472 54.5896 1.4739 55.0809 1.63767 55.5176C1.25554 55.8452 0.709645 56.4456 0.545876 57.4283C0.436697 58.1925 0.600466 59.0114 0.982593 59.8302C0.600466 60.1577 0.16375 60.8128 0.0545704 61.7954C-1.9148e-05 62.5597 0.16375 63.3785 0.600466 64.1974C0.272929 64.5795 -0.163788 65.2346 -0.163788 66.2172C-0.163788 66.5447 -0.109198 66.9268 -1.9148e-05 67.309C0.10916 67.7457 0.327518 68.1824 0.600466 68.6191C0.272929 69.0012 -0.109198 69.7109 -0.0546087 70.6935C-1.91331e-05 71.4578 0.327518 72.222 0.873414 72.9863C0.600466 73.423 0.218339 74.1327 0.327518 75.1153C0.436697 75.8795 0.764235 76.6438 1.36472 77.3535C1.09177 77.7902 0.818824 78.5544 0.982593 79.4825C1.03718 79.81 1.14636 80.1921 1.31013 80.5197L2.07438 80.3559C1.85603 80.0283 1.74685 79.7008 1.69226 79.3733C1.52849 78.4452 1.91062 77.8448 2.12897 77.5718C2.40192 77.2989 3.76666 75.9341 5.24058 74.624C6.65991 73.3138 8.29759 72.0583 8.7889 71.6761C9.22562 72.222 9.44397 72.7133 9.44397 73.2047C9.55315 74.0235 9.11644 74.5694 8.89808 74.7332C8.67972 74.8969 7.69711 75.7704 6.60532 76.8076C5.51353 77.8448 4.25797 79.1003 3.43912 80.0284L4.20338 79.8646L3.5483 80.2467C3.16618 80.6834 2.83864 81.011 2.67487 81.1747C2.45651 80.9564 2.29274 80.738 2.18356 80.5197L1.41931 80.6834C1.58308 81.0656 1.91062 81.4477 2.23815 81.8298C2.01979 82.2665 1.74685 83.0308 1.9652 84.0134C2.12897 84.723 2.62028 85.4327 3.27535 86.0878C3.057 86.5791 2.83864 87.3433 3.16618 88.2714C3.38453 88.981 3.87584 89.6907 4.64009 90.2912C4.42174 90.7825 4.31256 91.5467 4.69468 92.4202C4.80386 92.7477 5.02222 93.0753 5.24058 93.3482C5.51353 93.6757 5.84106 94.0033 6.27778 94.3308C6.11401 94.8221 6.05942 95.5864 6.44155 96.5144C6.76909 97.2241 7.36957 97.8245 8.13383 98.3159C8.02465 98.8072 7.97006 99.626 8.46136 100.445C8.84349 101.1 9.44397 101.646 10.2628 102.137C10.1536 102.628 10.2082 103.447 10.7541 104.266C10.9725 104.539 11.1908 104.812 11.4638 105.085C11.7913 105.358 12.228 105.631 12.6648 105.849C12.6102 106.341 12.6648 107.159 13.2652 107.924C13.702 108.524 14.4116 109.015 15.2851 109.343C15.2851 109.834 15.3942 110.653 15.9947 111.363C16.486 111.909 17.1957 112.4 18.0691 112.673C18.1237 113.164 18.2875 113.928 18.9426 114.638C19.1609 114.911 19.4885 115.129 19.7614 115.293C20.1435 115.512 20.5802 115.675 21.0716 115.785C21.1261 116.276 21.3445 117.04 22.0542 117.75C22.6546 118.241 23.4189 118.569 24.3469 118.732C24.4015 119.224 24.6745 119.988 25.4387 120.588C26.0392 121.025 26.8035 121.353 27.7315 121.462C27.8407 121.953 28.1682 122.663 28.987 123.263C29.26 123.482 29.5875 123.645 29.9697 123.755C30.4064 123.864 30.8431 123.973 31.389 123.973C31.5527 124.464 31.8803 125.174 32.7537 125.665C33.4088 126.047 34.2276 126.211 35.1557 126.211C35.3194 126.702 35.7561 127.358 36.6296 127.794C37.2847 128.122 38.1035 128.286 39.0861 128.176C39.3045 128.668 39.7412 129.268 40.6146 129.705C40.9422 129.869 41.2697 129.923 41.6518 129.978C42.0885 130.032 42.5798 130.032 43.0711 129.923C43.2895 130.36 43.7808 131.015 44.7088 131.343C45.4185 131.615 46.2373 131.615 47.1654 131.397C47.4383 131.834 47.9842 132.434 48.9122 132.653C49.6219 132.871 50.4407 132.871 51.3688 132.544C51.6963 132.926 52.2422 133.472 53.1702 133.69C53.4978 133.744 53.8799 133.799 54.262 133.744C54.6987 133.69 55.1354 133.581 55.6267 133.417C55.9543 133.799 56.5548 134.345 57.5374 134.454C58.3016 134.563 59.1205 134.4 59.9939 134.017C60.376 134.4 60.9765 134.836 61.9591 134.945C62.7234 135 63.5422 134.836 64.3611 134.4C64.7432 134.727 65.3983 135.164 66.3809 135.164C66.7084 135.164 67.0906 135.109 67.4727 135C67.9094 134.891 68.3461 134.673 68.7828 134.4C69.165 134.727 69.8746 135.109 70.8572 135.055C71.6215 135 72.3857 134.673 73.15 134.127C73.5867 134.4 74.2964 134.782 75.2244 134.673C75.9887 134.563 76.7529 134.236 77.4626 133.635C77.8993 133.908 78.609 134.181 79.5916 134.017C79.9191 133.963 80.3012 133.854 80.6288 133.69C81.0109 133.526 81.393 133.199 81.7752 132.871C82.2119 133.089 82.9761 133.362 83.9041 133.144C84.6138 132.98 85.3235 132.489 85.9785 131.834C86.4698 132.052 87.2341 132.271 88.1621 131.943C88.8718 131.725 89.5269 131.233 90.1819 130.524C90.6732 130.742 91.4375 130.797 92.3655 130.469C92.6931 130.36 93.0206 130.142 93.2935 129.923C93.6211 129.65 93.9486 129.323 94.2762 128.886C94.7675 129.05 95.5863 129.104 96.4597 128.722C97.1694 128.395 97.7153 127.794 98.2612 127.03C98.7525 127.139 99.5713 127.194 100.39 126.702C101.045 126.32 101.591 125.72 102.082 124.901C102.574 125.01 103.393 124.956 104.211 124.41C104.484 124.191 104.757 123.973 105.03 123.7C105.303 123.372 105.576 122.936 105.795 122.499C106.286 122.554 107.105 122.499 107.869 121.899C108.469 121.462 108.961 120.752 109.288 119.879C109.78 119.879 110.598 119.77 111.308 119.169C111.854 118.678 112.345 117.968 112.618 117.095C113.11 117.04 113.874 116.876 114.583 116.221C114.856 116.003 115.075 115.675 115.239 115.348C115.457 114.966 115.621 114.529 115.73 114.038C116.221 113.983 116.985 113.765 117.64 113.055C118.132 112.509 118.459 111.69 118.623 110.817C119.114 110.762 119.879 110.489 120.479 109.725C120.916 109.125 121.243 108.36 121.353 107.432C121.844 107.323 122.554 106.996 123.154 106.177C123.372 105.904 123.536 105.576 123.645 105.194C123.755 104.757 123.864 104.321 123.864 103.775C124.355 103.611 125.065 103.284 125.556 102.41C125.938 101.755 126.102 100.936 126.102 100.008C126.593 99.8444 127.248 99.4076 127.685 98.5342C128.013 97.8791 128.176 97.0603 128.067 96.0777C128.504 95.8593 129.159 95.4226 129.596 94.5492C129.759 94.2216 129.814 93.8941 129.869 93.512C129.923 93.0753 129.869 92.5839 129.814 92.0926C130.251 91.8197 130.906 91.383 131.233 90.455C131.506 89.7453 131.506 88.9264 131.288 87.9984C131.725 87.7255 132.27 87.1796 132.543 86.2516C132.762 85.5419 132.762 84.6685 132.434 83.795C132.816 83.4675 133.362 82.9216 133.581 81.9936C133.635 81.666 133.69 81.2839 133.635 80.9018C133.581 80.4651 133.471 80.0283 133.308 79.537C133.69 79.2095 134.236 78.609 134.399 77.6264C134.509 76.8621 134.345 76.0433 133.963 75.1699C134.345 74.8423 134.782 74.1873 134.891 73.2047C134.836 72.222 134.672 71.4032 134.236 70.5844ZM133.471 70.2022C133.199 70.4206 131.561 71.5124 129.869 72.495C128.176 73.4776 126.429 74.4056 125.829 74.6786C125.501 74.0781 125.447 73.5322 125.447 73.0409C125.501 72.222 126.047 71.7853 126.266 71.6216C126.484 71.4578 127.685 70.8573 128.941 70.0385C130.196 69.2196 131.67 68.237 132.707 67.5273C133.144 67.1998 133.526 66.9268 133.69 66.7631C133.854 67.036 133.963 67.2544 134.072 67.5273C134.181 67.9095 134.236 68.237 134.236 68.5645C134.236 69.4926 133.69 70.0385 133.471 70.2022ZM134.181 64.1974C134.181 65.1254 133.69 65.7259 133.471 65.8896C133.253 66.0534 132.38 66.7085 131.342 67.4727C129.432 68.8375 126.866 70.4206 126.156 70.8027C125.829 70.2022 125.611 69.6563 125.665 69.165C125.665 68.3462 126.211 67.8549 126.429 67.6911C126.484 67.6365 126.648 67.5819 126.812 67.4182C127.521 66.9268 128.995 65.9442 130.36 64.8524C131.779 63.8152 132.98 62.7234 133.471 62.3413C133.963 63.051 134.181 63.6515 134.181 64.1974ZM133.854 59.8302C133.963 60.7582 133.471 61.3587 133.308 61.5771C133.035 61.85 131.561 63.1056 130.032 64.3065C128.449 65.5075 126.812 66.6539 126.266 66.9814C125.884 66.4355 125.665 65.8896 125.665 65.3983C125.665 64.5795 126.102 64.0882 126.32 63.8698C126.593 63.6515 128.067 62.5597 129.596 61.2495C131.07 59.994 132.543 58.5201 133.035 58.0833C133.526 58.6838 133.744 59.2843 133.854 59.8302ZM132.816 54.535C133.035 54.8625 133.144 55.1901 133.199 55.5176C133.362 56.4456 132.98 57.0461 132.762 57.2645C132.489 57.5374 131.124 58.9022 129.65 60.2123C128.231 61.5225 126.593 62.778 126.102 63.1602C125.665 62.6143 125.447 62.123 125.447 61.6317C125.338 60.8128 125.774 60.2669 125.993 60.1031C126.211 59.9394 127.194 59.0659 128.285 58.0287C129.377 56.9915 130.633 55.736 131.452 54.808C131.834 54.3712 132.161 54.0437 132.325 53.8799C132.543 54.0983 132.653 54.3167 132.816 54.535ZM132.27 51.2596C132.489 52.1877 132.107 52.8427 131.943 53.0611C131.779 53.2794 131.07 54.0983 130.141 55.0263C128.504 56.7732 126.375 58.793 125.72 59.2843C125.283 58.793 125.01 58.2471 124.901 57.8104C124.737 57.0461 125.174 56.4456 125.338 56.2273C125.392 56.1727 125.501 56.0635 125.665 55.8997C126.32 55.2993 127.521 54.0437 128.668 52.7336C129.869 51.4234 130.851 50.1133 131.233 49.6219C131.779 50.1678 132.161 50.7137 132.27 51.2596ZM129.978 45.5277C130.524 46.019 130.906 46.5103 131.07 47.0562C131.397 47.9297 131.015 48.6393 130.851 48.8577C130.633 49.1852 129.432 50.7137 128.176 52.1877C126.866 53.6616 125.501 55.0809 125.065 55.5722C124.573 55.0809 124.246 54.5896 124.137 54.1529C123.973 53.3886 124.355 52.7336 124.519 52.5698C124.737 52.2968 125.993 50.9321 127.194 49.349C128.449 47.7659 129.596 46.0736 129.978 45.5277ZM128.995 42.034L129.432 41.8702L128.995 42.034C129.268 42.3069 129.432 42.6345 129.596 42.9074C129.923 43.7809 129.65 44.4905 129.541 44.7089C129.323 45.0364 128.231 46.6195 127.084 48.2026C125.938 49.7857 124.573 51.3142 124.191 51.7509C123.7 51.3142 123.372 50.8229 123.209 50.3862C122.99 49.6219 123.263 49.0215 123.427 48.7485C123.591 48.5302 124.41 47.493 125.283 46.2374C126.156 45.0364 127.084 43.5079 127.74 42.4707C128.067 41.9794 128.285 41.5973 128.395 41.3789C128.668 41.6519 128.831 41.8156 128.995 42.034ZM126.539 37.5577C127.139 37.9398 127.63 38.4311 127.849 38.9224C128.231 39.7412 128.013 40.5055 127.903 40.7784C127.74 40.9968 127.248 41.9248 126.539 43.0712C125.283 45.091 123.536 47.493 123.045 48.148C122.499 47.7113 122.171 47.2746 121.953 46.8379C121.68 46.0736 121.953 45.4186 122.062 45.2002C122.117 45.1456 122.171 44.9818 122.335 44.8181C122.827 44.1084 123.755 42.6345 124.683 41.106C125.556 39.5775 126.266 38.049 126.539 37.5577ZM124.464 33.7364C125.119 34.1185 125.556 34.5552 125.829 35.0465C126.32 35.8654 126.102 36.575 125.993 36.848C125.829 37.1755 125.01 38.9224 124.027 40.6147C123.045 42.3615 121.953 43.9992 121.626 44.5451C121.025 44.163 120.643 43.7809 120.479 43.3441C120.152 42.6345 120.425 41.9248 120.534 41.7065C120.698 41.3789 121.626 39.7958 122.554 38.049C123.372 36.2475 124.191 34.3915 124.464 33.7364ZM121.735 31.2799C121.953 30.734 122.062 30.3518 122.171 30.0789C122.444 30.1881 122.663 30.3518 122.881 30.5156C123.209 30.734 123.427 31.0069 123.645 31.2799C124.137 32.0441 124.027 32.8084 123.918 33.0813C123.809 33.4088 122.99 35.2103 122.171 36.9572C121.353 38.704 120.315 40.5055 120.042 41.0514C119.442 40.7238 119.06 40.3417 118.841 39.905C118.459 39.1953 118.623 38.5403 118.732 38.2673C118.841 37.9944 119.442 36.848 120.097 35.4832C120.643 34.1185 121.298 32.4262 121.735 31.2799ZM119.551 26.5851C120.206 26.8581 120.752 27.2402 121.08 27.6769C121.626 28.4412 121.516 29.2054 121.462 29.4784C121.353 29.7513 121.025 30.7885 120.588 31.9895C119.769 34.2277 118.514 36.9026 118.132 37.6668C117.531 37.3393 117.095 37.0118 116.822 36.575C116.385 35.92 116.549 35.2103 116.658 34.9374C116.658 34.8828 116.767 34.719 116.822 34.5006L116.33 34.8282L116.822 34.5006C117.149 33.6818 117.804 32.0441 118.35 30.4064C119.005 28.7687 119.387 27.1856 119.551 26.5851ZM118.405 24.2924C119.005 25.002 118.951 25.7663 118.896 26.0393C118.787 26.4214 118.296 28.2774 117.695 30.1335C117.04 32.0441 116.33 33.9002 116.112 34.446C115.457 34.1731 115.02 33.8456 114.747 33.4634C114.311 32.8084 114.365 32.0987 114.474 31.8257C114.583 31.4982 115.184 29.7513 115.73 27.8407C116.221 25.9847 116.712 23.9103 116.822 23.2552C117.477 23.5281 118.023 23.8557 118.405 24.2924ZM113.601 21.3991C113.655 20.8532 113.71 20.4165 113.765 20.1436C114.038 20.1982 114.311 20.3073 114.529 20.4165C114.856 20.5803 115.184 20.7987 115.402 21.017C116.057 21.6721 116.057 22.4363 116.003 22.7093C115.948 23.0914 115.566 25.002 115.075 26.8581C114.638 28.7141 113.983 30.6794 113.765 31.2799C113.11 31.0615 112.673 30.7885 112.345 30.3518C111.799 29.7513 111.909 29.0417 111.909 28.7687C111.963 28.4958 112.345 27.2402 112.673 25.7663C113.055 24.4016 113.383 22.6547 113.601 21.3991ZM110.162 21.2354C110.435 19.4885 110.544 17.8508 110.598 17.2503C111.308 17.4141 111.909 17.6325 112.345 18.0146C113 18.6151 113.055 19.4339 113.055 19.7069C113 19.9798 112.891 21.0716 112.673 22.3818L113.164 21.8904L112.673 22.3818C112.291 24.7291 111.581 27.6223 111.363 28.3866C110.708 28.1682 110.216 27.9499 109.889 27.5678C109.343 27.0219 109.343 26.2576 109.397 25.9847C109.397 25.8755 109.452 25.7663 109.507 25.5479C109.616 24.7291 109.943 22.9822 110.162 21.2354ZM106.996 19.2156C107.159 17.3049 107.214 15.1759 107.214 14.5209C107.924 14.63 108.524 14.8484 108.961 15.1759C109.67 15.7218 109.78 16.4861 109.78 16.8136C109.78 17.1957 109.616 19.1064 109.397 21.0716C109.125 23.0368 108.797 25.0021 108.633 25.6025C107.978 25.4934 107.432 25.2204 107.105 24.8929C106.559 24.347 106.504 23.6373 106.504 23.3644C106.613 23.0368 106.886 21.1808 106.996 19.2156ZM103.666 12.0643C103.993 12.0643 104.211 12.1189 104.484 12.1735L104.921 11.5184L104.484 12.1735C104.867 12.2827 105.194 12.3919 105.467 12.6102C106.231 13.1561 106.395 13.9204 106.395 14.1933C106.395 14.5754 106.395 16.4861 106.286 18.4513C106.177 20.4165 105.958 22.3818 105.849 23.0368C105.194 22.9276 104.648 22.7093 104.266 22.4363C103.666 21.945 103.556 21.2354 103.556 20.9624C103.556 20.6895 103.72 19.3793 103.72 17.9054C103.775 16.3769 103.775 14.63 103.72 13.3745L103.502 13.7566L103.775 13.3745C103.72 12.7194 103.666 12.2827 103.666 12.0643ZM101.81 10.2083C102.628 10.6996 102.792 11.4638 102.847 11.7368C102.847 12.0097 102.956 13.1015 103.01 14.4117C103.065 16.759 102.956 19.7614 102.901 20.5803C102.246 20.5257 101.646 20.3619 101.264 20.089C100.609 19.5977 100.499 18.888 100.445 18.6151C100.445 18.5605 100.445 18.3967 100.445 18.1784C100.445 17.3049 100.445 15.5581 100.336 13.8112C100.226 12.0643 100.008 10.4266 99.9535 9.82615C100.718 9.77156 101.318 9.93533 101.81 10.2083ZM97.9883 8.07928C98.8071 8.516 99.08 9.22566 99.1346 9.49861C99.1892 9.88074 99.4076 11.7914 99.5713 13.7566C99.7351 15.7218 99.7351 17.7416 99.7351 18.3421C99.08 18.3421 98.4796 18.2329 98.0974 17.96C97.4424 17.5233 97.224 16.8682 97.224 16.5953C97.224 16.2677 97.1148 14.3571 96.8419 12.4464C96.6235 10.5358 96.2414 8.46141 96.1322 7.80633C96.8419 7.69715 97.4969 7.86092 97.9883 8.07928ZM92.966 6.00488C93.3481 6.00488 93.7303 6.11406 94.0032 6.22324C94.8766 6.60536 95.1496 7.31503 95.2588 7.58798C95.3134 7.75174 95.4225 8.35223 95.5317 9.11648C95.6409 9.88074 95.8047 10.8633 95.9684 11.846C96.0776 12.8286 96.1868 13.8112 96.296 14.63C96.3506 15.4489 96.4052 16.1039 96.4052 16.4315C95.7501 16.4861 95.2042 16.3769 94.7675 16.1585C94.0578 15.7764 93.8394 15.1213 93.7849 14.8484C93.7303 14.5754 93.6211 13.2653 93.3481 11.7914C93.0752 10.3175 92.7477 8.516 92.4201 7.36962C92.2563 6.82372 92.1472 6.387 92.0926 6.16865C92.4201 6.00488 92.7477 6.00488 92.966 6.00488ZM89.9636 4.64014C90.837 4.91309 91.1646 5.62275 91.2737 5.8957C91.3283 6.16865 91.6013 7.20585 91.9288 8.516C92.4747 10.8088 92.9114 13.8112 93.0206 14.5754C92.3655 14.6846 91.765 14.63 91.3283 14.4117C90.5641 14.0841 90.3457 13.3745 90.2365 13.1561C90.2365 13.0469 90.1819 12.9378 90.1274 12.7194C89.9636 11.9006 89.5815 10.1537 89.1447 8.46141C88.708 6.76913 88.1621 5.18603 87.9984 4.64014C88.8172 4.42178 89.4177 4.42178 89.9636 4.64014ZM85.8148 3.2754C86.6882 3.54835 87.1249 4.14883 87.2341 4.42178C87.3433 4.80391 87.9984 6.60536 88.4897 8.516C89.0356 10.372 89.4177 12.3919 89.5269 12.9923C88.8718 13.1015 88.2713 13.1015 87.8346 12.9378C87.0703 12.6648 86.7974 12.0643 86.6882 11.7914C86.579 11.4638 86.1423 9.60779 85.5418 7.75174C84.9413 5.8957 84.1771 3.93047 83.9041 3.32999C84.6138 3.11163 85.2689 3.11163 85.8148 3.2754ZM80.465 2.2382C80.8471 2.18361 81.2292 2.18361 81.5568 2.2382C82.4302 2.45655 82.8669 3.05704 83.0307 3.32999C83.0853 3.49376 83.3037 4.03965 83.6312 4.74932C83.9041 5.45898 84.2317 6.387 84.5592 7.31503C84.8867 8.24305 85.1597 9.17107 85.4326 9.93533C85.651 10.7542 85.8148 11.3547 85.924 11.6822C85.2689 11.846 84.723 11.846 84.2317 11.7368C83.4674 11.5184 83.1399 10.8633 83.0307 10.645C82.9215 10.372 82.5394 9.11648 81.9935 7.75174C81.4476 6.33242 80.7379 4.69473 80.2466 3.60294C79.9737 3.11163 79.8099 2.67491 79.7007 2.45655C79.9737 2.34738 80.2466 2.2382 80.465 2.2382ZM77.2442 1.41935C78.1722 1.52853 78.609 2.18361 78.7727 2.40197C78.8819 2.62032 79.3732 3.60294 79.9191 4.80391C80.9017 6.9329 81.9389 9.77156 82.2119 10.5358C81.5568 10.7542 81.0109 10.8088 80.5196 10.6996C79.7553 10.5358 79.3732 9.88074 79.2094 9.66238C79.1549 9.60779 79.1003 9.44402 79.0457 9.22566C78.7181 8.46141 78.0085 6.82372 77.2442 5.24062C76.48 3.71212 75.6611 2.2382 75.3336 1.6923C76.0978 1.47394 76.6983 1.36476 77.2442 1.41935ZM72.9316 0.982636C73.8597 1.03723 74.351 1.58312 74.5147 1.85607C74.7331 2.18361 75.6611 3.87588 76.5345 5.62275C77.408 7.36962 78.2268 9.22566 78.4452 9.82615C77.8447 10.0991 77.2442 10.1537 76.8075 10.0991C75.9887 9.93533 75.6065 9.44402 75.4428 9.17107C75.279 8.84354 74.4601 7.15126 73.5321 5.45898C72.5495 3.76671 71.4577 2.01984 71.0756 1.41935C71.7307 1.03723 72.3857 0.928047 72.9316 0.982636ZM67.5273 0.928047C67.9094 0.818868 68.2369 0.709689 68.5645 0.764278C69.4925 0.764278 70.0384 1.31017 70.2022 1.52853C70.4205 1.80148 71.5123 3.43917 72.4949 5.13144C73.4775 6.82372 74.4056 8.62518 74.6785 9.17107C74.078 9.49861 73.5321 9.5532 73.0408 9.5532C72.222 9.49861 71.7853 8.95271 71.6215 8.73436C71.4577 8.516 70.8572 7.31503 70.0384 6.05947C69.2196 4.80391 68.2369 3.32999 67.5273 2.29279C67.1997 1.85607 66.9268 1.47394 66.763 1.31017C67.036 1.14641 67.2543 1.03723 67.5273 0.928047ZM64.1973 0.818868C65.1253 0.818868 65.7258 1.31017 65.8896 1.52853C66.0534 1.74689 66.7084 2.62032 67.4727 3.65753C68.8374 5.56816 70.4205 8.13387 70.8026 8.84354C70.2022 9.17107 69.6563 9.38943 69.165 9.33484C68.3461 9.33484 67.8548 8.78895 67.691 8.57059C67.6365 8.516 67.5819 8.35223 67.4181 8.18846C66.9268 7.4788 65.9442 6.00488 64.8524 4.64014C63.8152 3.22081 62.7234 1.96525 62.3413 1.52853C63.0509 1.09182 63.6514 0.818868 64.1973 0.818868ZM59.8301 1.20099C60.7582 1.09182 61.3587 1.58312 61.577 1.74689C61.85 2.01984 63.1055 3.49376 64.3065 5.02227C65.5075 6.60536 66.6538 8.24305 66.9814 8.78895C66.4355 9.17107 65.8896 9.38943 65.3983 9.38943C64.5794 9.38943 64.0881 8.95271 63.8698 8.73436C63.6514 8.46141 62.5596 6.98749 61.2495 5.45898C59.9939 3.98506 58.5746 2.51114 58.0833 2.01984C58.6838 1.52853 59.2842 1.25558 59.8301 1.20099ZM54.535 2.2382C54.8625 2.01984 55.19 1.91066 55.5176 1.85607C56.4456 1.6923 57.0461 2.12902 57.319 2.29279C57.592 2.56573 58.9567 3.93047 60.2669 5.40439C61.577 6.82372 62.8326 8.46141 63.2147 8.95271C62.6688 9.38943 62.1775 9.60779 61.6862 9.60779C60.8673 9.71697 60.3214 9.28025 60.1031 9.06189C59.9393 8.84354 59.0659 7.86092 58.0287 6.76913C56.9915 5.67734 55.7359 4.42178 54.8079 3.60294C54.3712 3.16622 54.0436 2.83868 53.8799 2.7295C54.0982 2.51114 54.3166 2.34738 54.535 2.2382ZM51.2596 2.7295C52.1876 2.51114 52.8427 2.89327 53.061 3.05704C53.2794 3.22081 54.0982 3.93047 55.0809 4.8585C56.8277 6.49618 58.8475 8.62518 59.3388 9.28025C58.8475 9.71697 58.3562 9.98992 57.8649 10.0991C57.0461 10.2629 56.5002 9.82615 56.2818 9.66238C56.2272 9.60779 56.1181 9.49861 55.9543 9.33484C55.3538 8.67977 54.0982 7.4788 52.7881 6.33242C51.4779 5.13144 50.1678 4.14883 49.6765 3.7667C50.1678 3.22081 50.7137 2.83868 51.2596 2.7295ZM47.0562 3.93047C47.9296 3.60294 48.6393 3.98506 48.8576 4.14883C49.1852 4.36719 50.6591 5.56816 52.1876 6.82372C53.6615 8.13387 55.1354 9.49861 55.5722 9.93533C55.0809 10.4266 54.6441 10.7542 54.1528 10.8633C53.3886 11.0271 52.7881 10.645 52.5151 10.4812C52.2422 10.2629 50.8775 9.0073 49.2944 7.80633C47.7659 6.60536 46.0736 5.40439 45.4731 5.02227C45.9644 4.47637 46.5103 4.09424 47.0562 3.93047ZM42.0339 6.00488C42.3069 5.73193 42.6344 5.56816 42.9074 5.40439C43.7808 5.07685 44.4905 5.3498 44.7088 5.45898C45.0364 5.67734 46.6195 6.76913 48.2026 7.91551C49.7857 9.06189 51.3142 10.4266 51.7509 10.8088C51.3142 11.3001 50.8229 11.6276 50.3862 11.7914C49.6219 12.0097 49.0214 11.7368 48.7485 11.573C48.5301 11.4092 47.5475 10.5904 46.2919 9.71697C45.0364 8.84354 43.5625 7.86092 42.5253 7.26044C42.0339 6.98749 41.6518 6.71454 41.4335 6.60536C41.6518 6.387 41.8156 6.16865 42.0339 6.00488ZM38.9223 7.15126C39.7412 6.76913 40.5054 6.98749 40.7784 7.15126C40.9967 7.26044 41.9794 7.80633 43.0711 8.516C45.091 9.77156 47.4929 11.5184 48.148 12.0097C47.7113 12.5556 47.2745 12.8832 46.8378 13.1015C46.0736 13.3745 45.4185 13.1015 45.2001 12.9923C45.1456 12.9378 44.9818 12.8832 44.818 12.7194L45.1455 13.4837L44.818 12.7194C44.1083 12.2281 42.6344 11.3001 41.1059 10.4266C39.5774 9.49861 38.1035 8.78895 37.5576 8.516C37.9397 7.86092 38.431 7.36962 38.9223 7.15126ZM35.0465 9.17107C35.8107 8.67977 36.575 8.89812 36.8479 9.0073C37.1755 9.17107 38.9223 10.0445 40.6146 10.9725C42.3615 11.9551 43.9992 13.0469 44.5451 13.3745C44.1629 13.975 43.7808 14.3571 43.3441 14.5209C42.5798 14.8484 41.9248 14.5754 41.7064 14.4663C41.3789 14.3025 39.7958 13.3745 38.0489 12.4464C36.302 11.573 34.3914 10.7542 33.7909 10.4812C34.1185 9.88074 34.5552 9.44402 35.0465 9.17107ZM31.2798 11.4092C32.0441 10.9179 32.8083 11.0271 33.0813 11.1363C33.4088 11.2455 35.2103 12.0097 37.0117 12.8832C38.7586 13.702 40.56 14.7392 41.1059 15.0122C40.7784 15.6126 40.3963 15.9948 39.9595 16.2131C39.2499 16.5953 38.5948 16.4315 38.3219 16.3223C38.0489 16.2131 36.9025 15.6126 35.5378 15.0122C34.173 14.4117 32.5354 13.7566 31.3344 13.3199C30.7885 13.1015 30.3518 12.9923 30.1334 12.8832C30.2426 12.6102 30.4064 12.3919 30.5701 12.1735C30.7339 11.846 31.0069 11.573 31.2798 11.4092ZM27.6769 13.8658C28.4411 13.3199 29.2054 13.4291 29.4783 13.4837C29.7513 13.5928 30.7885 13.9204 31.9895 14.3571C34.2276 15.1759 36.9025 16.4315 37.6668 16.8136C37.3392 17.4141 37.0117 17.8508 36.575 18.1238C35.8653 18.5605 35.2103 18.3967 34.9373 18.2875C34.8827 18.2329 34.7189 18.1784 34.5006 18.1238C33.6817 17.7962 32.0441 17.1412 30.4064 16.5953C28.7141 15.9948 27.131 15.6126 26.5851 15.3943C26.9126 14.7392 27.2402 14.2479 27.6769 13.8658ZM24.2923 16.5953C25.002 15.9948 25.7663 16.0494 26.0392 16.1039C26.4213 16.2131 28.2774 16.7044 30.1334 17.3049C32.0441 17.96 33.8455 18.6697 34.446 18.888C34.173 19.5431 33.8455 19.9798 33.4634 20.2528C32.8083 20.6895 32.0986 20.6349 31.8257 20.5257C31.4982 20.4165 29.7513 19.816 27.8407 19.2701C25.9846 18.7242 23.9102 18.2875 23.2551 18.1784C23.5281 17.5233 23.8556 16.9774 24.2923 16.5953ZM20.4165 20.4165C20.5802 20.089 20.7986 19.7614 21.017 19.5431C21.672 18.888 22.4363 18.888 22.7092 18.888C23.0914 18.9426 25.002 19.3247 26.858 19.816C28.7141 20.3073 30.6793 20.9624 31.2798 21.1262C31.0614 21.7813 30.7339 22.218 30.3518 22.5455C29.7513 23.0914 29.0416 23.0368 28.7687 22.9822C28.4957 22.9276 27.2402 22.5455 25.7663 22.218C24.2923 21.8904 22.5455 21.5629 21.3445 21.3445L21.6174 21.6175L21.3445 21.3445C20.7986 21.29 20.3619 21.1808 20.0889 21.1808C20.2527 20.9624 20.3073 20.6895 20.4165 20.4165ZM18.0145 22.7093C18.6696 21.9996 19.4339 21.9996 19.7068 21.9996C19.9798 22.0542 21.0716 22.1634 22.3271 22.3818C24.6745 22.7639 27.5677 23.419 28.3866 23.6919C28.2228 24.347 27.9498 24.8383 27.5677 25.1658C26.9672 25.7117 26.2576 25.7117 25.9846 25.6571C25.8754 25.6571 25.7663 25.6025 25.5479 25.5479C24.7291 25.3842 22.9822 25.0566 21.2353 24.8383C19.4885 24.6199 17.8508 24.4562 17.2503 24.4562C17.3595 23.6919 17.6324 23.0914 18.0145 22.7093ZM15.1759 26.0393C15.7218 25.3296 16.486 25.1658 16.8136 25.1658C17.1957 25.1658 19.1063 25.3296 21.0716 25.5479C23.0368 25.7663 25.002 26.1484 25.6025 26.2576C25.4933 26.9127 25.2749 27.4586 24.8928 27.7861C24.3469 28.332 23.6373 28.3866 23.3643 28.3866C23.0368 28.332 21.1807 28.0591 19.2155 27.8953C17.2503 27.7315 15.1759 27.6769 14.5208 27.6769C14.63 27.0765 14.8483 26.476 15.1759 26.0393ZM12.6102 29.533C13.1561 28.7687 13.8657 28.605 14.1933 28.605C14.5754 28.605 16.486 28.605 18.4513 28.7141C20.4165 28.8233 22.3817 29.0417 23.0368 29.1509C22.9276 29.8059 22.7092 30.3518 22.4363 30.734C21.945 31.389 21.2353 31.4436 20.9624 31.4436C20.6894 31.4436 19.3793 31.2799 17.8508 31.2799C16.3223 31.2253 14.5754 31.2253 13.3198 31.2799C12.7739 31.3344 12.3372 31.3344 12.0643 31.3344C12.0643 31.0615 12.1189 30.7885 12.1735 30.5156C12.228 30.1335 12.3918 29.8059 12.6102 29.533ZM10.2082 33.1905C10.6995 32.3716 11.4638 32.2079 11.7367 32.1533C12.0097 32.1533 13.1015 32.0441 14.4116 31.9895C16.759 31.9349 19.7614 32.0441 20.5802 32.0987C20.5257 32.7538 20.3619 33.3543 20.0889 33.7364C19.6522 34.3915 18.9426 34.5006 18.615 34.5552C18.5604 34.5552 18.3967 34.5552 18.1783 34.5552C17.3049 34.5552 15.558 34.5552 13.8111 34.6644C12.0643 34.7736 10.4266 34.9919 9.8261 35.0465C9.77151 34.3369 9.93528 33.6818 10.2082 33.1905ZM8.07924 37.0118C8.51595 36.1929 9.22562 35.92 9.49856 35.8654C9.88069 35.8108 11.7913 35.5924 13.7566 35.4287C15.7218 35.2649 17.7416 35.2649 18.3421 35.2649C18.3421 35.9746 18.2329 36.4659 17.9599 36.9026C17.5232 37.5577 16.8682 37.776 16.5952 37.8306C16.2677 37.8306 14.357 37.9398 12.4464 38.1581C10.5358 38.3765 8.46136 38.7586 7.80629 38.8678C7.7517 38.1581 7.86088 37.5577 8.07924 37.0118ZM6.22319 40.9968C6.60532 40.178 7.31498 39.8504 7.58793 39.7412C7.7517 39.6866 8.29759 39.5775 9.06185 39.4683C9.8261 39.3045 10.8087 39.1953 11.7913 39.0316C12.7739 38.9224 13.7566 38.7586 14.5754 38.704C15.3942 38.6494 16.0493 38.5949 16.3769 38.5949C16.4314 39.2499 16.3223 39.7958 16.1039 40.2325C15.7218 40.9422 15.0667 41.1606 14.7938 41.2152C14.5208 41.2697 13.2107 41.3789 11.7367 41.6519C10.2628 41.9248 8.46136 42.2524 7.31498 42.5799C6.76909 42.7437 6.33237 42.8528 6.11401 42.9074C6.00483 42.5799 6.00483 42.3069 6.00483 42.034C6.00483 41.6519 6.05942 41.2697 6.22319 40.9968ZM4.5855 45.0364C4.85845 44.163 5.62271 43.8355 5.84106 43.7263C6.11401 43.6717 7.15121 43.3441 8.46136 43.0712L8.13383 42.9074L8.51595 43.0712C10.8087 42.5253 13.7566 42.0886 14.5754 41.9794C14.6846 42.6345 14.63 43.235 14.4116 43.6717C14.0841 44.3813 13.429 44.6543 13.1561 44.7089C13.0469 44.7089 12.9377 44.7635 12.7193 44.8181C11.9005 44.9818 10.1536 45.364 8.46136 45.8007C6.76909 46.2374 5.18599 46.7833 4.64009 46.9471C4.42174 46.2374 4.42174 45.5823 4.5855 45.0364ZM3.27535 49.1852C3.5483 48.3118 4.14879 47.8751 4.42174 47.7659C4.80386 47.6567 6.60532 47.0562 8.51595 46.5103C10.372 45.9644 12.3918 45.5823 12.9923 45.4731C13.1015 46.1282 13.1015 46.7287 12.9377 47.1654C12.6648 47.9297 12.0643 48.2026 11.7913 48.3118C11.4638 48.421 9.60774 48.8577 7.80629 49.4582C5.95024 50.0587 3.98502 50.8229 3.38453 51.0959C3.16618 50.3862 3.11159 49.7311 3.27535 49.1852ZM2.23815 53.4432C2.45651 52.5698 3.057 52.1331 3.32994 51.9693C3.49371 51.9147 4.03961 51.6964 4.74927 51.3688C5.45894 51.0959 6.38696 50.7683 7.31498 50.4408C8.243 50.1133 9.17103 49.7857 9.98987 49.5674C10.8087 49.349 11.4092 49.1852 11.7367 49.0761C11.9005 49.7311 11.9005 50.277 11.7913 50.7683C11.573 51.5326 10.9725 51.8601 10.6995 51.9693C10.4266 52.0785 9.17103 52.4606 7.80629 53.0065C6.38696 53.5524 4.74927 54.2621 3.65748 54.7534C3.16618 54.9717 2.72946 55.1901 2.5111 55.2993C2.40192 55.0263 2.34733 54.7534 2.29274 54.4804C2.12897 54.1529 2.12897 53.7708 2.23815 53.4432ZM2.45651 56.2273C2.67487 56.1181 3.65748 55.6268 4.85845 55.0809C6.98744 54.0983 9.8261 53.0611 10.5904 52.7881C10.8087 53.4432 10.8633 53.9891 10.7541 54.4804C10.5904 55.2447 9.93528 55.6268 9.71692 55.7906C9.66233 55.8452 9.49856 55.8997 9.28021 55.9543C8.51595 56.2819 6.87827 56.9915 5.29517 57.7558C3.76666 58.5201 2.29274 59.3389 1.74685 59.6664C1.4739 59.0114 1.36472 58.3563 1.41931 57.8104C1.58308 56.8278 2.18356 56.3365 2.45651 56.2273ZM1.80144 60.4853C2.12897 60.2669 3.82125 59.3389 5.56812 58.4655C7.31498 57.592 9.17103 56.7732 9.77151 56.5548C10.0445 57.2099 10.1536 57.7558 10.0445 58.1925C9.88069 59.0114 9.38939 59.3935 9.11644 59.5573C8.7889 59.721 7.09662 60.5399 5.40435 61.4679C3.71207 62.3959 1.96521 63.5423 1.36472 63.9244C1.03718 63.2693 0.928003 62.6143 0.928003 62.0684C1.03718 61.1403 1.58308 60.649 1.80144 60.4853ZM1.52849 64.7979C1.80144 64.5795 3.43912 63.5423 5.1314 62.5051C6.82368 61.5225 8.62513 60.5945 9.17103 60.3215C9.44397 60.922 9.55315 61.4679 9.55315 61.9592C9.49856 62.778 8.95267 63.2148 8.73431 63.3785C8.51595 63.5423 7.31498 64.1428 6.05942 64.9616C4.80386 65.7805 3.32994 66.7631 2.29274 67.4727C1.85603 67.8003 1.4739 68.0732 1.31013 68.237C1.14636 67.964 1.03718 67.7457 0.928003 67.4727C0.818824 67.0906 0.764235 66.7631 0.764235 66.4355C0.764235 65.5075 1.31013 64.9616 1.52849 64.7979ZM0.818824 70.8027C0.764235 69.8747 1.31013 69.2742 1.4739 69.1104C1.69226 68.9467 2.56569 68.2916 3.60289 67.5273C5.51353 66.1626 8.07924 64.5795 8.7889 64.1974C9.11644 64.7979 9.3348 65.3437 9.28021 65.8351C9.28021 66.6539 8.73431 67.1452 8.51595 67.309C8.46136 67.3636 8.29759 67.4182 8.13383 67.5819C7.42416 68.0732 5.95024 69.0558 4.5855 70.1476C3.16618 71.1848 1.91062 72.2766 1.4739 72.6588C1.09177 72.0037 0.818824 71.4032 0.818824 70.8027ZM8.67972 71.1302C8.40677 71.3486 6.93286 72.4404 5.40435 73.7505C3.93043 75.0061 2.45651 76.48 1.9652 76.9167C1.52849 76.3163 1.25554 75.7704 1.20095 75.1699C1.09177 74.2419 1.52849 73.6414 1.74685 73.423C2.01979 73.1501 3.49371 71.8945 5.02222 70.6935C6.60532 69.4926 8.243 68.3462 8.7889 68.0186C9.17103 68.5645 9.38939 69.1104 9.38939 69.6017C9.3348 70.4206 8.89808 70.9119 8.67972 71.1302ZM2.72946 83.7404C2.5111 82.867 2.89323 82.1573 3.057 81.939C3.22077 81.7206 3.93043 80.9018 4.85845 79.9738C6.44155 78.2815 8.67972 76.2071 9.28021 75.7158C9.71692 76.2071 9.98987 76.6984 10.0445 77.1897C10.2082 77.9539 9.77151 78.5544 9.60774 78.7728C9.55315 78.8274 9.44397 78.9366 9.28021 79.1003C8.62513 79.7008 7.42416 80.9564 6.27778 82.3211C5.07681 83.6313 4.0942 84.9414 3.71207 85.4327C3.22077 84.8322 2.83864 84.3409 2.72946 83.7404ZM5.02222 89.5269C4.47633 89.0356 4.0942 88.4897 3.93043 87.9984C3.60289 87.125 3.98502 86.4153 4.14879 86.197C4.36715 85.8694 5.51353 84.3409 6.82368 82.867C8.13383 81.3931 9.49856 79.9192 9.93528 79.4825C10.4266 79.9738 10.6995 80.4105 10.8633 80.9018C11.0271 81.666 10.6449 82.2665 10.4812 82.4849C10.2628 82.7578 9.00726 84.1226 7.80629 85.7057C6.60532 87.2342 5.40435 88.9264 5.02222 89.5269ZM6.00483 92.9661C5.73188 92.6931 5.56812 92.3656 5.45894 92.0381C5.1314 91.1646 5.40435 90.455 5.51353 90.2366C5.73189 89.9091 6.82368 88.326 7.97006 86.7429C9.11644 85.1598 10.4812 83.6313 10.8633 83.1945C11.3546 83.6313 11.6821 84.1226 11.8459 84.5593C12.0643 85.3235 11.7913 85.924 11.6276 86.197C11.4638 86.4153 10.6449 87.4525 9.77151 88.6535C8.89808 89.8545 7.91547 91.383 7.31498 92.4202C6.98744 92.9115 6.76909 93.2936 6.65991 93.512C6.33237 93.3482 6.1686 93.1844 6.00483 92.9661ZM8.46136 97.497C7.86088 97.0603 7.36957 96.6236 7.15121 96.1323C6.76909 95.3134 6.98744 94.5492 7.09662 94.2762C7.26039 94.0579 7.7517 93.0753 8.46136 91.9835L7.64252 92.311L8.46136 91.9835C9.71692 89.9636 11.4638 87.5617 12.0097 86.9066C12.5556 87.3433 12.8831 87.7801 13.0469 88.2168C13.3198 88.981 13.0469 89.6361 12.9377 89.8545C12.8831 89.9091 12.7739 90.0728 12.6648 90.2366C12.1735 90.9463 11.2454 92.4202 10.372 93.9487C9.44397 95.4226 8.73431 96.9511 8.46136 97.497ZM10.5358 101.264C9.88069 100.882 9.44397 100.445 9.17103 99.9535C8.67972 99.1347 8.89808 98.425 9.00726 98.1521C9.17103 97.8245 9.98987 96.0777 10.9725 94.3854C11.9551 92.6385 13.0469 91.0008 13.3744 90.455C13.9203 90.8371 14.357 91.2192 14.5208 91.7105C14.8483 92.4202 14.5754 93.1298 14.4662 93.3482C14.3024 93.6757 13.3744 95.2588 12.4464 97.0057C11.6276 98.7526 10.8087 100.663 10.5358 101.264ZM13.3198 103.72C13.1015 104.266 12.9923 104.648 12.8831 104.921C12.6102 104.812 12.3918 104.648 12.1735 104.484C11.8459 104.266 11.6276 103.993 11.4092 103.72C10.9179 102.956 11.0271 102.192 11.1363 101.919C11.2454 101.591 12.0097 99.7898 12.8831 97.9883C13.702 96.2414 14.7392 94.44 15.0121 93.8941C15.6126 94.2216 15.9947 94.6038 16.2131 95.0405C16.5952 95.7501 16.4314 96.4052 16.3223 96.6782C16.2131 96.9511 15.6126 98.0975 14.9575 99.4622C14.4116 100.936 13.7565 102.574 13.3198 103.72ZM15.4488 108.415C14.7938 108.142 14.2479 107.76 13.9203 107.323C13.3744 106.559 13.4836 105.795 13.5382 105.522C13.6474 105.249 13.9749 104.212 14.4116 103.011C15.2305 100.772 16.486 98.0975 16.8682 97.3332C17.4686 97.6608 17.9054 97.9883 18.1783 98.425C18.615 99.0801 18.4513 99.7898 18.3967 100.063C18.3421 100.117 18.2875 100.281 18.2329 100.499C17.9054 101.318 17.2503 102.956 16.7044 104.594C16.0493 106.231 15.6126 107.814 15.4488 108.415ZM16.5952 110.708C15.9947 109.998 16.0493 109.234 16.1039 108.961C16.2131 108.579 16.7044 106.723 17.3049 104.867C17.9599 102.956 18.6696 101.1 18.888 100.554C19.543 100.827 19.9798 101.155 20.2527 101.537C20.6894 102.192 20.5802 102.901 20.5257 103.174C20.4165 103.502 19.816 105.249 19.2701 107.159C18.7242 109.015 18.2875 111.035 18.1783 111.69C17.5232 111.472 16.9773 111.144 16.5952 110.708ZM21.3991 113.601C21.3445 114.147 21.2353 114.584 21.2353 114.856C20.9624 114.802 20.6894 114.693 20.4711 114.584C20.1435 114.42 19.816 114.201 19.5976 113.983C18.9426 113.328 18.9426 112.564 18.9426 112.291C18.9971 111.909 19.3793 109.998 19.8706 108.142C20.3619 106.231 21.017 104.321 21.1807 103.72C21.8358 103.939 22.2725 104.266 22.6001 104.648C23.146 105.249 23.0914 105.958 23.0368 106.231C22.9822 106.504 22.6001 107.76 22.2725 109.234C21.945 110.653 21.6174 112.4 21.3991 113.601ZM24.8382 113.765C24.6199 115.512 24.4561 117.149 24.4561 117.75C23.7464 117.586 23.146 117.368 22.7092 116.985C22.0542 116.385 21.9996 115.566 21.9996 115.293C22.0542 115.02 22.1633 113.928 22.3817 112.618L22.0542 112.946L22.3817 112.618C22.7638 110.271 23.4735 107.378 23.6919 106.613C24.3469 106.777 24.8382 107.05 25.1658 107.432C25.7117 108.033 25.7117 108.742 25.6571 109.015C25.6571 109.125 25.6025 109.288 25.5479 109.452C25.3841 110.326 25.0566 112.072 24.8382 113.765ZM28.0044 115.785C27.8407 117.75 27.7861 119.824 27.7861 120.479C27.0764 120.37 26.4759 120.152 26.0392 119.824C25.3295 119.278 25.2204 118.514 25.1658 118.186C25.2204 117.804 25.3295 115.894 25.5479 113.928C25.8208 111.963 26.1484 109.998 26.2576 109.398C26.9126 109.507 27.4585 109.78 27.7861 110.107C28.332 110.653 28.3866 111.363 28.3866 111.636C28.4411 112.018 28.1682 113.819 28.0044 115.785ZM31.2798 121.735C31.2798 122.335 31.3344 122.772 31.3344 122.99C31.0614 122.99 30.7885 122.936 30.5155 122.881L30.2426 123.318L30.5155 122.881C30.1334 122.827 29.8059 122.663 29.5329 122.444C28.7687 121.899 28.6049 121.189 28.6049 120.861C28.6049 120.479 28.6049 118.569 28.7141 116.603C28.8233 114.638 29.0416 112.673 29.1508 112.018C29.8059 112.127 30.3518 112.345 30.7339 112.618C31.389 113.11 31.4436 113.819 31.4436 114.092C31.4436 114.365 31.2798 115.675 31.2798 117.204C31.2252 118.678 31.2252 120.479 31.2798 121.735ZM33.1904 124.792C32.3716 124.3 32.2078 123.536 32.1532 123.263C32.1532 122.99 32.0441 121.899 31.9895 120.588C31.9349 118.241 32.0441 115.239 32.0986 114.42C32.7537 114.474 33.2996 114.638 33.7363 114.911C34.3914 115.402 34.5006 116.112 34.5006 116.385C34.5006 116.494 34.5006 116.658 34.5006 116.822C34.5006 117.695 34.5006 119.442 34.6098 121.189C34.7189 122.936 34.9373 124.573 34.9919 125.174C34.3368 125.229 33.6817 125.065 33.1904 124.792ZM37.0117 126.921C36.1929 126.484 35.9199 125.774 35.8653 125.501C35.8107 125.119 35.5924 123.209 35.4286 121.243C35.2648 119.278 35.2648 117.258 35.2648 116.658C35.9199 116.658 36.5204 116.767 36.9025 117.04C37.5576 117.477 37.776 118.132 37.8306 118.405C37.8306 118.732 37.9397 120.643 38.1581 122.554C38.3764 124.464 38.7586 126.539 38.8677 127.194C38.1581 127.303 37.5576 127.194 37.0117 126.921ZM42.0339 128.995C41.6518 128.995 41.2697 128.941 40.9967 128.777C40.1233 128.395 39.8504 127.685 39.7412 127.412C39.6866 127.248 39.5774 126.648 39.4136 125.938C39.3045 125.174 39.1407 124.191 38.9769 123.209C38.8678 122.226 38.704 121.243 38.6494 120.425C38.5948 119.606 38.5402 118.951 38.4856 118.623C39.1407 118.569 39.6866 118.678 40.1779 118.896C40.8876 119.278 41.1059 119.933 41.1605 120.206C41.2151 120.479 41.3243 121.789 41.5972 123.263C41.8702 124.737 42.1977 126.539 42.5253 127.685L42.962 126.648L42.5798 127.74C42.7436 128.286 42.7982 128.722 42.9074 128.941C42.5798 128.995 42.3069 129.05 42.0339 128.995ZM45.0364 130.415C44.1629 130.142 43.8354 129.432 43.7262 129.159C43.6716 128.886 43.3441 127.849 43.0711 126.539C42.5253 124.246 42.0885 121.243 41.9794 120.479C42.6344 120.37 43.2349 120.425 43.6716 120.643C44.3813 120.971 44.6542 121.626 44.7088 121.899C44.7088 122.008 44.7634 122.117 44.818 122.335C44.9818 123.154 45.3639 124.901 45.8006 126.593C46.2373 128.231 46.7832 129.869 46.947 130.415C46.2373 130.578 45.5823 130.578 45.0364 130.415ZM49.1852 131.725C48.3117 131.452 47.875 130.851 47.7659 130.578C47.6567 130.196 47.0562 128.395 46.5103 126.484C45.9644 124.573 45.5823 122.608 45.4731 122.008C46.1282 121.899 46.6741 121.899 47.1654 122.062C47.9296 122.335 48.2026 122.99 48.3117 123.209C48.4209 123.536 48.8576 125.392 49.4581 127.248C50.0586 129.104 50.8229 131.07 51.0958 131.67C50.3862 131.888 49.7311 131.888 49.1852 131.725ZM54.535 132.816C54.1528 132.871 53.7707 132.871 53.4432 132.816C52.5151 132.598 52.0784 131.998 51.9692 131.725C51.9147 131.561 51.6963 131.015 51.3688 130.305C51.0958 129.596 50.7683 128.668 50.4407 127.74C50.1132 126.812 49.7857 125.884 49.5673 125.119C49.3489 124.3 49.1852 123.7 49.076 123.372C49.7311 123.209 50.277 123.209 50.7683 123.318C51.5325 123.536 51.8601 124.191 51.9692 124.41C52.0784 124.683 52.4606 125.938 53.0064 127.303C53.5523 128.722 54.262 130.36 54.7533 131.452C55.0263 131.943 55.19 132.38 55.2992 132.598C55.0809 132.707 54.8079 132.762 54.535 132.816ZM57.7557 133.581C56.8277 133.472 56.391 132.816 56.2272 132.598C56.1181 132.325 55.6267 131.397 55.0809 130.196C54.0982 128.067 53.061 125.229 52.8427 124.464C53.4978 124.246 54.0437 124.137 54.535 124.3C55.2992 124.464 55.6813 125.065 55.8451 125.338C55.8997 125.392 55.9543 125.556 56.0089 125.774L56.0635 125.392L56.0089 125.774C56.3364 126.539 57.0461 128.176 57.8103 129.759C58.5746 131.288 59.3934 132.762 59.721 133.308C58.9567 133.526 58.3016 133.635 57.7557 133.581ZM62.0683 134.072C61.1403 134.017 60.649 133.472 60.4852 133.199C60.2669 132.871 59.3388 131.179 58.4654 129.432C57.592 127.685 56.7731 125.829 56.5548 125.229C57.2098 124.956 57.7557 124.901 58.1925 124.956C58.9567 125.119 59.3934 125.611 59.5572 125.884C59.721 126.211 60.4852 127.903 61.4678 129.596C62.4504 131.288 63.5422 133.035 63.9244 133.635C63.2693 133.963 62.6688 134.072 62.0683 134.072ZM67.5273 134.072C67.1451 134.181 66.8176 134.236 66.4901 134.236C65.562 134.236 65.0162 133.69 64.8524 133.472C64.634 133.199 63.5422 131.561 62.5596 129.869C61.577 128.176 60.649 126.375 60.376 125.829C60.9765 125.556 61.5224 125.447 62.0137 125.447C62.8326 125.501 63.2693 126.047 63.4331 126.266C63.5968 126.484 64.1973 127.685 65.0162 128.941C65.835 130.196 66.8176 131.67 67.5273 132.707C67.8548 133.144 68.1278 133.526 68.2915 133.69C68.0186 133.854 67.7456 133.963 67.5273 134.072ZM70.8026 134.181C69.8746 134.181 69.2741 133.69 69.1104 133.472C68.9466 133.253 68.2915 132.38 67.5273 131.343C66.1625 129.377 64.5794 126.866 64.1973 126.157C64.7978 125.829 65.3437 125.611 65.835 125.665C66.6538 125.665 67.1451 126.211 67.3089 126.429C67.3635 126.484 67.4181 126.648 67.5819 126.812C68.0732 127.521 69.0558 128.995 70.1476 130.36C71.1848 131.779 72.2766 133.035 72.7133 133.472C71.949 133.908 71.4031 134.181 70.8026 134.181ZM75.1698 133.854C74.2418 133.963 73.6413 133.526 73.4229 133.308C73.15 133.035 71.8944 131.561 70.6935 130.032C69.4925 128.449 68.3461 126.812 68.0186 126.266C68.5645 125.884 69.1104 125.665 69.6017 125.665C70.4205 125.665 70.9118 126.102 71.1302 126.32C71.3485 126.593 72.4403 128.067 73.7505 129.596C75.006 131.07 76.4254 132.544 76.9167 133.035C76.3162 133.526 75.7157 133.744 75.1698 133.854ZM80.465 132.816C80.1375 133.035 79.8099 133.144 79.4824 133.199C78.5544 133.362 77.9539 132.926 77.7355 132.762C77.4626 132.489 76.0978 131.124 74.7877 129.65C73.4775 128.231 72.222 126.593 71.8399 126.102C72.3857 125.665 72.877 125.447 73.3684 125.447C74.1872 125.338 74.7331 125.774 74.8969 125.993C75.0606 126.211 75.9341 127.194 76.9713 128.286C78.0085 129.377 79.264 130.633 80.192 131.452C80.6288 131.834 80.9563 132.161 81.1201 132.325C80.9563 132.544 80.7379 132.653 80.465 132.816ZM83.7404 132.271C82.8123 132.489 82.1573 132.107 81.9389 131.943C81.7206 131.779 80.9017 131.07 79.9737 130.142L80.192 131.179L79.9737 130.142C78.2814 128.504 76.207 126.32 75.7157 125.72C76.207 125.283 76.7529 125.01 77.1896 124.956C78.0085 124.792 78.5544 125.229 78.7727 125.392C78.8273 125.447 78.9365 125.556 79.1003 125.72V125.611L79.1548 125.72C79.7553 126.375 81.0109 127.576 82.321 128.722C83.6312 129.923 84.9413 130.906 85.4326 131.288C84.8322 131.779 84.2863 132.161 83.7404 132.271ZM87.9984 131.07C87.1249 131.397 86.4153 131.015 86.1423 130.851C85.8148 130.633 84.3409 129.432 82.8123 128.176C81.3384 126.866 79.9191 125.501 79.4278 125.065C79.9191 124.573 80.3558 124.246 80.8471 124.137C81.6114 123.973 82.2119 124.355 82.4848 124.464C82.7578 124.683 84.1225 125.938 85.7056 127.139C87.2341 128.34 88.9264 129.541 89.4723 129.923C89.0356 130.524 88.4897 130.906 87.9984 131.07ZM92.966 128.995C92.6931 129.268 92.3655 129.432 92.0926 129.596C91.2191 129.923 90.5095 129.65 90.2911 129.541C89.9636 129.323 88.3805 128.231 86.7974 127.085C85.2143 125.938 83.6858 124.573 83.2491 124.191C83.6858 123.7 84.1771 123.372 84.6138 123.209C85.3781 122.99 85.9785 123.263 86.2515 123.427C86.4698 123.591 87.4525 124.41 88.708 125.283C89.9636 126.157 91.4375 127.139 92.4747 127.74C92.966 128.013 93.3481 128.286 93.5665 128.395C93.3481 128.668 93.1844 128.831 92.966 128.995ZM96.0776 127.849C95.2588 128.231 94.4945 128.013 94.2216 127.903C94.0032 127.74 93.0752 127.248 91.9288 126.539L92.3655 127.576L91.9288 126.539C89.909 125.283 87.5071 123.536 86.852 123.045C87.2887 122.499 87.7254 122.172 88.1621 122.008C88.9264 121.68 89.5815 122.008 89.7998 122.117C89.8544 122.171 90.0182 122.281 90.1819 122.39V122.335V122.39C90.8916 122.881 92.3655 123.809 93.894 124.683C95.4225 125.611 96.8965 126.32 97.4424 126.593C97.0602 127.194 96.6235 127.63 96.0776 127.849ZM100.008 125.884C99.1892 126.375 98.4796 126.157 98.2066 126.047C97.8791 125.884 96.1322 125.01 94.4399 124.082C92.6931 123.1 91.0554 122.008 90.5095 121.68C90.8916 121.08 91.2737 120.698 91.765 120.534C92.4747 120.206 93.1844 120.479 93.4027 120.588C93.7303 120.752 95.3134 121.68 97.0602 122.608C98.8071 123.482 100.718 124.3 101.318 124.573C100.882 125.119 100.445 125.556 100.008 125.884ZM103.72 123.591C102.956 124.082 102.192 123.973 101.919 123.864C101.591 123.755 99.7897 122.99 97.9883 122.117C96.2414 121.298 94.4399 120.261 93.9486 119.933C94.2762 119.333 94.6583 118.951 95.095 118.732C95.8047 118.35 96.4597 118.514 96.7327 118.623C97.0056 118.732 98.152 119.333 99.5168 119.988C100.882 120.588 102.519 121.243 103.72 121.68C104.266 121.899 104.648 122.008 104.921 122.117C104.812 122.39 104.648 122.608 104.484 122.827C104.266 123.154 103.993 123.427 103.72 123.591ZM107.323 121.134C106.559 121.68 105.795 121.571 105.522 121.516C105.249 121.407 104.266 121.08 103.01 120.643C100.772 119.824 98.0974 118.569 97.3332 118.186C97.6607 117.586 97.9883 117.149 98.425 116.876C99.08 116.44 99.7897 116.603 100.063 116.658C100.117 116.713 100.281 116.767 100.499 116.822C101.318 117.149 102.956 117.804 104.594 118.35C106.231 118.951 107.869 119.333 108.415 119.497C108.142 120.261 107.76 120.807 107.323 121.134ZM110.708 118.405C109.998 119.005 109.234 118.951 108.961 118.896C108.579 118.787 106.723 118.296 104.867 117.695C103.01 117.04 101.154 116.33 100.554 116.112C100.827 115.457 101.154 115.02 101.537 114.747C102.192 114.311 102.901 114.42 103.174 114.474C103.502 114.584 105.249 115.184 107.159 115.73C109.015 116.221 111.035 116.713 111.745 116.822C111.472 117.477 111.144 118.023 110.708 118.405ZM117.04 112.345C116.385 113 115.621 113.055 115.348 113.055C115.075 113 113.983 112.891 112.727 112.673L113.655 113.601C114.201 113.656 114.638 113.765 114.911 113.765C114.856 114.038 114.747 114.311 114.638 114.584C114.474 114.911 114.256 115.239 114.038 115.457C113.382 116.112 112.618 116.112 112.345 116.112C112.018 116.057 110.053 115.675 108.196 115.184C106.286 114.693 104.375 114.038 103.775 113.874C103.993 113.219 104.321 112.782 104.703 112.455C105.303 111.909 106.013 111.963 106.286 112.018C106.559 112.072 107.814 112.455 109.288 112.782C110.762 113.11 112.509 113.437 113.71 113.656L112.782 112.728C110.435 112.345 107.541 111.636 106.723 111.417C106.941 110.762 107.159 110.271 107.541 109.943C108.142 109.398 108.852 109.398 109.125 109.452C109.179 109.452 109.343 109.507 109.561 109.561C110.38 109.725 112.127 110.053 113.874 110.271C115.621 110.489 117.258 110.599 117.859 110.653C117.64 111.308 117.368 111.909 117.04 112.345ZM119.824 109.015C119.278 109.725 118.514 109.834 118.186 109.889C117.804 109.834 115.894 109.725 113.928 109.507C111.963 109.288 109.998 108.906 109.397 108.797C109.561 108.142 109.78 107.596 110.107 107.269C110.653 106.723 111.363 106.668 111.636 106.668C111.963 106.723 113.819 106.996 115.784 107.105C117.695 107.269 119.824 107.323 120.479 107.323C120.425 107.924 120.152 108.524 119.824 109.015ZM122.444 105.467C121.898 106.231 121.189 106.395 120.861 106.395C120.479 106.395 118.569 106.395 116.603 106.286C114.638 106.177 112.673 105.958 112.018 105.849C112.127 105.194 112.345 104.648 112.618 104.266C113.11 103.611 113.819 103.556 114.092 103.556C114.365 103.556 115.675 103.72 117.149 103.72C118.623 103.775 120.425 103.775 121.68 103.72H121.626H121.68C122.226 103.72 122.663 103.666 122.936 103.666C122.936 103.939 122.881 104.212 122.826 104.484C122.772 104.867 122.608 105.194 122.444 105.467ZM124.792 101.81C124.3 102.628 123.591 102.792 123.263 102.847C122.99 102.847 121.898 102.956 120.588 103.011C118.241 103.065 115.239 102.956 114.42 102.901C114.474 102.246 114.638 101.7 114.911 101.264C115.348 100.609 116.057 100.499 116.385 100.499C116.494 100.499 116.603 100.499 116.822 100.499L116.33 100.172L116.822 100.499C117.64 100.499 119.442 100.499 121.189 100.39C122.936 100.281 124.573 100.063 125.174 100.008C125.228 100.718 125.065 101.318 124.792 101.81ZM126.921 97.9883C126.484 98.8072 125.774 99.0801 125.501 99.1347C125.119 99.1893 123.209 99.4076 121.243 99.5714C119.278 99.7352 117.258 99.7352 116.658 99.7352C116.658 99.0801 116.767 98.5342 117.04 98.0975C117.477 97.4424 118.132 97.2241 118.405 97.2241C118.732 97.1695 120.643 97.1149 122.554 96.8965C124.464 96.6782 126.539 96.296 127.194 96.1869C127.303 96.8419 127.194 97.497 126.921 97.9883ZM129.05 92.9661C129.05 93.3482 128.941 93.7303 128.831 94.0033C128.449 94.8221 127.74 95.1497 127.467 95.2588C127.303 95.3134 126.702 95.4226 125.993 95.5318C125.228 95.6956 124.246 95.8047 123.263 95.9685C122.281 96.0777 121.298 96.2414 120.479 96.296C119.66 96.3506 119.005 96.4052 118.678 96.4052C118.623 95.7501 118.732 95.2043 118.951 94.7675C119.333 94.0579 119.988 93.8395 120.261 93.7849C120.534 93.7303 121.844 93.6211 123.318 93.3482C124.792 93.0753 126.593 92.7477 127.74 92.4202C128.285 92.2564 128.722 92.1472 128.941 92.0926C128.995 92.4748 129.05 92.7477 129.05 92.9661L129.377 93.1298L129.05 92.9661ZM130.414 89.9636C130.141 90.8371 129.377 91.1646 129.159 91.2738C128.886 91.3284 127.849 91.6013 126.539 91.9289C124.246 92.4748 121.243 92.9115 120.479 93.0207C120.37 92.3656 120.425 91.7651 120.643 91.3284C120.97 90.6187 121.68 90.3458 121.898 90.2912C121.953 90.2912 122.117 90.2366 122.335 90.182L121.243 89.7453C120.807 89.9636 120.261 90.2912 119.933 91.0554C119.66 91.6559 119.66 92.3656 119.715 93.1844C119.278 93.3482 118.623 93.6757 118.241 94.3854C117.968 94.9859 117.804 95.641 117.913 96.5144C117.422 96.6236 116.822 96.9511 116.385 97.6608C116.057 98.2067 115.894 98.9163 115.894 99.7898H115.839C115.402 99.8989 114.747 100.172 114.311 100.827C113.928 101.318 113.765 102.028 113.71 102.901C113.219 102.956 112.564 103.174 112.072 103.829C111.69 104.321 111.417 104.976 111.308 105.849C110.817 105.904 110.162 106.068 109.616 106.668C109.179 107.159 108.906 107.814 108.742 108.633H108.688C108.197 108.633 107.541 108.797 106.996 109.343C106.504 109.78 106.177 110.435 105.958 111.254C105.467 111.254 104.757 111.308 104.157 111.854C103.666 112.236 103.283 112.891 103.01 113.656C102.519 113.601 101.864 113.656 101.154 114.147C100.609 114.529 100.226 115.129 99.8989 115.894H99.8443C99.353 115.839 98.6979 115.839 98.0428 116.221C97.4969 116.603 97.0602 117.149 96.6781 117.914C96.1868 117.804 95.5317 117.75 94.8221 118.132C94.2216 118.405 93.7849 118.951 93.3481 119.715C92.9114 119.606 92.2018 119.442 91.4375 119.824C90.837 120.097 90.3457 120.588 89.8544 121.298H89.7998C89.3631 121.134 88.708 120.971 87.9438 121.298C87.3433 121.516 86.7974 121.953 86.2515 122.663C85.8148 122.444 85.1597 122.281 84.3409 122.499C83.7404 122.663 83.1399 123.1 82.594 123.755C82.1573 123.536 81.5022 123.318 80.6834 123.482C80.0829 123.645 79.4824 124.028 78.8819 124.628L78.8273 124.573C78.4452 124.3 77.7901 124.082 77.0259 124.191C76.4254 124.3 75.7703 124.628 75.1152 125.229C74.7331 124.956 74.1326 124.628 73.3138 124.737C72.6587 124.792 72.0036 125.065 71.3485 125.611C70.9664 125.338 70.3659 124.956 69.5471 124.956C68.892 124.956 68.2369 125.229 67.5273 125.72L67.4727 125.665C67.1451 125.338 66.5447 124.956 65.7804 124.956C65.1253 124.956 64.4703 125.174 63.706 125.611C63.3785 125.283 62.8326 124.792 62.0137 124.737C61.3587 124.683 60.7036 124.846 59.8847 125.229C59.6118 124.846 59.0659 124.41 58.247 124.246C57.592 124.137 56.9369 124.246 56.1181 124.628V124.573C55.8451 124.191 55.3538 123.7 54.5895 123.536C53.9891 123.372 53.2248 123.482 52.4606 123.755C52.1876 123.372 51.7509 122.772 50.9866 122.554C50.3862 122.39 49.6765 122.39 48.8031 122.608C48.5847 122.172 48.148 121.626 47.3837 121.353C46.7832 121.134 46.0736 121.08 45.2001 121.298V121.243L45.0364 121.626L45.2001 121.243C44.9818 120.807 44.6542 120.261 43.89 119.933C43.2895 119.66 42.5798 119.66 41.7064 119.715C41.5426 119.278 41.2151 118.623 40.5054 118.241C39.905 117.968 39.2499 117.804 38.3764 117.914C38.2673 117.422 37.9397 116.822 37.2301 116.385C36.6842 116.057 35.9745 115.894 35.1011 115.894V115.839C34.9919 115.402 34.7189 114.747 34.1185 114.311C33.5726 113.928 32.8629 113.765 32.0441 113.71C31.9895 113.219 31.7711 112.564 31.116 112.072C30.6247 111.69 29.9697 111.417 29.0962 111.308C29.0416 110.817 28.8779 110.162 28.2774 109.616C27.7861 109.179 27.131 108.906 26.3122 108.742V108.633C26.3122 108.142 26.203 107.487 25.6025 106.941C25.1658 106.504 24.5107 106.177 23.6919 105.958C23.6919 105.467 23.6373 104.757 23.0914 104.157C22.7092 103.666 22.1088 103.284 21.2353 103.011C21.2899 102.574 21.2353 101.864 20.7986 101.155C20.4165 100.609 19.816 100.226 19.0517 99.8989V99.8444C19.1609 99.3531 19.1609 98.698 18.7242 98.0429C18.3421 97.497 17.7962 97.0603 17.0319 96.6782C17.1411 96.1869 17.1957 95.5318 16.8136 94.8221C16.5406 94.2762 15.9947 93.7849 15.2305 93.3482C15.3396 92.9115 15.5034 92.2018 15.1213 91.4376C14.8483 90.8371 14.357 90.3458 13.6474 89.8545V89.7999L12.8285 90.1274L13.6474 89.7453C13.8111 89.3086 13.9749 88.6535 13.6474 87.8892C13.3744 87.2888 12.9923 86.7429 12.2826 86.2516C12.501 85.8148 12.6648 85.1598 12.4464 84.3409C12.2826 83.7404 11.8459 83.14 11.1908 82.5941C11.4092 82.1573 11.6276 81.5023 11.4638 80.6834C11.3546 80.0283 10.9179 79.4825 10.3174 78.882V78.8274C10.5904 78.4452 10.8087 77.7902 10.6995 77.0259C10.5904 76.4254 10.2628 75.7704 9.66233 75.1153C9.93528 74.7332 10.2628 74.0781 10.1536 73.3138C10.099 72.6588 9.8261 72.0037 9.28021 71.3486C9.60774 70.9665 9.93528 70.366 9.93528 69.5471C9.93528 68.8921 9.66233 68.237 9.17103 67.5273L9.22562 67.4727C9.55315 67.1452 9.93528 66.5447 9.93528 65.7805C9.93528 65.1254 9.71692 64.4703 9.28021 63.7061C9.66233 63.3785 10.099 62.8326 10.1536 62.0138C10.2082 61.3587 10.0445 60.649 9.66233 59.8848C10.0445 59.5572 10.4812 59.0659 10.6449 58.2471C10.7541 57.592 10.6449 56.937 10.2628 56.1181L10.3174 56.0635L10.099 56.0089L10.3174 56.0635C10.6995 55.7906 11.1908 55.2993 11.3546 54.535C11.5184 53.9345 11.3546 53.1703 11.1363 52.406C11.573 52.1331 12.1189 51.6964 12.3372 50.9321C12.501 50.3316 12.501 49.6219 12.2826 48.8031C12.7193 48.5847 13.2652 48.148 13.5382 47.3838C13.7565 46.7833 13.8111 46.0736 13.5928 45.2548L13.6474 45.2002C14.0841 44.9818 14.63 44.6543 14.9575 43.89C15.2305 43.2896 15.2305 42.5799 15.1759 41.761C15.6126 41.5973 16.2677 41.2697 16.6498 40.5601C16.9227 39.9596 17.0865 39.3045 16.9773 38.4311C17.4686 38.3219 18.0691 37.9944 18.5058 37.2847C18.8334 36.7388 18.9971 36.0291 18.9971 35.1557H19.0517C19.4885 35.0465 20.1435 34.7736 20.5802 34.1731C20.9624 33.6818 21.1261 32.9721 21.1807 32.0987C21.672 32.0441 22.3271 31.8257 22.8184 31.1707C23.2005 30.6794 23.4735 30.0243 23.5827 29.1509C24.074 29.0963 24.7291 28.9325 25.3295 28.332C25.7663 27.8407 26.0392 27.1856 26.203 26.3668H26.2576C26.7489 26.3668 27.4039 26.203 28.0044 25.6571C28.4411 25.2204 28.7687 24.5653 28.987 23.7465C29.4783 23.7465 30.188 23.6919 30.7885 23.146C31.2798 22.7639 31.6619 22.1634 31.9349 21.29C32.4262 21.3445 33.0813 21.29 33.7909 20.8532C34.3368 20.4711 34.7189 19.8706 35.0465 19.1064H35.1011C35.5924 19.2156 36.2475 19.2156 36.9025 18.7788C37.4484 18.3967 37.8851 17.8508 38.2673 17.0866C38.7586 17.1957 39.4136 17.2503 40.1779 16.8682C40.7238 16.5953 41.2151 16.0494 41.6518 15.2851C42.0885 15.3943 42.7982 15.5035 43.5625 15.1759C44.1629 14.903 44.6542 14.4117 45.1455 13.702H45.2001C45.6369 13.8658 46.2919 14.0295 47.0562 13.702C47.6567 13.4291 48.2026 12.9923 48.7485 12.3373C49.1852 12.5556 49.8403 12.7194 50.6045 12.501C51.205 12.3373 51.8055 11.9006 52.3514 11.2455C52.7881 11.4638 53.4432 11.7368 54.2074 11.5184C54.8625 11.4092 55.4084 10.9725 56.0635 10.372L56.1181 10.4266C56.5002 10.6996 57.1553 10.9725 57.9195 10.8088C58.5746 10.6996 59.1751 10.372 59.8301 9.77156C60.2123 10.0445 60.8128 10.372 61.6316 10.2629C62.2867 10.2083 62.9417 9.93533 63.5968 9.38943C63.979 9.71697 64.5794 10.0445 65.3983 10.0445C66.0534 10.0445 66.7084 9.77156 67.4181 9.28025L67.4727 9.33484C67.8002 9.66238 68.4007 10.0445 69.165 10.0445C69.82 10.0445 70.4751 9.82615 71.2394 9.38943C71.5669 9.71697 72.1128 10.2083 72.9316 10.2629C73.5867 10.3175 74.2418 10.1537 75.006 9.77156C75.279 10.1537 75.8249 10.5904 76.6437 10.7542C77.2988 10.8633 78.0085 10.7542 78.7727 10.372L78.8273 10.4266V10.372V10.4266C79.1003 10.8088 79.5916 11.3001 80.3558 11.4638C80.9563 11.6276 81.7206 11.5184 82.4848 11.2455C82.7032 11.6276 83.1945 12.1735 83.9587 12.4464C84.5592 12.6102 85.2689 12.6102 86.0877 12.3919C86.3061 12.8286 86.7428 13.3745 87.5071 13.6474C88.1075 13.8658 88.8172 13.9204 89.6906 13.702V13.7566L89.7998 13.4291L89.6906 13.7566C89.909 14.1933 90.2365 14.7392 91.0008 15.0667C91.5467 15.3397 92.3109 15.3397 93.1298 15.2851C93.2935 15.7218 93.6211 16.3769 94.3307 16.759C94.9312 17.032 95.5863 17.1957 96.4597 17.0866C96.5689 17.5779 96.8965 18.1784 97.6061 18.6151C98.152 18.9426 98.8617 19.1064 99.7351 19.1064V19.161C99.8443 19.5977 100.117 20.2528 100.718 20.6895C101.264 21.0716 101.973 21.2354 102.792 21.29C102.847 21.7813 103.065 22.4363 103.72 22.9276C104.211 23.3098 104.867 23.5827 105.74 23.6919C105.795 24.1832 105.958 24.8383 106.559 25.3842C106.996 25.8209 107.705 26.0938 108.524 26.2576V26.3122C108.524 26.8035 108.688 27.4586 109.234 28.0045C109.67 28.4412 110.325 28.7687 111.144 29.0417C111.144 29.533 111.199 30.2426 111.745 30.8431C112.127 31.3344 112.727 31.7166 113.546 31.9895C113.492 32.4808 113.546 33.1359 114.038 33.8456C114.42 34.3915 115.02 34.7736 115.784 35.1011V35.1557C115.73 35.647 115.675 36.3021 116.112 36.9572C116.44 37.5031 117.04 37.9398 117.804 38.3219C117.695 38.8132 117.64 39.4683 118.023 40.178C118.296 40.7238 118.841 41.2697 119.606 41.6519C119.442 42.0886 119.333 42.7983 119.715 43.5625C119.988 44.163 120.479 44.6543 121.189 45.1456L121.134 45.2002L121.243 45.1456L121.134 45.2002C120.97 45.6369 120.861 46.292 121.134 47.0562C121.353 47.6567 121.844 48.2026 122.499 48.6939C122.281 49.1306 122.117 49.7857 122.335 50.6046C122.499 51.205 122.936 51.8055 123.591 52.3514C123.372 52.7336 123.154 53.4432 123.318 54.2075C123.482 54.8625 123.864 55.4084 124.464 56.0635L124.41 56.1181C124.137 56.5002 123.864 57.1553 124.027 57.9196C124.137 58.5746 124.464 59.1751 125.065 59.8302C124.792 60.2123 124.464 60.8674 124.573 61.6317C124.628 62.2867 124.901 62.9418 125.447 63.5969C125.119 63.979 124.792 64.5795 124.792 65.3983C124.792 66.0534 125.065 66.7085 125.556 67.4182L125.501 67.4727C125.174 67.8003 124.792 68.4008 124.792 69.165C124.792 69.8201 125.01 70.4752 125.447 71.2394C125.119 71.567 124.628 72.1129 124.573 72.9317C124.519 73.5868 124.683 74.2964 125.065 75.0061C124.683 75.279 124.246 75.8249 124.082 76.6438C123.973 77.2989 124.082 78.0085 124.464 78.7728L124.41 78.8274C124.027 79.1003 123.536 79.5916 123.372 80.3559C123.209 80.9564 123.318 81.7206 123.591 82.4849C123.154 82.7578 122.608 83.1945 122.39 83.9588C122.226 84.5593 122.226 85.2689 122.444 86.0878C122.008 86.3061 121.462 86.7429 121.189 87.5071C120.97 88.1076 120.916 88.8173 121.134 89.6907H121.08L122.171 90.1274C122.99 89.9637 124.737 89.5815 126.429 89.1448C128.067 88.7081 129.705 88.1622 130.251 87.9984C130.578 88.8173 130.578 89.4178 130.414 89.9636ZM131.725 85.8148C131.452 86.6883 130.851 87.125 130.578 87.2342C130.196 87.3434 128.34 87.9984 126.484 88.4897C124.628 89.0356 122.608 89.4178 122.008 89.5269C121.898 88.8719 121.898 88.326 122.062 87.8346C122.335 87.0704 122.99 86.7975 123.209 86.6883C123.536 86.5791 125.392 86.1424 127.248 85.5419C129.104 84.9414 131.07 84.1772 131.67 83.9042C131.888 84.6139 131.888 85.2689 131.725 85.8148ZM132.816 81.5568C132.598 82.4849 131.998 82.9216 131.725 83.0308C131.561 83.0854 131.015 83.3037 130.305 83.6313C129.596 83.9042 128.668 84.2317 127.74 84.5593C126.812 84.8868 125.884 85.1598 125.119 85.4327C124.3 85.6511 123.7 85.8148 123.372 85.924C123.209 85.2689 123.209 84.7231 123.318 84.2317C123.536 83.4675 124.137 83.14 124.41 83.0308C124.683 82.9216 125.938 82.5395 127.303 81.9936C128.722 81.4477 130.36 80.738 131.452 80.2467L130.305 80.0284L131.452 80.2467C131.943 79.9738 132.38 79.81 132.598 79.7008C132.707 79.9738 132.762 80.2467 132.816 80.5197C132.871 80.9018 132.871 81.2293 132.816 81.5568ZM132.598 78.8274C132.38 78.9366 131.397 79.4279 130.196 79.9738C128.067 80.9564 125.228 81.9936 124.464 82.2665C124.246 81.6114 124.191 81.0656 124.3 80.5742C124.464 79.81 125.119 79.4279 125.338 79.2641C125.392 79.2641 125.556 79.1549 125.774 79.1003L125.611 79.0457L125.829 79.1003C126.593 78.7728 128.231 78.0631 129.814 77.2989C131.342 76.5346 132.816 75.7158 133.362 75.3882C133.635 76.0433 133.744 76.6984 133.69 77.2443C133.471 78.1723 132.816 78.6636 132.598 78.8274ZM133.199 74.5148C132.871 74.6786 131.179 75.6612 129.432 76.5346C127.685 77.408 125.829 78.2269 125.228 78.4452C124.955 77.8448 124.901 77.2443 124.955 76.753C125.119 75.9887 125.611 75.552 125.884 75.3882C126.211 75.2245 127.903 74.4056 129.596 73.4776C131.288 72.495 133.035 71.4032 133.635 71.0211C133.963 71.6761 134.072 72.3312 134.072 72.8771C133.963 73.8597 133.417 74.351 133.199 74.5148Z" fill="#232323"/>
<path d="M100.008 84.7776C99.7897 84.7776 99.5714 84.723 99.353 84.5592C99.0801 84.3409 96.6781 82.2665 95.9139 79.4278C95.4226 77.6809 95.5863 75.6065 95.7501 73.5867C95.8593 72.3312 95.9685 71.021 95.8593 70.0384C95.8047 69.4379 95.4772 68.4553 95.095 67.3089C93.9487 63.7606 92.3656 58.9021 95.8047 56.7186C97.0057 55.9543 98.2066 55.5722 99.4076 55.5722C100.718 55.5722 101.755 56.0089 102.574 56.3364C103.065 56.5548 103.502 56.7186 103.775 56.7186C104.048 56.7186 104.539 56.5002 104.976 56.3364C105.74 56.0089 106.832 55.5176 108.142 55.5176C109.343 55.5176 110.489 55.8997 111.745 56.664C114.474 58.4108 113.983 61.9046 113.328 64.4157L113.383 64.5794L113.219 64.7978C113 65.6166 112.727 66.4355 112.455 67.1997C112.072 68.2915 111.745 69.3287 111.69 69.9292C111.581 70.9118 111.69 72.1674 111.799 73.4775V73.5321C111.963 75.5519 112.127 77.6264 111.636 79.3732C110.871 82.2119 108.469 84.2863 108.197 84.5046C107.869 84.7776 107.432 84.8322 107.05 84.6138C106.668 84.3955 106.504 83.9587 106.559 83.5766C106.886 81.7752 107.214 78.0631 106.34 75.7157C105.412 73.2046 103.993 72.1674 103.666 72.1128C103.393 72.1674 101.973 73.2046 101.045 75.7157C99.9535 78.7181 100.827 83.522 100.827 83.5766C100.882 84.0133 100.718 84.3955 100.336 84.6138C100.336 84.723 100.172 84.7776 100.008 84.7776ZM103.829 70.9664C104.867 70.9664 106.613 72.7133 107.541 75.3336C108.524 78.0631 108.087 81.9935 107.869 83.3583C108.524 82.7032 110.053 81.1201 110.598 79.1003C111.035 77.5718 110.871 75.6065 110.708 73.6413L111.308 73.5321L110.708 73.5867C110.598 72.222 110.489 70.9118 110.598 69.82C110.653 69.1104 110.981 68.0186 111.417 66.8176C111.69 65.9988 111.963 65.1799 112.182 64.3065L112.236 64.0336C113.11 60.5944 112.782 58.6292 111.144 57.592C110.107 56.9369 109.179 56.6094 108.197 56.6094C107.159 56.6094 106.231 56.9915 105.467 57.319C104.867 57.592 104.321 57.8103 103.775 57.8103C103.229 57.8103 102.683 57.592 102.137 57.319C101.373 56.9915 100.499 56.6094 99.4076 56.6094C98.425 56.6094 97.4424 56.9369 96.4598 57.592C93.7303 59.2843 95.1496 63.6514 96.1868 66.8176C96.569 68.0732 96.9511 69.1104 97.0057 69.82C97.1148 70.9118 97.0057 72.2766 96.8965 73.5867C96.7327 75.4974 96.569 77.5172 97.0057 79.0457C97.5516 81.0109 99.0801 82.6486 99.7351 83.3037C99.5168 81.9935 99.0801 78.0085 100.063 75.279C101.045 72.7679 102.792 70.9664 103.829 70.9664Z" fill="#232323"/>
<path d="M63.4331 48.7485C63.2147 48.7485 62.9964 48.6939 62.778 48.5302C62.5051 48.3118 60.1031 46.2374 59.3389 43.3988C58.8476 41.6519 59.0113 39.5775 59.1751 37.5577C59.2843 36.3021 59.3935 34.992 59.2843 34.0093C59.2297 33.4089 58.9021 32.4263 58.52 31.2799C57.3736 27.7315 55.7905 22.8731 59.2297 20.6895C60.4307 19.9252 61.6316 19.5431 62.8326 19.5431C64.1427 19.5431 65.1799 19.9798 65.9988 20.3074C66.4901 20.5257 66.9268 20.6895 67.1998 20.6895C67.4727 20.6895 67.964 20.4711 68.4007 20.3074C69.165 19.9798 70.2568 19.4885 71.5669 19.4885C72.7679 19.4885 73.9143 19.8707 75.1698 20.6349C77.8993 22.3818 77.408 25.8755 76.7529 28.3866L76.8075 28.5504L76.6438 28.7688C76.4254 29.5876 76.1525 30.4064 75.8795 31.1707C75.4974 32.2625 75.1698 33.2997 75.1153 33.9002C75.0061 34.8828 75.1153 36.1383 75.2244 37.4485V37.5031C75.3882 39.5229 75.552 41.5973 75.0607 43.3442C74.2964 46.1828 71.8945 48.2572 71.6215 48.4756C71.294 48.7485 70.8573 48.8031 70.4751 48.5848C70.093 48.3664 69.9292 47.9297 69.9838 47.5476C70.3114 45.7461 70.6389 42.034 69.7655 39.6867C68.8375 37.1755 67.4181 36.1383 67.0906 36.0838C66.8176 36.1383 65.3983 37.1755 64.4703 39.6867C63.3785 42.6891 64.2519 47.493 64.2519 47.5476C64.3065 47.9843 64.1427 48.3664 63.7606 48.5848C63.7606 48.6939 63.5968 48.7485 63.4331 48.7485ZM67.2544 34.9374C68.2916 34.9374 70.0384 36.6842 70.9664 39.3045C71.9491 42.034 71.5123 45.9645 71.294 47.3292C71.9491 46.6741 73.4776 45.091 74.0235 43.0712C74.4602 41.5427 74.2964 39.5775 74.1326 37.6123L74.7331 37.5031L74.1326 37.5577C74.0235 36.1929 73.9143 34.8828 74.0235 33.791C74.0781 33.0813 74.4056 31.9895 74.8423 30.7886C75.1153 29.9697 75.3882 29.1509 75.6066 28.2774L75.6612 28.0045C76.5346 24.5654 76.207 22.6001 74.5694 21.5629C73.5322 20.9079 72.6041 20.5803 71.6215 20.5803C70.5843 20.5803 69.6563 20.9624 68.892 21.29C68.2916 21.5629 67.7457 21.7813 67.1998 21.7813C66.6539 21.7813 66.108 21.5629 65.5621 21.29C64.7978 20.9624 63.9244 20.5803 62.8326 20.5803C61.85 20.5803 60.8674 20.9079 59.8848 21.5629C57.1553 23.2552 58.5746 27.6224 59.6118 30.7886C59.9939 32.0441 60.3761 33.0813 60.4307 33.791C60.5398 34.8828 60.4307 36.2475 60.3215 37.5577C60.1577 39.4683 59.9939 41.4881 60.4307 43.0166C60.9766 44.9819 62.5051 46.6195 63.1601 47.2746C62.9418 45.9645 62.5051 41.9794 63.4877 39.25C64.4703 36.7388 66.2171 34.9374 67.2544 34.9374Z" fill="#232323"/>
<path d="M27.404 83.6858C27.1856 83.6858 26.9673 83.6312 26.7489 83.4674C26.4759 83.2491 24.074 81.1747 23.3098 78.336C22.8184 76.5891 22.9822 74.5147 23.146 72.4949C23.2552 71.2394 23.3643 69.9292 23.2552 68.9466C23.2006 68.3461 22.873 67.3635 22.4909 66.2171C21.3445 62.6688 19.7614 57.8103 23.2006 55.6268C24.4015 54.8625 25.6025 54.4804 26.8035 54.4804C28.1136 54.4804 29.1508 54.9171 29.9697 55.2446C30.461 55.463 30.8977 55.6268 31.1706 55.6268C31.4436 55.6268 31.9349 55.4084 32.3716 55.2446C33.1359 54.9171 34.2277 54.4258 35.5378 54.4258C36.7388 54.4258 37.8852 54.8079 39.1407 55.5722C41.8702 57.319 41.3789 60.8128 40.7238 63.3239L40.7784 63.4877L40.6146 63.706C40.3963 64.5249 40.1233 65.3437 39.8504 66.1079C39.4683 67.1997 39.1407 68.2369 39.0861 68.8374C38.977 69.82 39.0861 71.0756 39.1953 72.3858V72.4403C39.3591 74.4602 39.5229 76.5346 39.0315 78.2814C38.2673 81.1201 35.8653 83.1945 35.5924 83.4128C35.2649 83.6858 34.8281 83.7404 34.446 83.522C34.0639 83.3037 33.9001 82.8669 33.9547 82.4848C34.2823 80.6834 34.6098 76.9713 33.7364 74.6239C32.8083 72.1128 31.389 71.0756 31.0615 71.021C30.7885 71.0756 29.3692 72.1128 28.4412 74.6239C27.3494 77.6263 28.2228 82.4302 28.2228 82.4848C28.2774 82.9215 28.1136 83.3037 27.7315 83.522C27.7315 83.6312 27.5677 83.6858 27.404 83.6858ZM31.2252 69.8746C32.2624 69.8746 34.0093 71.6215 34.9373 74.2418C35.9199 76.9713 35.4832 80.9017 35.2649 82.2665C35.9199 81.6114 37.4484 80.0283 37.9943 78.0085C38.4311 76.48 38.2673 74.5147 38.1035 72.5495L38.704 72.4403L38.1035 72.4949C37.9943 71.1302 37.8852 69.82 37.9943 68.7282C38.0489 68.0186 38.3765 66.9268 38.8132 65.7258C39.0861 64.907 39.3591 64.0881 39.5774 63.2147L39.632 62.9418C40.5055 59.5026 40.1779 57.5374 38.5402 56.5002C37.503 55.8451 36.575 55.5176 35.5924 55.5176C34.5552 55.5176 33.6272 55.8997 32.8629 56.2272C32.2624 56.5002 31.7165 56.7185 31.1706 56.7185C30.6248 56.7185 30.0789 56.5002 29.533 56.2272C28.7687 55.8997 27.8953 55.5176 26.8035 55.5176C25.8209 55.5176 24.8383 55.8451 23.8556 56.5002C21.1262 58.1925 22.5455 62.5596 23.5827 65.7258C23.9648 66.9814 24.347 68.0186 24.4015 68.7282C24.5107 69.82 24.4015 71.1848 24.2924 72.4949C24.1286 74.4056 23.9648 76.4254 24.4015 77.9539C24.9474 79.9191 26.4759 81.5568 27.131 82.2119C26.9127 80.9017 26.4759 76.9167 27.4586 74.1872C28.4412 71.6761 30.188 69.8746 31.2252 69.8746Z" fill="#232323"/>
<path d="M65.6166 114.802C65.3983 114.802 65.1799 114.747 64.9616 114.583C64.6886 114.365 62.2867 112.291 61.5224 109.452C61.0311 107.705 61.1949 105.631 61.3587 103.611C61.4678 102.355 61.577 101.045 61.4678 100.063C61.4132 99.4622 61.0857 98.4796 60.7036 97.3332C59.5572 93.7849 57.9741 88.9264 61.4132 86.7428C62.6142 85.9786 63.8152 85.5965 65.0162 85.5965C66.3263 85.5965 67.3635 86.0332 68.1824 86.3607C68.6737 86.5791 69.1104 86.7428 69.3833 86.7428C69.6563 86.7428 70.1476 86.5245 70.5843 86.3607C71.3485 86.0332 72.4403 85.5419 73.7505 85.5419C74.9515 85.5419 76.0978 85.924 77.3534 86.6883C80.0829 88.4351 79.5916 91.9288 78.9365 94.44L78.9911 94.6037L78.8273 94.8221C78.6089 95.6409 78.336 96.4598 78.0631 97.224C77.6809 98.3158 77.3534 99.353 77.2988 99.9535C77.1896 100.936 77.2988 102.192 77.408 103.502V103.556C77.5718 105.576 77.7355 107.651 77.2442 109.397C76.48 112.236 74.078 114.311 73.8051 114.529C73.4775 114.802 73.0408 114.856 72.6587 114.638C72.2766 114.42 72.1128 113.983 72.1674 113.601C72.4949 111.799 72.8225 108.087 71.949 105.74C71.021 103.229 69.6017 102.192 69.2741 102.137C69.0012 102.192 67.5819 103.229 66.6538 105.74C65.5621 108.742 66.4355 113.546 66.4355 113.601C66.4901 114.038 66.3263 114.42 65.9442 114.638C65.9442 114.747 65.7804 114.802 65.6166 114.802ZM69.4379 100.991C70.4751 100.991 72.222 102.738 73.15 105.358C74.1326 108.087 73.6959 112.018 73.4775 113.383C74.1326 112.727 75.6611 111.144 76.207 109.125C76.6437 107.596 76.48 105.631 76.3162 103.666L76.9167 103.556L76.3162 103.611C76.207 102.246 76.0978 100.936 76.207 99.8443C76.2616 99.1347 76.5891 98.0429 77.0259 96.8419C77.2988 96.0231 77.5717 95.2042 77.7901 94.3308L77.8447 94.0578C78.7181 90.6187 78.3906 88.6535 76.7529 87.6163C75.7157 86.9612 74.7877 86.6337 73.8051 86.6337C72.7679 86.6337 71.8398 87.0158 71.0756 87.3433C70.4751 87.6163 69.9292 87.8346 69.3833 87.8346C68.8374 87.8346 68.2915 87.6163 67.7456 87.3433C66.9814 87.0158 66.1079 86.6337 65.0162 86.6337C64.0335 86.6337 63.0509 86.9612 62.0683 87.6163C59.3388 89.3085 60.7582 93.6757 61.7954 96.8419C62.1775 98.0975 62.5596 99.1347 62.6142 99.8443C62.7234 100.936 62.6142 102.301 62.505 103.611C62.3413 105.522 62.1775 107.541 62.6142 109.07C63.1601 111.035 64.6886 112.673 65.3437 113.328C65.1253 112.018 64.6886 108.033 65.6712 105.303C66.6538 102.792 68.4007 100.991 69.4379 100.991Z" fill="#232323"/>
</g>
<defs>
<clipPath id="clip0_1_1765">
<rect width="135" height="135" fill="white"/>
</clipPath>
</defs>
</svg>
