<svg width="150" height="134" viewBox="0 0 150 134" fill="none" xmlns="http://www.w3.org/2000/svg">
<g id="Group">
<path id="Vector" d="M1.08342 74.721H148.862C149.458 74.721 149.946 74.2325 149.946 73.6354C149.946 73.0384 149.458 72.5499 148.862 72.5499H137.107C137.324 71.3015 137.703 70.1074 138.353 69.1847L141.116 65.1138C142.633 62.9427 142.308 59.5775 140.412 57.7321L136.945 54.2583C135.049 52.3586 134.02 48.722 134.67 46.1709L135.807 41.3402C136.403 38.7349 134.94 35.7496 132.503 34.7183L128.007 32.7101C125.569 31.6245 123.294 28.6393 122.969 25.9797L122.264 21.0947C121.885 18.4893 119.447 16.2097 116.793 16.1011L111.863 15.884C109.209 15.7754 106.013 13.7672 104.713 11.4332L102.329 7.09103C101.029 4.75709 97.9415 3.56298 95.4496 4.43142L90.7909 6.00547C88.299 6.87392 84.5612 6.16831 82.5569 4.43142L78.7649 1.28332C76.7064 -0.39929 73.4019 -0.39929 71.3434 1.28332L67.5515 4.43142C65.493 6.11403 61.8093 6.81964 59.3174 6.00547L54.6587 4.43142C52.0585 3.56298 48.9707 4.75709 47.6706 7.03675L45.2871 11.379C43.987 13.7129 40.7909 15.6669 38.1365 15.8297L33.2069 16.0468C30.5525 16.1554 28.1148 18.4351 27.7356 21.0404L27.0314 25.9254C26.6522 28.5307 24.377 31.5702 21.9393 32.6558L17.4431 34.6641C15.0054 35.7496 13.5428 38.7349 14.1387 41.2859L15.2763 46.1167C15.8722 48.722 14.8429 52.3586 13.0011 54.204L9.53413 57.6778C7.63814 59.5775 7.36728 62.8885 8.8299 65.0596L11.5926 69.1304C12.2427 70.0531 12.6219 71.2472 12.8386 72.4956H1.08342C0.487541 72.4956 0 72.9841 0 73.5812C0 74.2325 0.487541 74.721 1.08342 74.721ZM26.6522 66.9593C26.6522 40.2547 48.3207 18.5436 74.9729 18.5436C101.625 18.5436 123.294 40.2547 123.294 66.9593C123.294 68.859 123.185 70.7044 122.969 72.5499H106.609V65.6566H109.155V64.5168H109.859V48.6677H111.593V47.4193H109.155V46.5509H107.096V39.929H109.155V38.6806H103.359V39.929H105.417V46.5509H103.359V47.4193H100.921V48.6677H102.709V64.5168H103.359V65.6566H105.905V72.5499H90.3575C90.3575 70.7044 90.195 68.8047 90.0325 66.9593C89.8158 64.2454 89.5991 61.6401 89.8158 59.5775C89.9242 58.2206 90.6284 56.158 91.3868 53.8241C91.9285 52.25 92.4702 50.5132 92.9577 48.722H93.0119V48.6677C94.5287 42.9686 95.1788 36.8352 90.4117 33.8499C88.1365 32.4387 86.0238 31.7331 83.8028 31.7331C81.4193 31.7331 79.4691 32.5472 77.8982 33.2529C76.7606 33.7414 75.7855 34.1213 74.9729 34.1213C74.1603 34.1213 73.1853 33.6871 72.0477 33.2529C70.4767 32.6015 68.4724 31.7331 66.143 31.7331C63.9762 31.7331 61.8093 32.4387 59.5341 33.8499C53.3044 37.8122 56.338 47.0394 58.559 53.8241C59.3174 56.2123 60.0217 58.2749 60.13 59.5775C60.3467 61.6943 60.13 64.2454 59.9133 66.9593C59.7508 68.859 59.6425 70.7587 59.5883 72.5499H43.2828V65.6566H45.8288V64.5168H46.533V48.6677H48.2665V47.4193H45.8288V46.5509H43.7703V39.929H45.8288V38.6806H40.0325V39.929H42.091V46.5509H40.0325V47.4193H37.5948V48.6677H39.3824V64.5168H40.0325V65.6566H42.5785V72.5499H26.9772C26.7606 70.7044 26.6522 68.859 26.6522 66.9593ZM103.25 62.2914V61.043H106.338V60.5545H103.25V59.3061H106.338V58.8176H103.25V57.5692H106.338V57.0807H103.25V55.8866H106.338V55.3981H103.25V54.1498H106.338V53.7155H103.25V52.4671H106.338V51.9786H103.25V50.7303H106.338V50.2418H103.25V48.9391H109.426V64.0283H103.25V62.7256H106.338V62.2371H103.25V62.2914ZM82.286 46.1709V51.5987H77.6815V56.2123H72.2644V51.5987H67.6598V46.1709H72.2644V41.5573H77.6815V46.1709H82.286ZM68.5807 70.8673C70.5309 65.5481 73.7812 64.5168 75.0271 64.5168C76.2188 64.5168 79.5233 65.5481 81.4734 70.8673C81.6901 71.41 81.8527 71.9528 81.961 72.5499H68.1473C68.2015 71.9528 68.364 71.41 68.5807 70.8673ZM39.87 62.2914V61.043H42.9577V60.5545H39.87V59.3061H42.9577V58.8176H39.87V57.5692H42.9577V57.0807H39.87V55.8866H42.9577V55.3981H39.87V54.1498H42.9577V53.7155H39.87V52.4671H42.9577V51.9786H39.87V50.7303H42.9577V50.2418H39.87V48.9391H46.0455V64.0283H39.87V62.7256H42.9577V62.2371H39.87V62.2914ZM21.5601 67.5021C21.5601 37.9207 45.5038 13.93 75.0271 13.93C104.55 13.93 128.494 37.9207 128.494 67.5021C128.494 69.1847 128.386 70.8673 128.223 72.5499H125.244C125.46 70.7044 125.569 68.859 125.569 66.9593C125.569 39.0606 102.925 16.3182 75.0271 16.3182C47.1289 16.3182 24.4312 39.0606 24.4312 66.9593C24.4312 68.859 24.5395 70.7044 24.7562 72.5499H21.7768C21.6143 70.8673 21.5601 69.1847 21.5601 67.5021Z" fill="#C8453F"/>
<path id="Vector_2" d="M148.917 98.5896H1.08342C0.487541 98.5896 0 99.0781 0 99.6752C0 100.272 0.487541 100.761 1.08342 100.761H20.1517L19.9892 104.452C19.8808 107.111 21.8852 109.771 24.4312 110.368L29.2524 111.508C31.8527 112.105 34.6154 114.656 35.4821 117.153L37.0531 121.82C37.8657 124.317 40.7367 126.108 43.3369 125.728L48.2123 125.023C50.8126 124.643 54.3337 126 56.0672 128.062L59.2091 131.862C60.8884 133.924 64.1928 134.521 66.468 133.219L70.7476 130.831C73.0769 129.528 76.8147 129.528 79.1441 130.831L83.4236 133.219C85.753 134.521 89.0033 133.87 90.6826 131.862L93.8245 128.062C95.5038 126 99.0249 124.643 101.679 125.023L106.555 125.728C109.155 126.108 112.026 124.317 112.839 121.82L114.41 117.153C115.222 114.656 118.039 112.105 120.639 111.508L125.46 110.368C128.007 109.771 130.065 107.111 129.902 104.452L129.74 100.761H148.808C149.404 100.761 149.892 100.272 149.892 99.6752C150 99.0781 149.512 98.5896 148.917 98.5896ZM109.588 100.815C100.813 109.825 88.5699 115.47 75.0271 115.47C61.4843 115.47 49.2416 109.879 40.4659 100.815H109.588ZM74.9729 121.115C58.0173 121.115 42.9036 113.19 33.0986 100.815H37.3781C46.6414 111.128 60.0758 117.641 74.9729 117.641C89.87 117.641 103.304 111.128 112.568 100.815H116.847C107.096 113.136 91.9827 121.115 74.9729 121.115Z" fill="#C8453F"/>
<path id="Vector_3" d="M3.25027 81.4922V87.4084C3.25027 88.4397 3.46696 89.2539 3.84616 89.9595C4.22536 90.6651 4.76707 91.2079 5.47129 91.5335C6.17552 91.9135 6.93392 92.0763 7.85483 92.0763C8.72157 92.0763 9.53413 91.9135 10.2925 91.5335C10.9968 91.1536 11.5926 90.6651 12.026 89.9595C12.4594 89.2539 12.6761 88.3854 12.6761 87.4084V81.4922H9.37162V87.4084C9.37162 87.8969 9.26328 88.2769 9.04659 88.5483C8.82991 88.8197 8.45071 88.9825 8.01734 88.9825C7.58397 88.9825 7.20477 88.8197 6.98809 88.5483C6.7714 88.2769 6.66306 87.8969 6.66306 87.4084V81.4922H3.25027Z" fill="#C8453F"/>
<path id="Vector_4" d="M22.3185 86.8114C22.6977 86.2686 22.9144 85.6172 22.9144 84.9116C22.9144 84.2603 22.7519 83.6633 22.481 83.1205C22.156 82.5777 21.7226 82.1978 21.1268 81.8721C20.5309 81.5464 19.7725 81.4379 18.9599 81.4379H14.0303V91.9677H17.3348V88.1683L19.3391 91.9677H22.9686L20.6934 87.9512C21.3434 87.7884 21.9393 87.3541 22.3185 86.8114ZM19.2849 85.8344C19.1224 85.9972 18.9057 86.0515 18.5807 86.0515H17.2806V84.2603H18.5807C18.9057 84.2603 19.1224 84.3146 19.2849 84.4774C19.4475 84.6403 19.5558 84.8574 19.5558 85.1287C19.5558 85.4544 19.4475 85.6715 19.2849 85.8344Z" fill="#C8453F"/>
<path id="Vector_5" d="M28.9816 84.4231C29.3066 84.4231 29.6316 84.4774 29.8483 84.5859C30.065 84.6945 30.2817 84.8573 30.39 85.0744H33.857C33.6945 83.9346 33.2069 83.0119 32.3402 82.3605C31.4734 81.7092 30.3358 81.3835 28.9816 81.3835C27.8981 81.3835 26.9772 81.6007 26.1647 82.0349C25.3521 82.4691 24.7562 83.1204 24.3228 83.9346C23.8895 84.7488 23.6728 85.6715 23.6728 86.7028C23.6728 87.734 23.8895 88.6568 24.3228 89.4709C24.7562 90.2851 25.3521 90.9364 26.1647 91.3706C26.9772 91.8049 27.8981 92.022 29.0357 92.022C30.2817 92.022 31.2568 91.7506 32.0693 91.2078C32.8819 90.665 33.4778 89.9594 33.9653 89.1995V85.8886H28.6024V88.2225H31.2568C30.7692 88.8196 30.1733 89.1452 29.4149 89.1452C28.6024 89.1452 28.0065 88.9281 27.6273 88.5482C27.2481 88.114 27.0314 87.5169 27.0314 86.7028C27.0314 85.9971 27.1939 85.4001 27.5731 85.0202C27.844 84.6402 28.3315 84.4231 28.9816 84.4231Z" fill="#C8453F"/>
<path id="Vector_6" d="M42.1452 84.0975V81.4922H35.1029V92.022H42.1452V89.4167H38.4073V87.8969H41.7118V85.4002H38.4073V84.0975H42.1452Z" fill="#C8453F"/>
<path id="Vector_7" d="M46.6956 81.4922H43.3911V92.022H46.6956V86.7571L50.1625 92.022H53.4669V81.4922H50.1625V86.8657L46.6956 81.4922Z" fill="#C8453F"/>
<path id="Vector_8" d="M59.805 84.4231C60.1842 84.4231 60.5092 84.5317 60.8342 84.6945C61.1051 84.9116 61.376 85.183 61.4843 85.5086H64.9513C64.7887 84.6945 64.5179 83.9346 64.0303 83.3375C63.5428 82.7405 63.0011 82.252 62.2969 81.872C61.5926 81.4921 60.7801 81.3835 59.8592 81.3835C58.7757 81.3835 57.8548 81.6007 57.0964 82.0349C56.338 82.4691 55.688 83.1204 55.3088 83.9346C54.8754 84.7488 54.6587 85.6715 54.6587 86.7028C54.6587 87.734 54.8754 88.6568 55.3088 89.4709C55.7421 90.2851 56.338 90.9364 57.0964 91.3706C57.8548 91.8049 58.7757 92.022 59.8592 92.022C60.7801 92.022 61.5926 91.8591 62.2969 91.5335C63.0011 91.2078 63.597 90.7193 64.0303 90.068C64.4637 89.4166 64.7887 88.711 64.9513 87.8969H61.4843C61.3218 88.2225 61.1051 88.4939 60.8342 88.711C60.5634 88.9281 60.1842 88.9824 59.805 88.9824C59.2633 88.9824 58.8299 88.7653 58.5049 88.3311C58.1798 87.8969 58.0173 87.3541 58.0173 86.6485C58.0173 85.9429 58.1798 85.4001 58.5049 84.9659C58.8299 84.6402 59.2633 84.4231 59.805 84.4231Z" fill="#C8453F"/>
<path id="Vector_9" d="M73.1852 84.0975V81.4922H66.143V92.022H73.1852V89.4167H69.4474V87.8969H72.7519V85.4002H69.4474V84.0975H73.1852Z" fill="#C8453F"/>
<path id="Vector_10" d="M84.2362 82.1435C83.4236 81.7093 82.4486 81.4922 81.3651 81.4922H76.9231V92.022H81.311C82.3944 92.022 83.3695 91.8049 84.182 91.3164C84.9946 90.8279 85.6447 90.2309 86.078 89.4167C86.5114 88.6025 86.7281 87.7341 86.7281 86.7028C86.7281 85.6716 86.5114 84.8031 86.078 83.9889C85.6988 83.2291 85.0488 82.632 84.2362 82.1435ZM82.8277 88.494C82.3944 88.9282 81.7985 89.091 81.0401 89.091H80.2275V84.3689H81.0401C81.7985 84.3689 82.3944 84.586 82.8277 84.9659C83.2611 85.3459 83.4778 85.9429 83.4778 86.7028C83.4778 87.517 83.2611 88.0598 82.8277 88.494Z" fill="#C8453F"/>
<path id="Vector_11" d="M95.8288 82.0348C95.0163 81.5463 94.0954 81.3292 93.1203 81.3292C92.1452 81.3292 91.2243 81.5463 90.4117 82.0348C89.5991 82.5233 88.9491 83.1204 88.4616 83.9888C87.974 84.803 87.7573 85.7257 87.7573 86.757C87.7573 87.7883 87.974 88.711 88.4616 89.5251C88.9491 90.3393 89.5991 90.9906 90.4117 91.4791C91.2243 91.9676 92.1452 92.1848 93.1203 92.1848C94.0954 92.1848 95.0163 91.9676 95.8288 91.4791C96.6414 90.9906 97.2915 90.3936 97.779 89.5251C98.2665 88.711 98.4832 87.7883 98.4832 86.757C98.4832 85.7257 98.2665 84.803 97.779 83.9888C97.2915 83.1204 96.6414 82.4691 95.8288 82.0348ZM94.6371 88.4396C94.2579 88.8738 93.7703 89.0909 93.1203 89.0909C92.4702 89.0909 91.9285 88.8738 91.6035 88.4396C91.2243 88.0054 91.0618 87.4626 91.0618 86.757C91.0618 86.0514 91.2243 85.4543 91.6035 85.0201C91.9827 84.5859 92.4702 84.3688 93.1203 84.3688C93.7703 84.3688 94.2579 84.5859 94.6371 85.0201C95.0163 85.4543 95.1788 85.9971 95.1788 86.757C95.1788 87.4626 95.0163 88.0054 94.6371 88.4396Z" fill="#C8453F"/>
<path id="Vector_12" d="M99.6208 81.4922V87.4084C99.6208 88.4397 99.8375 89.2539 100.217 89.9595C100.596 90.6651 101.138 91.2079 101.842 91.5335C102.546 91.9135 103.304 92.0763 104.225 92.0763C105.146 92.0763 105.905 91.9135 106.663 91.5335C107.367 91.1536 107.963 90.6651 108.397 89.9595C108.83 89.2539 109.047 88.3854 109.047 87.4084V81.4922H105.742V87.4084C105.742 87.8969 105.634 88.2769 105.417 88.5483C105.2 88.8197 104.821 88.9825 104.388 88.9825C103.955 88.9825 103.575 88.8197 103.359 88.5483C103.142 88.2769 103.034 87.8969 103.034 87.4084V81.4922H99.6208Z" fill="#C8453F"/>
<path id="Vector_13" d="M110.401 81.4922V92.022H116.847V89.5253H113.705V81.4922H110.401Z" fill="#C8453F"/>
<path id="Vector_14" d="M124.919 84.0975V81.4922H117.931V92.022H124.919V89.4167H121.235V87.8969H124.485V85.4002H121.235V84.0975H124.919Z" fill="#C8453F"/>
<path id="Vector_15" d="M126.111 81.4922V87.4084C126.111 88.4397 126.327 89.2539 126.706 89.9595C127.086 90.6651 127.627 91.2079 128.332 91.5335C129.036 91.9135 129.794 92.0763 130.715 92.0763C131.582 92.0763 132.394 91.9135 133.153 91.5335C133.857 91.1536 134.453 90.6651 134.886 89.9595C135.32 89.2539 135.536 88.3854 135.536 87.4084V81.4922H132.232V87.4084C132.232 87.8969 132.124 88.2769 131.907 88.5483C131.69 88.8197 131.311 88.9825 130.878 88.9825C130.444 88.9825 130.065 88.8197 129.848 88.5483C129.632 88.2769 129.523 87.8969 129.523 87.4084V81.4922H126.111Z" fill="#C8453F"/>
<path id="Vector_16" d="M145.179 86.8114C145.558 86.2686 145.775 85.6172 145.775 84.9116C145.775 84.2603 145.612 83.6633 145.341 83.1205C145.016 82.5777 144.583 82.1978 143.987 81.8721C143.391 81.5464 142.633 81.4379 141.82 81.4379H136.891V91.9677H140.195V88.1683L142.199 91.9677H145.829L143.554 87.9512C144.204 87.7884 144.8 87.3541 145.179 86.8114ZM142.199 85.8344C142.037 85.9972 141.82 86.0515 141.495 86.0515H140.195V84.2603H141.495C141.82 84.2603 142.037 84.3146 142.199 84.4774C142.362 84.6403 142.47 84.8574 142.47 85.1287C142.416 85.4544 142.362 85.6715 142.199 85.8344Z" fill="#C8453F"/>
</g>
</svg>
