<svg width="33" height="34" viewBox="0 0 33 34" fill="none" xmlns="http://www.w3.org/2000/svg">
<g id="shop">
<path id="Vector" d="M3.9978 11.0783L5.4113 25.4341C5.55642 26.9086 6.22762 28.2751 7.29482 29.2687C8.36202 30.2624 9.74925 30.8125 11.1877 30.8125H21.8123C23.2507 30.8125 24.638 30.2624 25.7052 29.2687C26.7724 28.2751 27.4436 26.9086 27.5887 25.4341L29.0022 11.0776L3.9978 11.0783Z" stroke="white" stroke-width="1.04167" stroke-linecap="round" stroke-linejoin="round"/>
<path id="Vector_2" d="M10.7478 11.0784V9.08369C10.7478 7.51204 11.3538 6.00476 12.4324 4.89344C13.5111 3.78211 14.974 3.15778 16.4994 3.15778C18.0249 3.15778 19.4878 3.78211 20.5664 4.89344C21.6451 6.00476 22.2511 7.51204 22.2511 9.08369V11.0777M14.0237 24.3624C14.5737 24.8377 15.1671 25.0566 16.5001 25.0566H17.1759C17.7044 25.0559 18.211 24.8389 18.5842 24.4534C18.9574 24.0679 19.1668 23.5455 19.1662 23.001C19.1668 22.4565 18.9574 21.9341 18.5842 21.5486C18.211 21.1632 17.7044 20.9462 17.1759 20.9454H15.8243C15.5626 20.9452 15.3035 20.8918 15.0619 20.7883C14.8202 20.6848 14.6007 20.5333 14.4158 20.3425C14.231 20.1516 14.0845 19.925 13.9847 19.6758C13.8848 19.4266 13.8336 19.1595 13.834 18.8899C13.8336 18.3455 14.0431 17.8233 14.4163 17.4379C14.7895 17.0526 15.2959 16.8357 15.8243 16.835H16.5001C17.8339 16.835 18.4272 17.0524 18.9765 17.5284" stroke="white" stroke-width="1.04167" stroke-linecap="round" stroke-linejoin="round"/>
</g>
</svg>
